<svg version="1.1" id="Layer_1" xmlns="http://www.w3.org/2000/svg" xmlns:xlink="http://www.w3.org/1999/xlink" x="0px" y="0px"
	 width="100%" viewBox="0 0 100 100" enable-background="new 0 0 100 100" xml:space="preserve">
<path fill="#000000" opacity="1.000000" stroke="none" 
	d="
M61.000000,101.000000 
	C40.666672,101.000000 20.833340,101.000000 1.000008,101.000000 
	C1.000005,67.666679 1.000005,34.333351 1.000003,1.000021 
	C34.333317,1.000014 67.666634,1.000014 100.999969,1.000007 
	C100.999977,34.333313 100.999977,67.666626 100.999985,100.999969 
	C87.833336,101.000000 74.666664,101.000000 61.000000,101.000000 
M74.535652,70.967072 
	C74.655609,70.649788 74.775558,70.332504 75.005615,69.348061 
	C74.958542,68.901512 74.911476,68.454964 75.107491,67.462128 
	C75.448097,66.992012 75.788704,66.521896 76.836891,65.987541 
	C82.360161,63.464008 81.631935,58.723995 81.850601,54.003563 
	C86.070297,53.178513 85.023354,50.536320 84.070663,47.803898 
	C82.465431,43.199875 79.696869,46.005699 76.610748,46.359921 
	C77.085289,48.841259 77.488724,50.950756 77.966858,53.759998 
	C77.654114,54.568367 77.341370,55.376736 76.348679,56.322041 
	C75.294090,58.557297 74.239502,60.792549 73.051979,63.639828 
	C73.012733,64.055313 72.973495,64.470795 72.217857,64.953278 
	C70.432915,66.268166 68.647972,67.583054 66.104271,68.929306 
	C65.377037,69.915649 64.649796,70.901993 63.407185,71.833527 
	C63.193378,71.566483 62.979568,71.299438 62.867508,70.359703 
	C62.911167,68.902382 62.954830,67.445068 63.742256,65.896317 
	C66.738098,65.036827 69.701164,64.146927 69.825340,59.987656 
	C70.236908,59.358406 70.648468,58.729156 71.621109,57.875317 
	C72.096382,57.252617 72.571648,56.629917 73.595314,55.629284 
	C73.386345,54.092739 73.177376,52.556194 73.005737,50.512562 
	C73.019241,50.343613 73.032745,50.174667 73.802231,49.855785 
	C76.474091,45.759495 76.694351,41.420525 74.769257,36.371197 
	C74.019867,35.044434 73.315224,33.689899 72.512459,32.396259 
	C70.354332,28.918497 68.980759,24.621960 63.919029,23.301754 
	C60.110916,21.552914 56.391598,19.539719 52.441708,18.212971 
	C51.223709,17.803850 49.376808,19.267056 47.189480,19.941801 
	C46.454502,20.606514 45.719524,21.271227 44.236080,22.012247 
	C42.143261,23.304098 40.050438,24.595949 37.201015,25.966274 
	C35.005684,26.260103 31.406340,25.859819 30.858431,26.968100 
	C28.504927,31.728630 33.308743,32.835354 35.935886,34.474110 
	C34.786453,35.807121 33.871933,36.867706 32.195988,37.945805 
	C30.657253,37.587719 29.132364,37.127258 27.573709,36.916481 
	C26.838888,36.817104 26.039259,37.196960 25.268993,37.359665 
	C25.603926,38.245415 25.746534,39.297016 26.327448,39.970646 
	C26.917904,40.655338 27.940447,40.967411 28.773884,41.440384 
	C28.547718,43.926613 28.321550,46.412838 27.852852,49.595646 
	C27.661039,50.758606 27.469227,51.921566 27.135517,53.823578 
	C28.099464,55.190952 29.063412,56.558327 30.015905,57.987602 
	C30.015905,57.987602 30.078220,57.978020 30.439577,58.617691 
	C33.452969,58.812042 33.131489,60.899914 32.278545,63.216927 
	C31.522408,63.308437 30.766270,63.399944 29.409742,63.811775 
	C28.958387,63.803562 28.507030,63.795349 27.999121,63.141483 
	C27.373852,62.717701 26.748583,62.293919 26.041348,61.193928 
	C25.043713,59.793022 24.046078,58.392120 22.842794,56.375156 
	C22.267132,55.256542 21.691471,54.137928 21.632368,52.694096 
	C21.498949,50.531528 21.365530,48.368961 21.137302,44.669689 
	C19.108221,46.452183 16.947355,47.442738 16.697525,48.788155 
	C16.345524,50.683800 17.409388,52.842361 17.341831,55.134392 
	C17.834610,55.734486 18.327389,56.334579 18.193590,57.298519 
	C18.381687,60.505684 18.881430,63.482903 23.504490,63.955082 
	C23.678286,64.000282 23.852079,64.045486 23.960354,64.002937 
	C23.960354,64.002937 23.872843,64.068787 24.183014,64.727295 
	C24.831736,66.485748 25.480455,68.244194 26.004061,70.629517 
	C26.320274,71.111526 26.636488,71.593544 27.262295,72.695732 
	C28.164577,72.841019 29.066860,72.986305 30.009239,73.792595 
	C30.636278,74.220879 31.263319,74.649170 32.097607,75.628731 
	C32.713638,76.049500 33.329666,76.470261 34.663498,77.226944 
	C38.418575,77.822609 42.173653,78.418282 46.018665,79.602806 
	C46.324890,80.035324 46.631115,80.467850 47.653561,80.999107 
	C48.363590,80.892624 49.073620,80.786140 50.579880,80.885376 
	C51.661819,80.907288 52.743755,80.929192 54.417351,80.930038 
	C54.602169,80.033325 54.786991,79.136612 55.586517,78.068474 
	C56.011608,78.056847 56.436695,78.045219 57.261860,78.716385 
	C60.216022,77.683990 63.232838,76.795334 66.093552,75.548531 
	C67.239754,75.048981 68.042427,73.761215 69.749565,72.973259 
	C70.879654,72.677345 72.009735,72.381424 73.050743,72.020996 
	C73.050743,72.020996 72.987183,72.110771 73.528687,71.932793 
	C73.718987,71.617035 73.909279,71.301277 73.972076,71.035065 
	C73.972076,71.035065 74.021194,71.162735 74.535652,70.967072 
z"/>
<path fill="#547E7B" opacity="1.000000" stroke="none" 
	d="
M69.186813,60.029747 
	C69.701164,64.146927 66.738098,65.036827 63.056778,65.878601 
	C59.637058,66.892937 56.902821,67.924995 53.814232,68.862732 
	C52.262138,67.210022 51.064392,65.651634 50.079700,63.841812 
	C50.193119,61.868496 50.093491,60.146618 50.208145,58.251915 
	C50.596359,58.020519 50.770287,57.961948 51.142372,58.159637 
	C54.811207,61.086983 58.447880,59.590405 62.264378,58.783474 
	C62.721874,58.554039 62.898361,58.328037 63.256866,57.973042 
	C63.676270,57.841850 63.842293,57.783928 64.315765,57.750671 
	C65.034729,57.782681 65.446259,57.790020 65.985825,58.119125 
	C66.851028,58.273392 67.588181,58.105904 68.514374,58.155792 
	C68.864555,58.925365 69.025681,59.477558 69.186813,60.029747 
z"/>
<path fill="#A4A378" opacity="1.000000" stroke="none" 
	d="
M32.957413,37.928291 
	C33.871933,36.867706 34.786453,35.807121 35.935886,34.474110 
	C33.308743,32.835354 28.504927,31.728630 30.858431,26.968100 
	C31.406340,25.859819 35.005684,26.260103 37.455971,26.260563 
	C36.914356,28.789997 36.705971,30.746410 40.065155,31.349857 
	C40.819592,32.688446 41.376431,33.783035 41.689480,34.938477 
	C41.294872,35.688076 41.144051,36.376823 40.684223,37.082253 
	C39.576290,37.733055 38.777367,38.367168 37.794380,39.155735 
	C37.378853,39.535114 37.183147,39.787746 36.988510,40.432793 
	C37.619888,41.433079 38.285961,42.068653 38.943626,43.036980 
	C38.915852,43.590805 38.896488,43.811867 38.575218,44.104073 
	C37.495827,45.116528 36.718342,46.057838 35.579597,46.998276 
	C34.495975,46.995144 33.773605,46.992878 33.037727,46.662048 
	C33.023026,45.895042 33.021828,45.456604 33.238586,45.097519 
	C33.990730,45.036873 34.524918,44.896873 35.059105,44.756874 
	C34.705547,44.501354 34.351990,44.245834 33.991898,43.660278 
	C33.988949,42.890148 33.992531,42.450043 34.305527,41.888405 
	C37.063435,39.227077 35.563133,38.428825 32.947266,38.066788 
	C32.896671,38.033314 32.957413,37.928291 32.957413,37.928291 
z"/>
<path fill="#94996A" opacity="1.000000" stroke="none" 
	d="
M45.928730,79.013947 
	C42.173653,78.418282 38.418575,77.822609 34.351379,76.704010 
	C35.065006,74.674797 36.090755,73.168510 37.273251,71.934830 
	C38.580414,72.079002 39.730824,71.950577 41.038204,71.993866 
	C41.771271,72.074799 42.347370,71.984001 43.113369,72.107330 
	C43.822903,72.530418 44.342533,72.739388 45.097954,73.195908 
	C46.357819,74.263268 47.381893,75.083076 48.094738,76.047760 
	C47.208916,76.847069 46.634323,77.501503 46.018803,78.369194 
	C45.977871,78.582451 45.928730,79.013947 45.928730,79.013947 
z"/>
<path fill="#547E7B" opacity="1.000000" stroke="none" 
	d="
M32.893856,62.940178 
	C33.131489,60.899914 33.452969,58.812042 30.612265,58.266460 
	C31.551172,56.895290 32.317394,55.875355 33.335957,54.819504 
	C34.357403,54.971390 35.126503,55.159195 35.762154,55.629139 
	C36.314640,57.623585 37.000587,59.335892 37.686531,61.048199 
	C38.221626,60.858852 38.756721,60.669506 39.291821,60.480160 
	C39.208523,59.313663 39.125229,58.147167 39.455338,57.028919 
	C41.243694,57.158825 42.618649,57.240479 43.981045,57.570786 
	C43.093845,58.452785 42.219200,59.086128 40.351143,60.438828 
	C43.562435,61.711235 46.251263,62.776623 48.591934,63.886902 
	C46.234272,64.202179 44.224766,64.472580 41.818947,64.805740 
	C38.579712,64.225723 35.736782,63.582951 32.893856,62.940178 
z"/>
<path fill="#BDB78A" opacity="1.000000" stroke="none" 
	d="
M33.020630,45.018162 
	C33.021828,45.456604 33.023026,45.895042 32.857212,46.811829 
	C31.774517,47.898598 30.858829,48.507023 29.634876,49.080830 
	C28.916203,48.997162 28.505793,48.948112 28.095385,48.899063 
	C28.321550,46.412838 28.547718,43.926613 28.773829,41.441521 
	C27.940447,40.967411 26.917904,40.655338 26.327448,39.970646 
	C25.746534,39.297016 25.603926,38.245415 25.268993,37.359665 
	C26.039259,37.196960 26.838888,36.817104 27.573709,36.916481 
	C29.132364,37.127258 30.657253,37.587719 32.576698,37.937050 
	C32.957413,37.928291 32.896671,38.033314 32.907516,38.376995 
	C33.277611,39.817097 33.636860,40.913521 33.996113,42.009941 
	C33.992531,42.450043 33.988949,42.890148 33.797287,43.799789 
	C33.362335,44.479103 33.166142,44.728714 33.020630,45.018162 
z"/>
<path fill="#64A0B6" opacity="1.000000" stroke="none" 
	d="
M32.586201,63.078552 
	C35.736782,63.582951 38.579712,64.225723 41.822548,65.202843 
	C42.456131,67.655861 42.689800,69.774529 42.923470,71.893204 
	C42.347370,71.984001 41.771271,72.074799 41.040016,71.710190 
	C40.634876,70.758156 40.384895,70.261528 39.979729,69.567902 
	C39.503029,69.299461 39.181522,69.228027 38.601082,69.141960 
	C37.916382,69.375084 37.490616,69.622833 36.733555,69.761887 
	C35.284405,69.399139 34.166546,69.145081 33.036812,68.518990 
	C32.035248,66.758789 31.045570,65.370621 30.111902,63.853420 
	C30.167913,63.724380 30.010132,63.491451 30.010132,63.491455 
	C30.766270,63.399944 31.522408,63.308437 32.586201,63.078552 
z"/>
<path fill="#45362D" opacity="1.000000" stroke="none" 
	d="
M75.084641,36.900414 
	C76.694351,41.420525 76.474091,45.759495 73.025803,49.928772 
	C71.457649,50.021774 70.665909,50.041790 69.651459,50.046402 
	C69.428734,50.030998 68.981888,49.993023 68.760895,49.894260 
	C68.264473,49.600094 68.083557,49.339153 68.004196,48.749229 
	C68.025383,48.310654 68.039528,48.135529 68.258263,47.683990 
	C68.653854,46.282780 68.844856,45.157986 69.339539,43.915375 
	C70.099419,42.876827 70.555634,41.956104 71.245064,41.023125 
	C71.478287,41.010872 71.940521,40.943733 72.146530,41.188526 
	C72.706146,42.436695 73.059753,43.440071 73.413368,44.443447 
	C73.678139,44.387070 73.942917,44.330692 74.207687,44.274315 
	C73.818665,42.191380 73.429642,40.108444 73.299042,37.890221 
	C74.066528,37.470093 74.575584,37.185253 75.084641,36.900414 
z"/>
<path fill="#919562" opacity="1.000000" stroke="none" 
	d="
M77.892151,53.060249 
	C77.488724,50.950756 77.085289,48.841259 76.610748,46.359921 
	C79.696869,46.005699 82.465431,43.199875 84.070663,47.803898 
	C85.023354,50.536320 86.070297,53.178513 81.154587,53.886787 
	C79.603104,53.533424 78.747620,53.296837 77.892151,53.060249 
z"/>
<path fill="#90693D" opacity="1.000000" stroke="none" 
	d="
M44.984550,21.935940 
	C45.719524,21.271227 46.454502,20.606514 47.739693,20.087700 
	C48.814884,20.825062 49.339867,21.416523 50.105549,22.247456 
	C52.488464,24.057821 54.630672,25.628717 56.783451,27.493240 
	C56.793961,28.178648 56.793903,28.570431 56.588345,29.209093 
	C55.542507,30.781565 54.702171,32.107159 53.599247,33.201908 
	C52.852161,31.679695 52.367661,30.388323 51.788074,28.753853 
	C50.452633,27.272869 49.212276,26.134983 47.694237,24.874378 
	C46.668053,24.470715 45.919552,24.189768 45.141296,23.579847 
	C45.069214,22.812563 45.026882,22.374250 44.984550,21.935940 
z"/>
<path fill="#81573B" opacity="1.000000" stroke="none" 
	d="
M49.864845,22.007986 
	C49.339867,21.416523 48.814884,20.825062 48.053886,20.053284 
	C49.376808,19.267056 51.223709,17.803850 52.441708,18.212971 
	C56.391598,19.539719 60.110916,21.552914 63.935646,23.809769 
	C63.952259,24.317781 63.955223,24.600061 63.715061,24.780647 
	C62.998009,25.305105 62.521118,25.648977 61.941956,25.656132 
	C59.888348,24.504044 57.937019,23.688675 55.857552,22.569065 
	C53.774563,22.179214 51.819702,22.093601 49.864845,22.007986 
z"/>
<path fill="#784C31" opacity="1.000000" stroke="none" 
	d="
M63.955223,24.600061 
	C63.955223,24.600061 63.952259,24.317781 63.967316,24.177494 
	C68.980759,24.621960 70.354332,28.918497 72.512459,32.396259 
	C73.315224,33.689899 74.019867,35.044434 74.926949,36.635803 
	C74.575584,37.185253 74.066528,37.470093 73.024261,37.951782 
	C72.307541,39.080334 72.124031,40.012032 71.940521,40.943733 
	C71.940521,40.943733 71.478287,41.010872 71.037140,40.758278 
	C69.733047,39.330681 68.870102,38.155682 67.798996,36.784832 
	C67.061989,36.388885 66.533150,36.188793 65.869522,35.817116 
	C65.711426,35.490112 65.636406,35.318085 65.679474,35.183979 
	C65.721687,35.052536 65.882805,34.865589 65.993912,34.864094 
	C67.543137,34.843159 69.092735,34.849907 72.139114,34.849907 
	C68.944565,30.848917 66.449890,27.724489 63.955223,24.600061 
z"/>
<path fill="#858B53" opacity="1.000000" stroke="none" 
	d="
M56.861786,78.033600 
	C56.436695,78.045219 56.011608,78.056847 54.977295,78.062408 
	C53.611919,77.682350 52.855762,77.308350 52.066299,76.590347 
	C52.018879,75.556175 52.004772,74.866020 52.287956,74.170090 
	C53.394089,73.422836 54.202919,72.681343 55.015915,71.973053 
	C55.020077,72.006248 54.953953,72.016541 55.286648,72.039597 
	C57.757614,71.763580 59.895889,71.464516 62.015289,71.504051 
	C62.064732,75.382469 61.268806,78.205513 56.861786,78.033600 
M60.537540,73.500366 
	C60.537540,73.500366 60.493866,73.515198 60.537540,73.500366 
z"/>
<path fill="#969969" opacity="1.000000" stroke="none" 
	d="
M77.929504,53.410126 
	C78.747620,53.296837 79.603104,53.533424 80.765121,53.906773 
	C81.631935,58.723995 82.360161,63.464008 76.109756,66.005493 
	C74.639862,66.029282 73.897102,66.035110 73.096596,65.752792 
	C73.003983,65.271851 72.969116,65.079063 72.934258,64.886284 
	C72.973495,64.470795 73.012733,64.055313 73.500519,63.331474 
	C75.756454,62.239986 77.563850,61.456856 79.371254,60.673729 
	C78.528503,59.657608 77.623734,58.683769 76.883408,57.597824 
	C76.679596,57.298866 76.966743,56.665192 77.028618,56.185104 
	C77.341370,55.376736 77.654114,54.568367 77.929504,53.410126 
z"/>
<path fill="#62A0B2" opacity="1.000000" stroke="none" 
	d="
M62.034161,71.165459 
	C59.895889,71.464516 57.757614,71.763580 55.299286,71.716270 
	C54.709015,70.565620 54.438797,69.761337 54.168579,68.957062 
	C56.902821,67.924995 59.637058,66.892937 62.684891,65.924316 
	C62.954830,67.445068 62.911167,68.902382 62.631050,70.714539 
	C62.394592,71.069382 62.034161,71.165459 62.034161,71.165459 
z"/>
<path fill="#A9875B" opacity="1.000000" stroke="none" 
	d="
M44.610313,21.974094 
	C45.026882,22.374250 45.069214,22.812563 44.857113,23.808083 
	C43.024307,26.612148 41.445934,28.859005 39.867561,31.105862 
	C36.705971,30.746410 36.914356,28.789997 37.834274,26.221329 
	C40.050438,24.595949 42.143261,23.304098 44.610313,21.974094 
z"/>
<path fill="#848B54" opacity="1.000000" stroke="none" 
	d="
M17.867857,54.888504 
	C17.409388,52.842361 16.345524,50.683800 16.697525,48.788155 
	C16.947355,47.442738 19.108221,46.452183 21.137302,44.669689 
	C21.365530,48.368961 21.498949,50.531528 21.058386,52.911018 
	C19.612223,53.714798 18.740040,54.301651 17.867857,54.888504 
z"/>
<path fill="#979C6C" opacity="1.000000" stroke="none" 
	d="
M62.015289,71.504051 
	C62.034161,71.165459 62.394592,71.069382 62.580177,71.050888 
	C62.979568,71.299438 63.193378,71.566483 63.895248,71.960075 
	C64.977043,71.709991 65.570770,71.333351 66.432861,71.105423 
	C67.470116,71.513039 68.239021,71.771950 69.005768,72.231201 
	C69.003609,72.431534 69.001465,72.832222 69.001465,72.832222 
	C68.042427,73.761215 67.239754,75.048981 66.093552,75.548531 
	C63.232838,76.795334 60.216022,77.683990 57.061821,78.374992 
	C61.268806,78.205513 62.064732,75.382469 62.015289,71.504051 
z"/>
<path fill="#4D7D7D" opacity="1.000000" stroke="none" 
	d="
M27.974117,49.247353 
	C28.505793,48.948112 28.916203,48.997162 29.694687,49.408489 
	C31.069712,51.465652 32.076664,53.160534 33.083614,54.855419 
	C32.317394,55.875355 31.551172,56.895290 30.431587,57.946625 
	C30.078220,57.978020 30.015905,57.987602 29.945717,57.649757 
	C29.009493,55.902782 28.143454,54.493656 27.277412,53.084526 
	C27.469227,51.921566 27.661039,50.758606 27.974117,49.247353 
z"/>
<path fill="#858B54" opacity="1.000000" stroke="none" 
	d="
M76.688644,56.253571 
	C76.966743,56.665192 76.679596,57.298866 76.883408,57.597824 
	C77.623734,58.683769 78.528503,59.657608 79.371254,60.673729 
	C77.563850,61.456856 75.756454,62.239986 73.566986,63.025459 
	C74.239502,60.792549 75.294090,58.557297 76.688644,56.253571 
z"/>
<path fill="#838852" opacity="1.000000" stroke="none" 
	d="
M23.048443,56.991215 
	C24.046078,58.392120 25.043713,59.793022 25.840506,61.724377 
	C25.387913,62.811592 25.136162,63.368359 24.631628,63.961807 
	C24.210178,64.021919 24.041512,64.045357 23.872843,64.068787 
	C23.872843,64.068787 23.960354,64.002937 23.823158,63.863106 
	C23.459026,63.479191 23.232092,63.235107 22.873867,62.706573 
	C21.839794,60.621719 20.937012,58.821320 20.410034,56.991417 
	C21.540039,56.971684 22.294241,56.981449 23.048443,56.991215 
z"/>
<path fill="#8B925B" opacity="1.000000" stroke="none" 
	d="
M69.007919,72.030861 
	C68.239021,71.771950 67.470116,71.513039 66.553825,70.900986 
	C66.626808,70.314125 66.868958,70.105705 67.485748,69.916832 
	C69.581940,69.270447 71.325272,68.629807 73.367584,67.989365 
	C74.065842,67.995842 74.465118,68.002129 74.864403,68.008423 
	C74.911476,68.454964 74.958542,68.901512 74.767944,69.841515 
	C74.333382,70.594154 74.163681,70.870071 74.021194,71.162735 
	C74.021194,71.162735 73.972076,71.035065 73.838913,71.185043 
	C73.466225,71.593597 73.226707,71.852188 72.987183,72.110771 
	C72.987183,72.110771 73.050743,72.020996 72.681129,72.019958 
	C71.210320,72.022896 70.109116,72.026878 69.007919,72.030861 
z"/>
<path fill="#9D9F73" opacity="1.000000" stroke="none" 
	d="
M24.027927,64.398041 
	C24.041512,64.045357 24.210178,64.021919 24.898102,64.069061 
	C26.296797,64.022141 27.176235,63.904640 28.055676,63.787140 
	C28.507030,63.795349 28.958387,63.803562 29.709938,63.651611 
	C30.010132,63.491451 30.167913,63.724380 29.946682,64.146172 
	C29.463444,66.394218 29.201437,68.220467 28.588013,70.048462 
	C27.534124,70.034348 26.831650,70.018494 26.129177,70.002647 
	C25.480455,68.244194 24.831736,66.485748 24.027927,64.398041 
z"/>
<path fill="#818750" opacity="1.000000" stroke="none" 
	d="
M73.068604,67.989174 
	C71.325272,68.629807 69.581940,69.270447 67.429451,69.658051 
	C66.967873,69.235992 66.915459,69.066971 66.863037,68.897949 
	C68.647972,67.583054 70.432915,66.268166 72.576057,64.919785 
	C72.969116,65.079063 73.003983,65.271851 73.071732,66.076775 
	C73.092621,67.122330 73.080612,67.555748 73.068604,67.989174 
z"/>
<path fill="#BDB070" opacity="1.000000" stroke="none" 
	d="
M33.048691,68.891029 
	C34.166546,69.145081 35.284405,69.399139 36.705853,70.062454 
	C37.045132,70.868553 37.080814,71.265396 37.116501,71.662231 
	C36.090755,73.168510 35.065006,74.674797 33.992477,76.536057 
	C33.329666,76.470261 32.713638,76.049500 32.213585,75.144135 
	C32.548599,74.104462 32.767632,73.549370 33.155724,72.828148 
	C33.271347,72.094749 33.217911,71.527489 33.121815,70.617233 
	C33.069000,69.813171 33.058846,69.352097 33.048691,68.891029 
z"/>
<path fill="#9FA47B" opacity="1.000000" stroke="none" 
	d="
M20.034229,57.020920 
	C20.937012,58.821320 21.839794,60.621719 22.867901,62.908321 
	C22.993221,63.394524 22.989162,63.798008 22.989162,63.798008 
	C18.881430,63.482903 18.381687,60.505684 18.810163,57.140896 
	C19.629236,56.995823 19.831734,57.008373 20.034229,57.020920 
z"/>
<path fill="#B5B081" opacity="1.000000" stroke="none" 
	d="
M20.410034,56.991417 
	C19.831734,57.008373 19.629236,56.995823 19.123451,56.958973 
	C18.327389,56.334579 17.834610,55.734486 17.604843,55.011448 
	C18.740040,54.301651 19.612223,53.714798 20.800106,53.073631 
	C21.691471,54.137928 22.267132,55.256542 22.945618,56.683186 
	C22.294241,56.981449 21.540039,56.971684 20.410034,56.991417 
z"/>
<path fill="#9D9F73" opacity="1.000000" stroke="none" 
	d="
M33.164474,70.960228 
	C33.217911,71.527489 33.271347,72.094749 32.777443,72.823547 
	C31.476450,73.033920 30.722797,73.082756 29.969145,73.131592 
	C29.066860,72.986305 28.164577,72.841019 27.314676,72.165237 
	C27.923552,71.422531 28.480043,71.210320 29.349035,71.036636 
	C30.829180,71.036850 31.996828,70.998543 33.164474,70.960228 
z"/>
<path fill="#BB4856" opacity="1.000000" stroke="none" 
	d="
M52.099606,76.934349 
	C52.855762,77.308350 53.611919,77.682350 54.669945,78.148125 
	C54.786991,79.136612 54.602169,80.033325 53.965302,80.675217 
	C52.932987,79.845787 52.352726,79.271187 51.747154,78.657272 
	C51.721848,78.617958 51.529129,78.605759 51.141052,78.664536 
	C50.496449,78.774940 50.239925,78.826576 49.966785,78.716545 
	C49.950169,78.554886 49.896175,78.234383 49.934052,78.050552 
	C49.971924,77.866722 50.035507,77.498848 50.258034,77.352997 
	C50.632160,77.115112 50.783756,77.023071 51.226418,76.931961 
	C51.711517,76.933372 51.905560,76.933861 52.099606,76.934349 
z"/>
<path fill="#454647" opacity="1.000000" stroke="none" 
	d="
M69.874176,50.061806 
	C70.665909,50.041790 71.457649,50.021774 72.647812,50.003738 
	C73.032745,50.174667 73.019241,50.343613 72.749146,51.000237 
	C72.281860,52.338272 72.071175,53.188637 71.586075,54.103012 
	C70.970451,54.324406 70.629257,54.481789 70.209473,54.494339 
	C70.130882,54.349506 69.981941,54.055515 69.978249,53.654594 
	C69.941093,52.189716 69.907631,51.125763 69.874176,50.061806 
z"/>
<path fill="#C5AA6C" opacity="1.000000" stroke="none" 
	d="
M70.288063,54.639168 
	C70.629257,54.481789 70.970451,54.324406 71.628242,54.409695 
	C72.312202,55.103985 72.679558,55.555603 73.046921,56.007217 
	C72.571648,56.629917 72.096382,57.252617 71.121918,57.845146 
	C70.364975,57.582451 70.107216,57.349930 69.905045,56.749378 
	C69.991074,56.135826 70.021515,55.890305 70.086685,55.473495 
	C70.217438,55.091351 70.272980,54.870338 70.288063,54.639168 
z"/>
<path fill="#547E7B" opacity="1.000000" stroke="none" 
	d="
M27.206467,53.454052 
	C28.143454,54.493656 29.009493,55.902782 29.951445,57.618805 
	C29.063412,56.558327 28.099464,55.190952 27.206467,53.454052 
z"/>
<path fill="#B14251" opacity="1.000000" stroke="none" 
	d="
M49.896175,78.234383 
	C49.896175,78.234383 49.950169,78.554886 49.939850,79.018127 
	C49.880905,79.880791 49.832275,80.280228 49.783646,80.679657 
	C49.073620,80.786140 48.363590,80.892624 47.320679,80.662033 
	C47.330254,79.645210 47.672710,78.965469 48.328667,78.238297 
	C49.060169,78.205360 49.478172,78.219872 49.896175,78.234383 
z"/>
<path fill="#D4BA6C" opacity="1.000000" stroke="none" 
	d="
M66.483658,68.913628 
	C66.915459,69.066971 66.967873,69.235992 67.076591,69.663795 
	C66.868958,70.105705 66.626808,70.314125 66.285461,70.752281 
	C65.570770,71.333351 64.977043,71.709991 64.152939,71.987480 
	C64.649796,70.901993 65.377037,69.915649 66.483658,68.913628 
z"/>
<path fill="#CFB55F" opacity="1.000000" stroke="none" 
	d="
M28.027397,63.464310 
	C27.176235,63.904640 26.296797,64.022141 25.150883,64.032387 
	C25.136162,63.368359 25.387913,62.811592 25.881489,62.062481 
	C26.748583,62.293919 27.373852,62.717701 28.027397,63.464310 
z"/>
<path fill="#657570" opacity="1.000000" stroke="none" 
	d="
M50.181763,80.782516 
	C49.832275,80.280228 49.880905,79.880791 49.956467,79.179779 
	C50.239925,78.826576 50.496449,78.774940 51.189743,78.711281 
	C51.626518,78.699249 51.772461,78.696587 51.772461,78.696587 
	C52.352726,79.271187 52.932987,79.845787 53.669472,80.685745 
	C52.743755,80.929192 51.661819,80.907288 50.181763,80.782516 
z"/>
<path fill="#565756" opacity="1.000000" stroke="none" 
	d="
M73.321121,55.818253 
	C72.679558,55.555603 72.312202,55.103985 71.902664,54.345684 
	C72.071175,53.188637 72.281860,52.338272 72.730469,51.253777 
	C73.177376,52.556194 73.386345,54.092739 73.321121,55.818253 
z"/>
<path fill="#CFB55F" opacity="1.000000" stroke="none" 
	d="
M29.989193,73.462097 
	C30.722797,73.082756 31.476450,73.033920 32.608383,72.989685 
	C32.767632,73.549370 32.548599,74.104462 32.109962,74.868500 
	C31.263319,74.649170 30.636278,74.220879 29.989193,73.462097 
z"/>
<path fill="#CF6864" opacity="1.000000" stroke="none" 
	d="
M69.849464,57.117405 
	C70.107216,57.349930 70.364975,57.582451 70.841385,57.957443 
	C70.648468,58.729156 70.236908,59.358406 69.506073,60.008701 
	C69.025681,59.477558 68.864555,58.925365 68.500130,57.931923 
	C68.296837,57.490673 68.354210,57.044712 68.601410,57.084282 
	C69.182236,57.121700 69.515846,57.119553 69.849464,57.117405 
z"/>
<path fill="#999D72" opacity="1.000000" stroke="none" 
	d="
M73.367584,67.989365 
	C73.080612,67.555748 73.092621,67.122330 73.129486,66.364922 
	C73.897102,66.035110 74.639862,66.029282 75.755959,66.037613 
	C75.788704,66.521896 75.448097,66.992012 74.985947,67.735275 
	C74.465118,68.002129 74.065842,67.995842 73.367584,67.989365 
z"/>
<path fill="#999D72" opacity="1.000000" stroke="none" 
	d="
M69.005768,72.231201 
	C70.109116,72.026878 71.210320,72.022896 72.725670,72.052216 
	C72.009735,72.381424 70.879654,72.677345 69.375519,72.902740 
	C69.001465,72.832222 69.003609,72.431534 69.005768,72.231201 
z"/>
<path fill="#466762" opacity="1.000000" stroke="none" 
	d="
M48.015167,78.285736 
	C47.672710,78.965469 47.330254,79.645210 46.962566,80.612656 
	C46.631115,80.467850 46.324890,80.035324 45.973698,79.308380 
	C45.928730,79.013947 45.977871,78.582451 46.347511,78.333969 
	C47.149826,78.152245 47.582497,78.218994 48.015167,78.285736 
z"/>
<path fill="#B2B396" opacity="1.000000" stroke="none" 
	d="
M29.036537,70.998116 
	C28.480043,71.210320 27.923552,71.422531 27.159880,71.855148 
	C26.636488,71.593544 26.320274,71.111526 26.066620,70.316086 
	C26.831650,70.018494 27.534124,70.034348 28.636982,70.283676 
	C29.037369,70.517166 29.036537,70.998116 29.036537,70.998116 
z"/>
<path fill="#999D72" opacity="1.000000" stroke="none" 
	d="
M73.257935,72.021782 
	C73.226707,71.852188 73.466225,71.593597 73.902664,71.160263 
	C73.909279,71.301277 73.718987,71.617035 73.257935,72.021782 
z"/>
<path fill="#999D72" opacity="1.000000" stroke="none" 
	d="
M74.278427,71.064903 
	C74.163681,70.870071 74.333382,70.594154 74.712898,70.175095 
	C74.775558,70.332504 74.655609,70.649788 74.278427,71.064903 
z"/>
<path fill="#9D9F73" opacity="1.000000" stroke="none" 
	d="
M23.246826,63.876545 
	C22.989162,63.798008 22.993221,63.394524 22.999187,63.192772 
	C23.232092,63.235107 23.459026,63.479191 23.855919,63.906986 
	C23.852079,64.045486 23.678286,64.000282 23.246826,63.876545 
z"/>
<path fill="#553624" opacity="1.000000" stroke="none" 
	d="
M70.209473,54.494339 
	C70.272980,54.870338 70.217438,55.091351 69.718758,55.539871 
	C68.340607,55.913090 67.365120,56.048645 66.081276,56.205650 
	C65.184715,56.726734 64.596512,57.226368 64.008316,57.725998 
	C63.842293,57.783928 63.676270,57.841850 63.191307,57.632771 
	C60.617603,52.098652 56.873745,50.784218 51.381912,53.160454 
	C50.322315,53.106468 49.616604,53.062302 48.899487,52.665176 
	C48.519997,51.193386 48.151913,50.074554 48.131630,48.897545 
	C49.610413,48.517601 50.741386,48.195835 52.101498,48.031769 
	C52.547729,47.127548 52.764832,46.065636 52.704414,44.949554 
	C51.291573,43.929897 50.156246,42.964405 49.009804,41.617634 
	C48.964542,40.220367 48.930401,39.204380 48.905960,37.783401 
	C48.843136,36.842278 48.770607,36.306152 48.734924,35.761978 
	C48.771774,35.753937 48.731838,35.817928 48.875618,35.764088 
	C49.226864,35.426971 49.170002,35.181046 48.866676,34.574509 
	C48.999245,33.122700 49.113945,32.068855 49.493942,30.931166 
	C50.467216,30.263863 51.175186,29.680407 51.883160,29.096951 
	C52.367661,30.388323 52.852161,31.679695 53.715172,33.408455 
	C55.064945,33.563686 56.036213,33.281532 57.339668,33.000351 
	C58.114788,33.001762 58.557713,33.002209 59.052437,33.278526 
	C59.381989,34.032253 59.659744,34.510105 59.959129,35.243954 
	C59.993389,35.670609 60.006027,35.841267 59.707405,36.120163 
	C58.590492,37.472557 57.784847,38.716713 56.988045,39.973633 
	C56.996891,39.986389 56.976646,39.988853 56.784721,40.135048 
	C56.354977,40.508499 56.183002,40.777817 56.210686,41.339993 
	C56.886143,41.728035 57.427784,41.865265 57.993408,42.222496 
	C58.017395,42.442493 58.074116,42.881325 58.095169,43.252037 
	C59.172245,44.348072 60.228264,45.073399 61.430916,45.800392 
	C61.577553,45.802055 61.870747,45.794533 61.904999,45.961258 
	C61.939247,46.127979 61.981289,46.465778 62.060196,46.779930 
	C62.450146,47.655937 62.761189,48.217789 63.167976,49.122612 
	C64.268562,49.939068 65.273407,50.412560 66.545403,50.832001 
	C67.234711,51.001686 67.656876,51.225418 68.018250,51.809334 
	C68.632294,52.798180 69.307121,53.426849 69.981941,54.055515 
	C69.981941,54.055515 70.130882,54.349506 70.209473,54.494339 
z"/>
<path fill="#C88B4C" opacity="1.000000" stroke="none" 
	d="
M53.814232,68.862732 
	C54.438797,69.761337 54.709015,70.565620 54.966591,71.693222 
	C54.953953,72.016541 55.020077,72.006248 54.768326,72.021339 
	C54.353096,72.075691 54.189621,72.114952 53.594353,72.108406 
	C51.427521,72.118530 49.692486,72.174461 47.619347,72.184189 
	C46.474884,72.408104 45.668526,72.678230 44.862164,72.948364 
	C44.342533,72.739388 43.822903,72.530418 43.113369,72.107330 
	C42.689800,69.774529 42.456131,67.655861 42.218861,65.140076 
	C44.224766,64.472580 46.234272,64.202179 48.820549,63.961571 
	C49.397327,63.991348 49.866650,64.093246 49.866650,64.093246 
	C51.064392,65.651634 52.262138,67.210022 53.814232,68.862732 
z"/>
<path fill="#E4E4E4" opacity="1.000000" stroke="none" 
	d="
M48.910896,53.018139 
	C49.616604,53.062302 50.322315,53.106468 51.483574,53.488998 
	C52.708027,54.646694 53.476929,55.466026 53.969421,56.438072 
	C52.776749,57.028316 51.860481,57.465851 50.944214,57.903381 
	C50.770287,57.961948 50.596359,58.020519 49.910049,58.295212 
	C49.198288,58.535908 48.998905,58.560490 48.595066,58.307709 
	C47.595631,57.809532 46.800648,57.588715 45.674713,57.293320 
	C44.893711,57.253204 44.443657,57.287666 43.993603,57.322132 
	C42.618649,57.240479 41.243694,57.158825 39.407120,56.722797 
	C38.928452,55.956688 38.911407,55.544945 39.171791,54.982353 
	C39.956921,54.465458 40.464622,54.099411 41.386028,53.793407 
	C44.170120,53.575012 46.540508,53.296577 48.910896,53.018139 
z"/>
<path fill="#4D7D7D" opacity="1.000000" stroke="none" 
	d="
M48.799519,58.585072 
	C48.998905,58.560490 49.198288,58.535908 49.695763,58.468033 
	C50.093491,60.146618 50.193119,61.868496 50.079700,63.841812 
	C49.866650,64.093246 49.397327,63.991348 49.168709,63.916679 
	C46.251263,62.776623 43.562435,61.711235 40.351143,60.438828 
	C42.219200,59.086128 43.093845,58.452785 43.981045,57.570786 
	C44.443657,57.287666 44.893711,57.253204 45.765892,57.532227 
	C47.058521,58.092163 47.929020,58.338619 48.799519,58.585072 
z"/>
<path fill="#413026" opacity="1.000000" stroke="none" 
	d="
M54.245827,56.285355 
	C53.476929,55.466026 52.708027,54.646694 51.837463,53.498821 
	C56.873745,50.784218 60.617603,52.098652 62.937927,57.706036 
	C62.898361,58.328037 62.721874,58.554039 62.217457,58.404022 
	C59.389202,57.484268 56.817513,56.884811 54.245827,56.285355 
z"/>
<path fill="#C5AB4C" opacity="1.000000" stroke="none" 
	d="
M53.969421,56.438072 
	C56.817513,56.884811 59.389202,57.484268 62.007809,58.463181 
	C58.447880,59.590405 54.811207,61.086983 51.142372,58.159637 
	C51.860481,57.465851 52.776749,57.028316 53.969421,56.438072 
z"/>
<path fill="#DBD8DA" opacity="1.000000" stroke="none" 
	d="
M68.354210,57.044708 
	C68.354210,57.044712 68.296837,57.490673 68.311081,57.714542 
	C67.588181,58.105904 66.851028,58.273392 66.071075,57.948586 
	C66.028275,57.456287 66.230255,57.130142 66.584160,57.118790 
	C67.410110,57.086533 67.882164,57.065620 68.354210,57.044708 
z"/>
<path fill="#523626" opacity="1.000000" stroke="none" 
	d="
M66.230255,57.130142 
	C66.230255,57.130142 66.028275,57.456287 65.943024,57.626823 
	C65.446259,57.790020 65.034729,57.782681 64.315765,57.750668 
	C64.596512,57.226368 65.184715,56.726734 66.018402,56.438232 
	C66.263885,56.649364 66.230255,57.130142 66.230255,57.130142 
z"/>
<path fill="#A77E4D" opacity="1.000000" stroke="none" 
	d="
M49.228645,31.015013 
	C49.113945,32.068855 48.999245,33.122700 48.791790,34.779663 
	C48.699036,35.382778 48.731838,35.817928 48.731838,35.817928 
	C48.731838,35.817928 48.771774,35.753937 48.475945,35.832050 
	C48.418827,36.669575 48.657543,37.428986 48.896259,38.188396 
	C48.930401,39.204380 48.964542,40.220367 48.662785,41.618320 
	C46.546440,42.004196 44.765999,42.008106 42.858185,41.770920 
	C42.228519,41.010578 41.726223,40.491329 41.186325,39.649208 
	C41.170322,38.894077 41.191929,38.461815 41.456512,37.900620 
	C42.395206,37.267475 43.090919,36.763275 43.786629,36.259071 
	C43.168842,35.798588 42.551056,35.338104 41.933266,34.877625 
	C41.376431,33.783035 40.819592,32.688446 40.065155,31.349857 
	C41.445934,28.859005 43.024307,26.612148 44.886864,24.137056 
	C45.919552,24.189768 46.668053,24.470715 47.735085,25.257069 
	C48.445286,27.513319 48.836967,29.264166 49.228645,31.015013 
z"/>
<path fill="#764E32" opacity="1.000000" stroke="none" 
	d="
M42.985554,42.012016 
	C44.765999,42.008106 46.546440,42.004196 48.673904,41.999603 
	C50.156246,42.964405 51.291573,43.929897 52.590263,45.236870 
	C52.459877,46.343594 52.166119,47.108833 51.872364,47.874069 
	C50.741386,48.195835 49.610413,48.517601 47.891766,48.680908 
	C44.571407,47.316833 41.838718,46.111221 39.057762,44.685089 
	C39.009495,44.464569 38.877125,44.032928 38.877125,44.032928 
	C38.896488,43.811867 38.915852,43.590805 38.967621,43.079117 
	C39.000019,42.788490 38.935368,42.863102 39.221176,43.007690 
	C40.666508,42.772186 41.826031,42.392101 42.985554,42.012016 
z"/>
<path fill="#C9AA47" opacity="1.000000" stroke="none" 
	d="
M38.575218,44.104073 
	C38.877125,44.032928 39.009495,44.464569 39.166264,45.011951 
	C43.581696,47.535660 44.549500,50.175987 40.972324,53.733368 
	C40.464622,54.099411 39.956921,54.465458 38.954906,54.857063 
	C38.269279,54.612778 38.077965,54.342934 37.878750,53.700500 
	C37.227520,51.218330 36.584187,49.108738 35.940857,46.999146 
	C36.718342,46.057838 37.495827,45.116528 38.575218,44.104073 
z"/>
<path fill="#A4A27C" opacity="1.000000" stroke="none" 
	d="
M35.579597,46.998276 
	C36.584187,49.108738 37.227520,51.218330 37.623772,53.854462 
	C36.882999,54.702999 36.389305,55.025002 35.895607,55.347000 
	C35.126503,55.159195 34.357403,54.971390 33.335957,54.819504 
	C32.076664,53.160534 31.069712,51.465652 30.002953,49.443108 
	C30.858829,48.507023 31.774517,47.898598 32.870720,47.140388 
	C33.773605,46.992878 34.495975,46.995144 35.579597,46.998276 
z"/>
<path fill="#000000" opacity="1.000000" stroke="none" 
	d="
M41.213531,38.029556 
	C41.191929,38.461815 41.170322,38.894077 41.073418,39.975258 
	C40.310535,41.370491 39.622952,42.116798 38.935368,42.863102 
	C38.935368,42.863102 39.000019,42.788490 38.976028,42.746357 
	C38.285961,42.068653 37.619888,41.433079 37.252281,40.366478 
	C37.693314,39.624065 37.835880,39.312675 37.978443,39.001282 
	C38.777367,38.367168 39.576290,37.733055 40.700531,37.332123 
	C41.088409,37.720051 41.150970,37.874805 41.213531,38.029556 
z"/>
<path fill="#A4A27C" opacity="1.000000" stroke="none" 
	d="
M34.305527,41.888405 
	C33.636860,40.913521 33.277611,39.817097 32.958107,38.410469 
	C35.563133,38.428825 37.063435,39.227077 34.305527,41.888405 
z"/>
<path fill="#8C704E" opacity="1.000000" stroke="none" 
	d="
M41.456516,37.900620 
	C41.150970,37.874805 41.088409,37.720051 41.009537,37.315434 
	C41.144051,36.376823 41.294872,35.688076 41.689480,34.938477 
	C42.551056,35.338104 43.168842,35.798588 43.786629,36.259071 
	C43.090919,36.763275 42.395206,37.267475 41.456516,37.900620 
z"/>
<path fill="#A4A27C" opacity="1.000000" stroke="none" 
	d="
M33.238586,45.097519 
	C33.166142,44.728714 33.362335,44.479103 33.803825,44.129822 
	C34.351990,44.245834 34.705547,44.501354 35.059105,44.756874 
	C34.524918,44.896873 33.990730,45.036873 33.238586,45.097519 
z"/>
<path fill="#A4A27C" opacity="1.000000" stroke="none" 
	d="
M37.794380,39.155735 
	C37.835880,39.312675 37.693314,39.624065 37.286976,40.001770 
	C37.183147,39.787746 37.378853,39.535114 37.794380,39.155735 
z"/>
<path fill="#6A99A7" opacity="1.000000" stroke="none" 
	d="
M54.026150,72.154205 
	C54.189621,72.114952 54.353096,72.075691 54.764160,71.988144 
	C54.202919,72.681343 53.394089,73.422836 52.015533,74.131546 
	C51.263515,74.114357 51.081219,74.129936 50.641098,74.279495 
	C50.136585,74.943886 49.889900,75.474304 49.435051,75.980011 
	C48.954052,75.925255 48.680412,75.907784 48.405972,75.902893 
	C47.381893,75.083076 46.357819,74.263268 45.097954,73.195908 
	C45.668526,72.678230 46.474884,72.408104 47.929089,72.357735 
	C50.393341,72.436394 52.209743,72.295303 54.026150,72.154205 
z"/>
<path fill="#D6C57E" opacity="1.000000" stroke="none" 
	d="
M37.273251,71.934830 
	C37.080814,71.265396 37.045132,70.868553 37.037148,70.171150 
	C37.490616,69.622833 37.916382,69.375084 38.653061,69.340904 
	C39.354290,69.624611 39.744602,69.694756 40.134918,69.764900 
	C40.384895,70.261528 40.634876,70.758156 40.883049,71.538467 
	C39.730824,71.950577 38.580414,72.079002 37.273251,71.934830 
z"/>
<path fill="#83978E" opacity="1.000000" stroke="none" 
	d="
M48.094738,76.047760 
	C48.680412,75.907784 48.954052,75.925255 49.536049,76.352554 
	C49.908646,76.999489 49.972076,77.249168 50.035507,77.498848 
	C50.035507,77.498848 49.971924,77.866722 49.934052,78.050552 
	C49.478172,78.219872 49.060169,78.205360 48.328667,78.238297 
	C47.582497,78.218994 47.149826,78.152245 46.388443,78.120712 
	C46.634323,77.501503 47.208916,76.847069 48.094738,76.047760 
z"/>
<path fill="#4D7D7D" opacity="1.000000" stroke="none" 
	d="
M35.762154,55.629139 
	C36.389305,55.025002 36.882999,54.702999 37.631676,54.227043 
	C38.077965,54.342934 38.269279,54.612778 38.677475,55.007915 
	C38.911407,55.544945 38.928452,55.956688 38.993717,56.674549 
	C39.125229,58.147167 39.208523,59.313663 39.291821,60.480160 
	C38.756721,60.669506 38.221626,60.858852 37.686531,61.048199 
	C37.000587,59.335892 36.314640,57.623585 35.762154,55.629139 
z"/>
<path fill="#7D834A" opacity="1.000000" stroke="none" 
	d="
M29.349035,71.036636 
	C29.036537,70.998116 29.037369,70.517166 28.988400,70.281944 
	C29.201437,68.220467 29.463444,66.394218 29.890671,64.275208 
	C31.045570,65.370621 32.035248,66.758789 33.036812,68.518990 
	C33.058846,69.352097 33.069000,69.813171 33.121815,70.617233 
	C31.996828,70.998543 30.829180,71.036850 29.349035,71.036636 
z"/>
<path fill="#EBDDAA" opacity="1.000000" stroke="none" 
	d="
M39.979729,69.567902 
	C39.744602,69.694756 39.354290,69.624611 38.911995,69.355530 
	C39.181522,69.228027 39.503029,69.299461 39.979729,69.567902 
z"/>
<path fill="#5B3925" opacity="1.000000" stroke="none" 
	d="
M59.937500,34.987953 
	C59.659744,34.510105 59.381989,34.032253 59.349976,33.174149 
	C59.749222,31.870590 60.328590,30.722208 59.980671,30.063904 
	C58.650051,27.546221 59.706009,26.510239 62.044228,25.992851 
	C62.521118,25.648977 62.998009,25.305105 63.715061,24.780647 
	C66.449890,27.724489 68.944565,30.848917 72.139114,34.849907 
	C69.092735,34.849907 67.543137,34.843159 65.993912,34.864094 
	C65.882805,34.865589 65.721687,35.052536 65.679474,35.183979 
	C65.636406,35.318085 65.711426,35.490112 65.887619,36.110031 
	C66.303261,37.098000 66.566025,37.621475 66.828789,38.144951 
	C67.221581,37.756863 67.614365,37.368771 68.007156,36.980682 
	C68.870102,38.155682 69.733047,39.330681 70.803917,40.770531 
	C70.555634,41.956104 70.099419,42.876827 69.149719,43.742462 
	C67.770622,43.124695 66.885002,42.562012 66.162804,41.977325 
	C66.454826,41.795292 66.583427,41.635258 66.712029,41.475220 
	C66.474808,41.650349 66.237595,41.825481 65.717636,41.946777 
	C64.282539,41.278046 63.130192,40.663151 61.720394,40.035965 
	C61.291172,40.014847 61.119404,40.006020 60.926468,39.662365 
	C60.926868,38.880924 60.948433,38.434315 61.272968,38.003922 
	C62.598869,38.229450 63.621796,38.438766 64.644722,38.648083 
	C64.742577,38.150177 64.840431,37.652271 64.938286,37.154366 
	C63.809498,36.950714 62.680710,36.747063 61.415863,36.331764 
	C61.148327,36.015942 61.016850,35.911770 60.761841,35.636906 
	C60.432102,35.266685 60.198502,35.107265 59.937500,34.987953 
z"/>
<path fill="#62412B" opacity="1.000000" stroke="none" 
	d="
M61.977848,40.048256 
	C63.130192,40.663151 64.282539,41.278046 65.717438,41.946472 
	C66.000000,42.000000 65.999390,41.999329 65.999390,41.999329 
	C66.885002,42.562012 67.770622,43.124695 68.846046,43.860283 
	C68.844856,45.157986 68.653854,46.282780 68.194031,47.412094 
	C67.623177,46.967228 67.321136,46.517838 66.700668,46.120422 
	C65.829514,46.493557 65.276787,46.814716 64.366241,47.118183 
	C63.332703,46.888920 62.656994,46.677349 61.981289,46.465778 
	C61.981289,46.465778 61.939247,46.127979 61.928101,45.657021 
	C61.630123,44.439297 61.343292,43.692535 61.174858,42.664349 
	C61.521450,41.604702 61.749649,40.826481 61.977848,40.048256 
z"/>
<path fill="#62412B" opacity="1.000000" stroke="none" 
	d="
M72.146530,41.188526 
	C72.124031,40.012032 72.307541,39.080334 72.765839,38.087067 
	C73.429642,40.108444 73.818665,42.191380 74.207687,44.274315 
	C73.942917,44.330692 73.678139,44.387070 73.413368,44.443447 
	C73.059753,43.440071 72.706146,42.436695 72.146530,41.188526 
z"/>
<path fill="#000000" opacity="1.000000" stroke="none" 
	d="
M68.079033,51.449150 
	C67.656876,51.225418 67.234711,51.001686 66.371300,50.605537 
	C65.604477,49.969139 65.278915,49.505161 64.972878,49.022682 
	C64.992409,49.004177 65.030609,48.966270 65.356247,49.093575 
	C66.133484,49.112206 66.585083,49.003536 67.276733,48.924911 
	C67.516777,48.954956 67.997169,49.012676 67.997169,49.012676 
	C68.083557,49.339153 68.264473,49.600094 68.762299,50.169411 
	C68.682800,50.845264 68.380920,51.147209 68.079033,51.449150 
z"/>
<path fill="#6C6360" opacity="1.000000" stroke="none" 
	d="
M68.018250,51.809334 
	C68.380920,51.147209 68.682800,50.845264 68.983292,50.268173 
	C68.981888,49.993023 69.428734,50.030998 69.651459,50.046402 
	C69.907631,51.125763 69.941093,52.189716 69.978249,53.654594 
	C69.307121,53.426849 68.632294,52.798180 68.018250,51.809334 
z"/>
<path fill="#5F5E5D" opacity="1.000000" stroke="none" 
	d="
M68.004196,48.749229 
	C67.997169,49.012676 67.516777,48.954956 67.269104,48.571018 
	C67.020645,47.480869 67.019867,46.774662 67.019096,46.068451 
	C67.321136,46.517838 67.623177,46.967228 67.989449,47.688511 
	C68.039528,48.135529 68.025383,48.310654 68.004196,48.749229 
z"/>
<path fill="#432D21" opacity="1.000000" stroke="none" 
	d="
M61.941956,25.656132 
	C59.706009,26.510239 58.650051,27.546221 59.980671,30.063904 
	C60.328590,30.722208 59.749222,31.870590 59.298180,32.898277 
	C58.557713,33.002209 58.114788,33.001762 57.380604,32.685822 
	C56.990845,31.234289 56.892345,30.098249 56.793846,28.962212 
	C56.793903,28.570431 56.793961,28.178648 56.812378,27.119263 
	C56.549053,25.258875 56.267368,24.066090 55.985687,22.873304 
	C57.937019,23.688675 59.888348,24.504044 61.941956,25.656132 
z"/>
<path fill="#784327" opacity="1.000000" stroke="none" 
	d="
M55.857552,22.569065 
	C56.267368,24.066090 56.549053,25.258875 56.801811,26.825638 
	C54.630672,25.628717 52.488464,24.057821 50.105549,22.247456 
	C51.819702,22.093601 53.774563,22.179214 55.857552,22.569065 
z"/>
<path fill="#5F3E27" opacity="1.000000" stroke="none" 
	d="
M49.493946,30.931166 
	C48.836967,29.264166 48.445286,27.513319 48.012764,25.379784 
	C49.212276,26.134983 50.452633,27.272869 51.788074,28.753853 
	C51.175186,29.680407 50.467216,30.263863 49.493946,30.931166 
z"/>
<path fill="#784327" opacity="1.000000" stroke="none" 
	d="
M56.588345,29.209093 
	C56.892345,30.098249 56.990845,31.234289 57.048412,32.684853 
	C56.036213,33.281532 55.064945,33.563686 53.977760,33.639294 
	C54.702171,32.107159 55.542507,30.781565 56.588345,29.209093 
z"/>
<path fill="#62412B" opacity="1.000000" stroke="none" 
	d="
M67.798996,36.784832 
	C67.614365,37.368771 67.221581,37.756863 66.828789,38.144951 
	C66.566025,37.621475 66.303261,37.098000 66.022400,36.281609 
	C66.533150,36.188793 67.061989,36.388885 67.798996,36.784832 
z"/>
<path fill="#AE5F5B" opacity="1.000000" stroke="none" 
	d="
M50.898926,74.145515 
	C51.081219,74.129936 51.263515,74.114357 51.718239,74.137314 
	C52.004772,74.866020 52.018879,75.556175 52.066299,76.590347 
	C51.905560,76.933861 51.711517,76.933372 51.248058,76.584457 
	C50.952068,75.539185 50.925499,74.842354 50.898926,74.145515 
z"/>
<path fill="#979C6C" opacity="1.000000" stroke="none" 
	d="
M60.515701,73.507782 
	C60.493866,73.515198 60.537540,73.500366 60.515701,73.507782 
z"/>
<path fill="#D57A8A" opacity="1.000000" stroke="none" 
	d="
M50.641098,74.279495 
	C50.925499,74.842354 50.952068,75.539185 50.956993,76.583527 
	C50.783756,77.023071 50.632160,77.115112 50.258034,77.352997 
	C49.972076,77.249168 49.908646,76.999489 49.744217,76.377258 
	C49.889900,75.474304 50.136585,74.943886 50.641098,74.279495 
z"/>
<path fill="#B14251" opacity="1.000000" stroke="none" 
	d="
M51.747154,78.657272 
	C51.772461,78.696587 51.626518,78.699249 51.577824,78.652504 
	C51.529129,78.605759 51.721848,78.617958 51.747154,78.657272 
z"/>
<path fill="#A6A3A2" opacity="1.000000" stroke="none" 
	d="
M66.584160,57.118790 
	C66.230255,57.130142 66.263885,56.649364 66.326759,56.416786 
	C67.365120,56.048645 68.340607,55.913090 69.684021,55.711159 
	C70.021515,55.890305 69.991074,56.135826 69.905045,56.749374 
	C69.515846,57.119553 69.182236,57.121700 68.601410,57.084278 
	C67.882164,57.065620 67.410110,57.086533 66.584160,57.118790 
z"/>
<path fill="#9B6E47" opacity="1.000000" stroke="none" 
	d="
M41.386028,53.793407 
	C44.549500,50.175987 43.581696,47.535660 39.214531,45.232471 
	C41.838718,46.111221 44.571407,47.316833 47.543961,48.739082 
	C48.151913,50.074554 48.519997,51.193386 48.899487,52.665176 
	C46.540508,53.296577 44.170120,53.575012 41.386028,53.793407 
z"/>
<path fill="#81512F" opacity="1.000000" stroke="none" 
	d="
M60.885376,35.807598 
	C61.016850,35.911770 61.148327,36.015942 61.257187,36.689659 
	C61.146385,37.502037 61.058189,37.744873 60.969994,37.987705 
	C60.948433,38.434315 60.926868,38.880924 60.634827,39.713879 
	C59.638851,40.397423 58.913357,40.694622 58.001614,40.802681 
	C57.536640,40.395988 57.257923,40.178429 56.979202,39.960873 
	C57.784847,38.716713 58.590492,37.472557 59.926407,36.079311 
	C60.456676,35.930225 60.885376,35.807598 60.885376,35.807598 
z"/>
<path fill="#523626" opacity="1.000000" stroke="none" 
	d="
M61.284279,45.798729 
	C60.228264,45.073399 59.172245,44.348072 58.405064,43.297508 
	C59.111485,42.999634 59.529064,43.026997 60.071091,43.335152 
	C60.558449,44.343544 60.921360,45.071136 61.284279,45.798729 
z"/>
<path fill="#523626" opacity="1.000000" stroke="none" 
	d="
M52.101498,48.031769 
	C52.166119,47.108833 52.459877,46.343594 52.867783,45.291039 
	C52.764832,46.065636 52.547729,47.127548 52.101498,48.031769 
z"/>
<path fill="#523626" opacity="1.000000" stroke="none" 
	d="
M64.953346,49.041183 
	C65.278915,49.505161 65.604477,49.969139 66.104149,50.659584 
	C65.273407,50.412560 64.268562,49.939068 63.482094,49.162003 
	C64.118103,48.919350 64.535721,48.980267 64.953346,49.041183 
z"/>
<path fill="#000000" opacity="1.000000" stroke="none" 
	d="
M64.972878,49.022682 
	C64.535721,48.980267 64.118103,48.919350 63.386356,48.819038 
	C62.761189,48.217789 62.450146,47.655937 62.060196,46.779930 
	C62.656994,46.677349 63.332703,46.888920 64.380371,47.435558 
	C64.845093,48.169174 64.937851,48.567722 65.030609,48.966270 
	C65.030609,48.966270 64.992409,49.004177 64.972878,49.022682 
z"/>
<path fill="#5F3E27" opacity="1.000000" stroke="none" 
	d="
M48.905960,37.783401 
	C48.657543,37.428986 48.418827,36.669575 48.439095,35.840096 
	C48.770607,36.306152 48.843136,36.842278 48.905960,37.783401 
z"/>
<path fill="#835C40" opacity="1.000000" stroke="none" 
	d="
M61.430916,45.800392 
	C60.921360,45.071136 60.558449,44.343544 60.086380,43.319748 
	C59.977226,43.023552 60.004768,42.991558 60.267448,42.974483 
	C60.705570,42.953533 60.881016,42.949654 61.056461,42.945770 
	C61.343292,43.692535 61.630123,44.439297 61.893852,45.490295 
	C61.870747,45.794533 61.577553,45.802055 61.430916,45.800392 
z"/>
<path fill="#AC804E" opacity="1.000000" stroke="none" 
	d="
M56.988045,39.973633 
	C57.257923,40.178429 57.536640,40.395988 57.956940,41.043716 
	C58.098515,41.473885 57.963520,41.944485 57.957008,41.960190 
	C57.950497,41.975899 57.969421,42.002499 57.969421,42.002499 
	C57.427784,41.865265 56.886143,41.728035 56.408813,41.198273 
	C56.733955,40.590763 56.901794,40.318466 56.976646,39.988853 
	C56.976646,39.988853 56.996891,39.986389 56.988045,39.973633 
z"/>
<path fill="#835C40" opacity="1.000000" stroke="none" 
	d="
M59.961937,43.038956 
	C59.529064,43.026997 59.111485,42.999634 58.384010,42.926796 
	C58.074116,42.881325 58.017395,42.442493 57.993408,42.222496 
	C57.969421,42.002499 57.950497,41.975899 58.246742,42.016129 
	C59.030243,42.368088 59.517506,42.679825 60.004768,42.991562 
	C60.004768,42.991558 59.977226,43.023552 59.961937,43.038956 
z"/>
<path fill="#70482C" opacity="1.000000" stroke="none" 
	d="
M60.761841,35.636906 
	C60.885376,35.807598 60.456676,35.930225 60.237671,35.971077 
	C60.006027,35.841267 59.993389,35.670609 59.959129,35.243954 
	C60.198502,35.107265 60.432102,35.266685 60.761841,35.636906 
z"/>
<path fill="#5F3E27" opacity="1.000000" stroke="none" 
	d="
M48.875618,35.764088 
	C48.731838,35.817928 48.699036,35.382778 48.773922,35.177628 
	C49.170002,35.181046 49.226864,35.426971 48.875618,35.764088 
z"/>
<path fill="#81512F" opacity="1.000000" stroke="none" 
	d="
M56.784721,40.135048 
	C56.901794,40.318466 56.733955,40.590763 56.274998,40.947464 
	C56.183002,40.777817 56.354977,40.508499 56.784721,40.135048 
z"/>
<path fill="#74817E" opacity="1.000000" stroke="none" 
	d="
M53.594353,72.108398 
	C52.209743,72.295303 50.393341,72.436394 48.267193,72.403946 
	C49.692486,72.174461 51.427521,72.118530 53.594353,72.108398 
z"/>
<path fill="#547E7B" opacity="1.000000" stroke="none" 
	d="
M48.595066,58.307709 
	C47.929020,58.338619 47.058521,58.092163 46.096840,57.606804 
	C46.800648,57.588715 47.595631,57.809532 48.595066,58.307709 
z"/>
<path fill="#8C704E" opacity="1.000000" stroke="none" 
	d="
M39.221176,43.007690 
	C39.622952,42.116798 40.310535,41.370491 41.111023,40.298134 
	C41.726223,40.491329 42.228519,41.010578 42.858185,41.770920 
	C41.826031,42.392101 40.666508,42.772186 39.221176,43.007690 
z"/>
<path fill="#62412B" opacity="1.000000" stroke="none" 
	d="
M61.272968,38.003922 
	C61.058189,37.744873 61.146385,37.502037 61.393250,36.901306 
	C62.680710,36.747063 63.809498,36.950714 64.938286,37.154366 
	C64.840431,37.652271 64.742577,38.150177 64.644722,38.648083 
	C63.621796,38.438766 62.598869,38.229450 61.272968,38.003922 
z"/>
<path fill="#70482C" opacity="1.000000" stroke="none" 
	d="
M60.267448,42.974487 
	C59.517506,42.679825 59.030243,42.368088 58.253250,42.000420 
	C57.963520,41.944485 58.098515,41.473885 58.143188,41.232853 
	C58.913357,40.694622 59.638851,40.397423 60.655991,40.048710 
	C61.119404,40.006020 61.291172,40.014847 61.720394,40.035965 
	C61.749649,40.826481 61.521450,41.604702 61.174858,42.664349 
	C60.881016,42.949654 60.705570,42.953533 60.267448,42.974487 
z"/>
<path fill="#62412B" opacity="1.000000" stroke="none" 
	d="
M66.000191,42.000305 
	C66.237595,41.825481 66.474808,41.650349 66.712029,41.475220 
	C66.583427,41.635258 66.454826,41.795292 66.162804,41.977325 
	C65.999390,41.999329 66.000000,42.000000 66.000191,42.000305 
z"/>
<path fill="#454647" opacity="1.000000" stroke="none" 
	d="
M65.356247,49.093575 
	C64.937851,48.567722 64.845093,48.169174 64.738205,47.453251 
	C65.276787,46.814716 65.829514,46.493557 66.700668,46.120422 
	C67.019867,46.774662 67.020645,47.480869 67.029053,48.540977 
	C66.585083,49.003536 66.133484,49.112206 65.356247,49.093575 
z"/>
</svg>