<svg version="1.1" id="Layer_1" xmlns="http://www.w3.org/2000/svg" xmlns:xlink="http://www.w3.org/1999/xlink" x="0px" y="0px"
	 width="100%" viewBox="0 0 100 100" enable-background="new 0 0 100 100" xml:space="preserve">
<path fill="#000000" opacity="1.000000" stroke="none" 
	d="
M77.000000,1.000000 
	C84.989899,1.000000 92.979797,1.000000 100.984848,1.000000 
	C100.984848,34.281136 100.984848,67.562279 100.984848,100.921707 
	C67.761101,100.921707 34.521980,100.921707 1.141425,100.921707 
	C1.141425,67.667091 1.141425,34.333630 1.141425,1.000000 
	C8.414339,1.000000 15.738433,1.000000 23.851654,1.265127 
	C22.133137,5.594451 17.776230,9.522336 17.464722,13.748413 
	C16.531784,26.405045 17.180672,39.178276 17.156178,52.283836 
	C19.478687,58.950272 23.325802,63.741562 30.220852,65.627319 
	C30.273865,65.775047 30.577478,65.854752 30.772522,66.134354 
	C34.592594,67.616699 38.217625,68.819443 41.906837,70.284790 
	C42.041084,70.713432 42.111145,70.879478 42.132690,71.451271 
	C42.678913,76.602501 43.273651,81.347977 44.033150,86.391037 
	C46.132851,86.795364 48.067783,86.902107 50.382694,87.105095 
	C51.892544,87.241478 53.027386,87.367371 54.151165,87.302277 
	C55.979698,87.196358 57.801003,86.965546 59.625355,86.787445 
	C59.450687,85.150406 59.276024,83.513374 59.094200,81.666046 
	C59.087040,81.455750 59.045593,81.036919 59.284058,80.897850 
	C60.039566,80.250549 60.556614,79.742317 61.313133,79.107956 
	C61.669216,78.663635 61.785828,78.345444 61.876862,77.771942 
	C61.332733,76.893036 60.814182,76.269440 60.715065,75.531097 
	C61.368847,73.633980 61.603199,71.851608 61.905838,69.800148 
	C61.991432,69.347443 62.008747,69.163818 62.392830,68.988831 
	C63.491619,69.026627 64.223640,69.055801 65.105209,69.375015 
	C65.852562,69.435081 66.477058,69.257301 67.044250,68.967407 
	C78.456680,63.134598 86.722527,55.483376 85.135323,40.990799 
	C84.398865,34.266209 85.101227,27.393202 84.951683,20.591866 
	C84.856178,16.248360 86.606194,11.243376 81.188446,8.433839 
	C80.765038,8.214268 80.917412,6.884362 80.845932,5.753003 
	C80.252769,4.878776 79.615860,4.322048 78.903305,3.517650 
	C78.297173,2.854133 77.766678,2.438285 77.135918,1.776348 
	C77.023773,1.353506 77.011887,1.176753 77.000000,1.000000 
z"/>
<path fill="#FFE029" opacity="1.000000" stroke="none" 
	d="
M17.212090,51.905991 
	C17.180672,39.178276 16.531784,26.405045 17.464722,13.748413 
	C17.776230,9.522336 22.133137,5.594451 24.320393,1.265127 
	C40.687561,1.000000 57.375122,1.000000 74.746353,1.235041 
	C76.032066,1.654201 76.634125,1.838320 77.236176,2.022437 
	C77.766678,2.438285 78.297173,2.854133 78.942139,3.840182 
	C79.638474,4.963756 80.220329,5.517128 80.802177,6.070500 
	C80.917412,6.884362 80.765038,8.214268 81.188446,8.433839 
	C86.606194,11.243376 84.856178,16.248360 84.951683,20.591866 
	C85.101227,27.393202 84.398865,34.266209 85.135323,40.990799 
	C86.722527,55.483376 78.456680,63.134598 67.044250,68.967407 
	C66.477058,69.257301 65.852562,69.435081 65.060425,69.063850 
	C64.527275,67.950577 64.188446,67.438507 63.835991,66.604263 
	C63.852287,64.544510 63.882206,62.806938 63.943127,60.624908 
	C64.018845,57.827847 64.063568,55.475250 64.338333,52.856277 
	C66.763779,47.618637 69.315102,42.764435 71.004776,37.626846 
	C71.852287,35.049919 71.130844,31.956985 71.094330,28.702595 
	C69.653389,20.276638 66.085670,16.698650 58.054775,15.774570 
	C53.731506,15.277112 49.353592,15.254595 44.613308,15.013365 
	C36.650455,16.204571 31.779163,22.094198 30.788658,31.228107 
	C30.717461,32.646969 30.858236,33.837120 31.016857,35.408012 
	C33.326241,40.859169 35.617779,45.929592 37.950623,51.376152 
	C38.333813,56.112434 38.675697,60.472576 39.014530,65.121773 
	C39.016846,65.602364 39.022217,65.793907 38.697388,65.945419 
	C37.522541,65.613022 36.677895,65.320656 35.650383,65.045074 
	C35.467525,65.061859 35.100273,65.060402 34.972694,64.932922 
	C34.570869,64.924019 34.296619,65.042595 33.742100,65.258530 
	C32.500378,65.522163 31.538929,65.688461 30.577478,65.854752 
	C30.577478,65.854752 30.273865,65.775047 30.256636,65.309906 
	C25.896967,60.531845 21.554527,56.218918 17.212090,51.905991 
M66.504768,66.469955 
	C66.504768,66.469955 66.522934,66.514961 66.504768,66.469955 
z"/>
<path fill="#FFFF00" opacity="1.000000" stroke="none" 
	d="
M77.135918,1.776349 
	C76.634125,1.838320 76.032066,1.654201 75.215012,1.235041 
	C75.444443,1.000000 75.888893,1.000000 76.666672,1.000000 
	C77.011887,1.176753 77.023773,1.353506 77.135918,1.776349 
z"/>
<path fill="#C3C1C1" opacity="1.000000" stroke="none" 
	d="
M43.868389,86.093452 
	C43.273651,81.347977 42.678913,76.602501 42.499866,71.439148 
	C43.650547,71.009438 44.385536,70.997612 45.168877,71.311485 
	C46.576508,72.702911 47.935783,73.768631 49.096500,75.051559 
	C48.878914,75.851357 48.859890,76.433937 48.613129,77.296982 
	C47.498459,80.744293 48.047710,84.672920 43.868389,86.093452 
z"/>
<path fill="#696364" opacity="1.000000" stroke="none" 
	d="
M48.840866,77.016525 
	C48.859890,76.433937 48.878914,75.851357 49.528698,75.080452 
	C51.779617,74.592728 53.399780,74.293312 55.420731,73.990112 
	C56.892872,73.979958 57.964222,73.973595 59.098930,74.183334 
	C59.162289,74.399437 59.098557,74.845291 58.847649,74.931229 
	C58.284977,75.349960 57.973213,75.682762 57.661449,76.015564 
	C57.780914,76.121162 57.900379,76.226761 58.019844,76.332359 
	C58.397282,75.854828 58.774715,75.377289 59.472473,75.033470 
	C59.960411,75.326744 60.128025,75.486290 60.295631,75.645836 
	C60.814182,76.269440 61.332733,76.893036 61.694099,77.939636 
	C61.320961,78.620407 61.166542,78.910889 61.073666,79.234085 
	C60.556614,79.742317 60.039566,80.250549 58.834778,80.883247 
	C56.044899,80.935768 53.942760,80.863815 51.641102,80.560875 
	C50.574680,79.225426 49.707771,78.120979 48.840866,77.016525 
z"/>
<path fill="#7C7979" opacity="1.000000" stroke="none" 
	d="
M59.101357,81.876335 
	C59.276024,83.513374 59.450687,85.150406 59.625355,86.787445 
	C57.801003,86.965546 55.979698,87.196358 54.151165,87.302277 
	C53.027386,87.367371 51.892544,87.241478 50.356163,86.807892 
	C50.610039,85.001007 51.270416,83.587578 52.376389,82.119598 
	C54.915104,82.002144 57.008232,81.939240 59.101357,81.876335 
z"/>
<path fill="#FFC02D" opacity="1.000000" stroke="none" 
	d="
M17.156178,52.283836 
	C21.554527,56.218918 25.896967,60.531845 30.203625,65.162186 
	C23.325802,63.741562 19.478687,58.950272 17.156178,52.283836 
z"/>
<path fill="#989595" opacity="1.000000" stroke="none" 
	d="
M51.930794,82.174149 
	C51.270416,83.587578 50.610039,85.001007 49.976189,86.711639 
	C48.067783,86.902107 46.132851,86.795364 44.033150,86.391037 
	C48.047710,84.672920 47.498459,80.744293 48.613129,77.296982 
	C49.707771,78.120979 50.574680,79.225426 51.388165,80.629562 
	C51.103500,81.085953 50.872261,81.242645 50.641018,81.399345 
	C51.070942,81.657616 51.500870,81.915878 51.930794,82.174149 
z"/>
<path fill="#FFC02D" opacity="1.000000" stroke="none" 
	d="
M35.100273,65.060402 
	C35.100273,65.060402 35.467525,65.061859 35.774982,65.381836 
	C37.496994,66.473106 38.911545,67.244392 40.472458,68.029922 
	C40.618813,68.044159 40.915646,68.094055 41.014076,68.323944 
	C41.382072,68.732880 41.651630,68.911934 41.921188,69.325439 
	C41.921185,69.559898 41.842655,70.022186 41.842655,70.022186 
	C38.217625,68.819443 34.592594,67.616699 30.772522,66.134354 
	C31.538929,65.688461 32.500378,65.522163 34.011566,65.232529 
	C34.740959,65.092926 34.920616,65.076660 35.100273,65.060402 
z"/>
<path fill="#A39990" opacity="1.000000" stroke="none" 
	d="
M41.906837,70.284790 
	C41.842655,70.022186 41.921185,69.559898 42.263355,69.283264 
	C43.062843,68.997818 43.520164,68.989006 44.388161,69.002121 
	C45.897121,69.099968 46.995396,69.175896 48.027046,69.418175 
	C47.960419,69.584526 47.788666,69.899086 47.494789,69.922333 
	C46.507446,70.292313 45.813984,70.639053 45.120522,70.985786 
	C44.385536,70.997612 43.650547,71.009438 42.548386,71.033386 
	C42.111145,70.879478 42.041084,70.713432 41.906837,70.284790 
z"/>
<path fill="#3F393B" opacity="1.000000" stroke="none" 
	d="
M52.376389,82.119598 
	C51.500870,81.915878 51.070942,81.657616 50.641018,81.399345 
	C50.872261,81.242645 51.103500,81.085953 51.587681,80.860565 
	C53.942760,80.863815 56.044899,80.935768 58.596317,81.022316 
	C59.045593,81.036919 59.087040,81.455750 59.094200,81.666046 
	C57.008232,81.939240 54.915104,82.002144 52.376389,82.119598 
z"/>
<path fill="#9F9C8F" opacity="1.000000" stroke="none" 
	d="
M60.715065,75.531097 
	C60.128025,75.486290 59.960411,75.326744 59.430099,75.048409 
	C59.067410,74.929626 59.098557,74.845291 59.098557,74.845291 
	C59.098557,74.845291 59.162289,74.399437 59.079769,73.938507 
	C58.997250,73.477570 59.009113,72.986198 59.225624,72.780273 
	C59.569031,72.001793 59.695930,71.429230 59.847656,70.626503 
	C59.872486,70.396339 59.937675,69.937950 60.210236,69.932144 
	C60.663975,69.911957 60.845150,69.897560 61.228146,69.933990 
	C61.429962,69.984833 61.837555,70.069237 61.837555,70.069237 
	C61.603199,71.851608 61.368847,73.633980 60.715065,75.531097 
z"/>
<path fill="#FFDC23" opacity="1.000000" stroke="none" 
	d="
M63.849609,66.926437 
	C64.188446,67.438507 64.527275,67.950577 64.910889,68.773804 
	C64.223640,69.055801 63.491619,69.026627 62.387070,68.761757 
	C62.014538,68.526054 61.935089,68.078789 61.960091,67.836365 
	C61.985096,67.593948 62.019112,67.107681 62.323303,67.062500 
	C63.034870,66.987022 63.442238,66.956734 63.849609,66.926437 
z"/>
<path fill="#887540" opacity="1.000000" stroke="none" 
	d="
M61.935089,68.078789 
	C61.935089,68.078789 62.014538,68.526054 62.020302,68.753128 
	C62.008747,69.163818 61.991432,69.347443 61.905838,69.800148 
	C61.837555,70.069237 61.429962,69.984833 61.096741,69.752518 
	C60.546539,69.300819 60.288956,69.151405 59.984375,69.035721 
	C59.977982,68.999474 60.010563,68.933479 60.182701,68.716225 
	C60.881588,68.358910 61.408340,68.218849 61.935089,68.078789 
z"/>
<path fill="#FFFF00" opacity="1.000000" stroke="none" 
	d="
M80.845932,5.753001 
	C80.220329,5.517128 79.638474,4.963756 79.017784,4.087852 
	C79.615860,4.322048 80.252769,4.878776 80.845932,5.753001 
z"/>
<path fill="#6A6667" opacity="1.000000" stroke="none" 
	d="
M61.313133,79.107956 
	C61.166542,78.910889 61.320961,78.620407 61.719681,78.194946 
	C61.785828,78.345444 61.669216,78.663635 61.313133,79.107956 
z"/>
<path fill="#FBBD0E" opacity="1.000000" stroke="none" 
	d="
M45.000332,15.017786 
	C49.353592,15.254595 53.731506,15.277112 58.054775,15.774570 
	C66.085670,16.698650 69.653389,20.276638 71.073334,29.078979 
	C70.411392,31.904152 69.745796,33.958118 68.839401,36.094238 
	C67.810455,36.116230 67.022316,36.056061 66.215866,35.595779 
	C66.137360,34.131821 66.077164,33.067974 66.017227,31.576401 
	C65.643585,21.231756 64.257744,19.839827 54.276920,20.071255 
	C51.348808,20.139149 48.434559,20.804811 45.349525,21.086384 
	C44.794537,20.870272 44.403976,20.764282 44.141037,20.341722 
	C44.512550,18.356030 44.756443,16.686907 45.000332,15.017786 
z"/>
<path fill="#F8DF75" opacity="1.000000" stroke="none" 
	d="
M39.017586,64.832718 
	C38.675697,60.472576 38.333813,56.112434 38.303417,51.358009 
	C39.084354,50.949482 39.553799,50.935238 40.245941,51.179893 
	C42.695099,52.067760 44.921558,52.696735 47.165894,53.307701 
	C47.183777,53.289692 47.202431,53.254082 47.331551,53.619957 
	C47.511219,54.998142 47.561775,56.010452 47.395233,57.309349 
	C46.789326,60.316830 46.400517,63.037720 45.616631,65.816666 
	C44.159477,65.967537 43.097397,66.060356 41.701500,66.064255 
	C40.909279,65.976776 40.450874,65.978226 39.993340,65.993561 
	C39.994205,66.007454 40.022015,66.006241 39.916100,65.765259 
	C39.545982,65.293762 39.281784,65.063240 39.017586,64.832718 
z"/>
<path fill="#F6AB0F" opacity="1.000000" stroke="none" 
	d="
M44.613308,15.013364 
	C44.756443,16.686907 44.512550,18.356030 43.805977,20.418983 
	C37.879143,21.559780 35.898296,23.731131 34.734974,30.235088 
	C33.635155,32.467472 32.624783,33.707348 31.000635,30.999399 
	C31.779163,22.094198 36.650455,16.204571 44.613308,15.013364 
z"/>
<path fill="#FBE170" opacity="1.000000" stroke="none" 
	d="
M63.835991,66.604256 
	C63.442238,66.956734 63.034870,66.987022 62.038345,66.929428 
	C60.306820,67.277000 59.164444,67.712456 57.763237,68.030228 
	C56.969120,67.383881 56.433834,66.855232 55.930981,65.953796 
	C55.965210,63.997101 55.967007,62.413208 55.980682,60.448624 
	C56.005795,59.041595 56.019024,58.015266 56.403732,57.010078 
	C59.154182,58.377274 61.533150,59.723320 63.912121,61.069370 
	C63.882206,62.806938 63.852287,64.544510 63.835991,66.604256 
z"/>
<path fill="#FCCA2D" opacity="1.000000" stroke="none" 
	d="
M30.788658,31.228107 
	C32.624783,33.707348 33.635155,32.467472 35.160240,30.237949 
	C37.209518,30.068949 38.623421,30.113480 40.026962,30.529259 
	C38.658562,33.951656 37.300518,37.002808 35.672073,39.873154 
	C33.934120,38.137325 32.466568,36.582302 30.999012,35.027275 
	C30.858236,33.837120 30.717461,32.646969 30.788658,31.228107 
z"/>
<path fill="#FADE4E" opacity="1.000000" stroke="none" 
	d="
M63.943127,60.624908 
	C61.533150,59.723320 59.154182,58.377274 56.272873,56.769661 
	C55.531208,56.015858 55.291885,55.523613 55.058571,54.703323 
	C55.007710,53.942474 54.950844,53.509666 54.926041,52.676514 
	C55.024883,51.742313 55.091660,51.208466 55.355621,50.928520 
	C56.333523,54.876064 58.046944,53.473423 60.186085,51.970711 
	C61.395042,52.002411 62.199230,52.019722 63.154762,52.248100 
	C63.573505,52.680332 63.840893,52.901493 64.108284,53.122654 
	C64.063568,55.475250 64.018845,57.827847 63.943127,60.624908 
z"/>
<path fill="#F7D750" opacity="1.000000" stroke="none" 
	d="
M31.016857,35.408012 
	C32.466568,36.582302 33.934120,38.137325 35.800209,40.117142 
	C36.460918,41.027596 36.723091,41.513256 36.999626,42.340652 
	C37.668030,43.790855 38.322071,44.899323 39.032829,46.365341 
	C39.400784,48.122265 39.712013,49.521629 40.023243,50.920998 
	C39.553799,50.935238 39.084354,50.949482 38.262115,50.981873 
	C35.617779,45.929592 33.326241,40.859169 31.016857,35.408012 
z"/>
<path fill="#F3D151" opacity="1.000000" stroke="none" 
	d="
M64.338333,52.856277 
	C63.840893,52.901493 63.573505,52.680332 63.389877,51.973843 
	C64.022873,49.373379 64.572113,47.258240 65.398872,44.932518 
	C66.810997,41.818649 67.945595,38.915367 69.080200,36.012085 
	C69.745796,33.958118 70.411392,31.904152 71.097977,29.473801 
	C71.130844,31.956985 71.852287,35.049919 71.004776,37.626846 
	C69.315102,42.764435 66.763779,47.618637 64.338333,52.856277 
z"/>
<path fill="#FFEE34" opacity="1.000000" stroke="none" 
	d="
M40.326103,68.015686 
	C38.911545,67.244392 37.496994,66.473106 35.957840,65.365051 
	C36.677895,65.320656 37.522541,65.613022 38.945763,65.956848 
	C39.524338,66.008293 40.022015,66.006241 40.022015,66.006241 
	C40.022015,66.006241 39.994205,66.007454 39.998253,66.339264 
	C40.110229,67.119270 40.218166,67.567482 40.326103,68.015686 
z"/>
<path fill="#FFDC23" opacity="1.000000" stroke="none" 
	d="
M66.513855,66.492462 
	C66.522934,66.514961 66.504768,66.469955 66.513855,66.492462 
z"/>
<path fill="#D6B13A" opacity="1.000000" stroke="none" 
	d="
M39.916100,65.765259 
	C40.022015,66.006241 39.524338,66.008293 39.275963,65.996872 
	C39.022217,65.793907 39.016846,65.602364 39.014530,65.121773 
	C39.281784,65.063240 39.545982,65.293762 39.916100,65.765259 
z"/>
<path fill="#FFEE34" opacity="1.000000" stroke="none" 
	d="
M34.972694,64.932922 
	C34.920616,65.076660 34.740959,65.092926 34.291840,65.135185 
	C34.296619,65.042595 34.570869,64.924019 34.972694,64.932922 
z"/>
<path fill="#6A6667" opacity="1.000000" stroke="none" 
	d="
M45.168877,71.311485 
	C45.813984,70.639053 46.507446,70.292313 47.753159,70.153503 
	C49.583168,70.944290 50.850098,71.973915 52.141216,72.005196 
	C54.073025,72.051987 56.021835,71.396774 57.972763,71.363556 
	C57.965744,72.118126 57.949387,72.549286 57.610130,72.989777 
	C56.531467,73.330704 55.775707,73.662308 55.019943,73.993904 
	C53.399780,74.293312 51.779617,74.592728 49.727257,74.863251 
	C47.935783,73.768631 46.576508,72.702911 45.168877,71.311485 
z"/>
<path fill="#817C7C" opacity="1.000000" stroke="none" 
	d="
M55.420731,73.990112 
	C55.775707,73.662308 56.531467,73.330704 57.879517,72.993011 
	C58.650909,72.986679 58.830013,72.986435 59.009113,72.986198 
	C59.009113,72.986198 58.997250,73.477570 59.016411,73.722404 
	C57.964222,73.973595 56.892872,73.979958 55.420731,73.990112 
z"/>
<path fill="#6A6667" opacity="1.000000" stroke="none" 
	d="
M59.109779,74.914688 
	C58.774715,75.377289 58.397282,75.854828 58.019844,76.332359 
	C57.900379,76.226761 57.780914,76.121162 57.661449,76.015564 
	C57.973213,75.682762 58.284977,75.349960 58.847649,74.931229 
	C59.098557,74.845291 59.067410,74.929626 59.109779,74.914688 
z"/>
<path fill="#93723F" opacity="1.000000" stroke="none" 
	d="
M43.977482,68.980194 
	C43.520164,68.989006 43.062843,68.997818 42.263359,69.048813 
	C41.651630,68.911934 41.382072,68.732880 41.137466,68.125412 
	C41.342148,67.430748 41.582100,67.240501 42.081604,67.328293 
	C42.846443,68.013634 43.411961,68.496918 43.977482,68.980194 
z"/>
<path fill="#D6B13A" opacity="1.000000" stroke="none" 
	d="
M41.882282,67.126236 
	C41.582100,67.240501 41.342148,67.430748 41.039036,67.895523 
	C40.915646,68.094055 40.618813,68.044159 40.472458,68.029922 
	C40.218166,67.567482 40.110229,67.119270 39.997383,66.325371 
	C40.450874,65.978226 40.909279,65.976776 41.677341,66.309303 
	C41.987000,66.643280 41.882282,67.126236 41.882282,67.126236 
z"/>
<path fill="#796652" opacity="1.000000" stroke="none" 
	d="
M57.963417,71.040154 
	C56.021835,71.396774 54.073025,72.051987 52.141216,72.005196 
	C50.850098,71.973915 49.583168,70.944290 48.047039,70.130257 
	C47.788666,69.899086 47.960419,69.584526 48.445168,69.373955 
	C50.348675,69.098030 51.767426,69.032677 53.582382,68.998688 
	C55.323265,68.927116 56.667953,68.824181 58.342297,68.781815 
	C59.118156,68.872749 59.564362,68.903114 60.010563,68.933479 
	C60.010563,68.933479 59.977982,68.999474 59.959709,69.251442 
	C59.941441,69.503410 59.937675,69.937950 59.937675,69.937950 
	C59.937675,69.937950 59.872486,70.396339 59.540314,70.666489 
	C58.793236,70.971138 58.378326,71.005646 57.963417,71.040154 
z"/>
<path fill="#D08A0A" opacity="1.000000" stroke="none" 
	d="
M53.186180,68.967323 
	C51.767426,69.032677 50.348675,69.098030 48.511795,69.207603 
	C46.995396,69.175896 45.897121,69.099968 44.388161,69.002121 
	C43.411961,68.496918 42.846443,68.013634 42.081604,67.328293 
	C41.882282,67.126236 41.987000,66.643280 42.011158,66.398232 
	C43.097397,66.060356 44.159477,65.967537 45.855625,65.886429 
	C46.489693,65.898140 46.988976,65.902260 47.303822,65.982559 
	C48.041359,66.151688 48.464054,66.240517 49.160805,66.498367 
	C50.685299,67.434029 51.935738,68.200676 53.186180,68.967323 
z"/>
<path fill="#91806D" opacity="1.000000" stroke="none" 
	d="
M57.972763,71.363556 
	C58.378326,71.005646 58.793236,70.971138 59.515488,70.896652 
	C59.695930,71.429230 59.569031,72.001793 59.225624,72.780273 
	C58.830013,72.986435 58.650909,72.986679 58.202415,72.983688 
	C57.949387,72.549286 57.965744,72.118126 57.972763,71.363556 
z"/>
<path fill="#91806D" opacity="1.000000" stroke="none" 
	d="
M60.210236,69.932144 
	C59.937675,69.937950 59.941441,69.503410 59.966106,69.287689 
	C60.288956,69.151405 60.546539,69.300819 60.894920,69.701683 
	C60.845150,69.897560 60.663975,69.911957 60.210236,69.932144 
z"/>
<path fill="#E3B225" opacity="1.000000" stroke="none" 
	d="
M60.182701,68.716225 
	C59.564362,68.903114 59.118156,68.872749 58.344826,68.638870 
	C58.017696,68.435364 58.022068,68.147919 58.022068,68.147919 
	C59.164444,67.712456 60.306820,67.277000 61.734154,66.974609 
	C62.019112,67.107681 61.985096,67.593948 61.960091,67.836365 
	C61.408340,68.218849 60.881588,68.358910 60.182701,68.716225 
z"/>
<path fill="#FDF3A6" opacity="1.000000" stroke="none" 
	d="
M59.781311,51.956318 
	C58.046944,53.473423 56.333523,54.876064 55.252579,50.773521 
	C54.783600,50.164547 54.571434,50.036186 54.410065,49.639244 
	C55.002453,45.531769 55.500618,41.764576 55.981445,37.623245 
	C56.006161,36.508064 56.048206,35.767017 56.361687,34.897980 
	C57.163536,33.963188 57.693951,33.156387 58.650200,32.287529 
	C61.389683,32.151688 63.703327,32.077908 66.016975,32.004128 
	C66.077164,33.067974 66.137360,34.131821 66.017426,35.879608 
	C64.789856,38.337219 63.742428,40.110897 62.471771,42.161736 
	C61.426132,45.611370 60.603722,48.783844 59.781311,51.956318 
z"/>
<path fill="#FDE023" opacity="1.000000" stroke="none" 
	d="
M66.017227,31.576401 
	C63.703327,32.077908 61.389683,32.151688 58.511696,31.917713 
	C54.965626,31.406504 51.983891,31.203049 48.996426,30.666294 
	C48.986671,29.888550 48.982655,29.444105 49.329384,28.995190 
	C53.873001,29.263813 51.998734,26.412659 52.205017,24.356663 
	C52.591354,24.113901 52.755714,24.033052 53.180382,24.201942 
	C56.296646,24.749369 59.152603,25.047058 62.008556,25.344748 
	C62.051304,24.671837 62.094048,23.998924 62.136795,23.326014 
	C59.184372,21.146723 55.969139,22.487511 52.481003,22.976858 
	C50.949852,22.916683 49.739368,23.068218 48.303192,22.935387 
	C47.222984,22.166182 46.368469,21.681343 45.513954,21.196507 
	C48.434559,20.804811 51.348808,20.139149 54.276920,20.071255 
	C64.257744,19.839827 65.643585,21.231756 66.017227,31.576401 
z"/>
<path fill="#FDEAB3" opacity="1.000000" stroke="none" 
	d="
M45.349525,21.086384 
	C46.368469,21.681343 47.222984,22.166182 48.242699,23.003731 
	C48.272255,23.520149 48.137665,23.684826 47.984657,24.046694 
	C47.965191,24.242914 47.897293,24.631393 47.657753,24.783300 
	C47.314117,25.287405 47.210018,25.639605 46.982643,26.253584 
	C46.555431,26.999697 46.251503,27.484030 45.575039,28.015892 
	C43.480778,28.761616 41.759048,29.459814 40.037323,30.158010 
	C38.623421,30.113480 37.209518,30.068949 35.370354,30.021557 
	C35.898296,23.731131 37.879143,21.559780 43.678352,20.735554 
	C44.403976,20.764282 44.794537,20.870272 45.349525,21.086384 
z"/>
<path fill="#FDD223" opacity="1.000000" stroke="none" 
	d="
M62.694992,41.884575 
	C63.742428,40.110897 64.789856,38.337219 66.035728,36.279720 
	C67.022316,36.056061 67.810455,36.116230 68.839401,36.094238 
	C67.945595,38.915367 66.810997,41.818649 65.157265,44.682518 
	C63.990417,43.723598 63.342705,42.804089 62.694992,41.884575 
z"/>
<path fill="#FDE22E" opacity="1.000000" stroke="none" 
	d="
M40.245941,51.179893 
	C39.712013,49.521629 39.400784,48.122265 39.407951,46.425518 
	C42.133522,46.313488 44.540688,46.498840 47.226196,46.705624 
	C47.446766,47.635487 47.741249,48.876930 47.886230,50.416634 
	C47.540489,51.585163 47.344250,52.455437 47.148014,53.325710 
	C44.921558,52.696735 42.695099,52.067760 40.245941,51.179893 
z"/>
<path fill="#DFBC65" opacity="1.000000" stroke="none" 
	d="
M46.988976,65.902260 
	C46.988976,65.902260 46.489693,65.898140 46.250702,65.828377 
	C46.400517,63.037720 46.789326,60.316830 47.729210,57.279953 
	C48.501736,56.958527 48.723190,56.953079 48.843315,57.255016 
	C48.495995,58.380306 48.250008,59.198215 47.871662,60.299789 
	C47.489193,62.356396 47.239086,64.129326 46.988976,65.902260 
z"/>
<path fill="#AE7524" opacity="1.000000" stroke="none" 
	d="
M48.944649,56.947632 
	C48.723190,56.953079 48.501736,56.958527 47.946308,56.993366 
	C47.561775,56.010452 47.511219,54.998142 47.732765,53.333702 
	C48.307106,52.556622 48.609344,52.431683 49.068581,52.622231 
	C49.421234,53.562851 49.616886,54.187992 49.586006,55.015587 
	C49.232456,55.800812 49.105450,56.383579 48.970718,56.965515 
	C48.962994,56.964684 48.944649,56.947632 48.944649,56.947632 
z"/>
<path fill="#DFBC65" opacity="1.000000" stroke="none" 
	d="
M48.911583,52.306744 
	C48.609344,52.431683 48.307106,52.556622 47.603645,52.967823 
	C47.202431,53.254082 47.183777,53.289692 47.165894,53.307701 
	C47.344250,52.455437 47.540489,51.585163 48.207222,50.443493 
	C48.889107,50.210991 49.100502,50.249886 49.284317,50.474426 
	C49.232704,50.905945 49.221485,51.152390 49.139496,51.624287 
	C49.055908,51.849155 48.911583,52.306744 48.911583,52.306744 
z"/>
<path fill="#E4AA27" opacity="1.000000" stroke="none" 
	d="
M57.763237,68.030228 
	C58.022068,68.147919 58.017696,68.435364 58.015167,68.578308 
	C56.667953,68.824181 55.323265,68.927116 53.582382,68.998688 
	C51.935738,68.200676 50.685299,67.434029 49.396812,66.231400 
	C49.574535,65.134918 49.790302,64.474411 50.238892,63.999668 
	C50.971264,64.769173 51.470818,65.352913 52.227356,65.950134 
	C52.655899,65.961967 52.827454,65.960320 53.257580,65.978699 
	C53.688530,65.985374 53.860909,65.972038 54.344326,66.018806 
	C55.069756,66.161476 55.484154,66.244034 55.898552,66.326591 
	C56.433834,66.855232 56.969120,67.383881 57.763237,68.030228 
z"/>
<path fill="#EACC7F" opacity="1.000000" stroke="none" 
	d="
M55.930977,65.953796 
	C55.484154,66.244034 55.069756,66.161476 54.336464,65.637695 
	C54.356899,63.770630 54.696236,62.344791 55.269699,60.905075 
	C55.503826,60.891197 55.968803,60.829315 55.968803,60.829315 
	C55.967007,62.413208 55.965210,63.997101 55.930977,65.953796 
z"/>
<path fill="#D0B05C" opacity="1.000000" stroke="none" 
	d="
M55.980682,60.448624 
	C55.968803,60.829315 55.503826,60.891197 55.260750,60.627304 
	C54.328568,59.560844 53.639454,58.758278 52.987968,57.627140 
	C53.111610,56.866661 53.197628,56.434750 53.497849,55.868919 
	C54.158890,55.500462 54.605728,55.265919 55.052563,55.031372 
	C55.291885,55.523613 55.531208,56.015858 55.901390,56.748516 
	C56.019024,58.015266 56.005795,59.041595 55.980682,60.448624 
z"/>
<path fill="#FCCA12" opacity="1.000000" stroke="none" 
	d="
M40.026962,30.529259 
	C41.759048,29.459814 43.480778,28.761616 45.868320,28.151516 
	C47.348969,28.492962 48.163803,28.746311 48.978638,28.999660 
	C48.982655,29.444105 48.986671,29.888550 49.004612,31.068794 
	C49.500340,36.995422 53.603199,34.237144 56.090252,35.025970 
	C56.048206,35.767017 56.006161,36.508064 55.622482,37.685905 
	C52.855896,39.085407 50.430943,40.048111 47.641510,40.947815 
	C43.846439,41.256180 40.415852,41.627548 36.985264,41.998920 
	C36.723091,41.513256 36.460918,41.027596 36.070614,40.297943 
	C37.300518,37.002808 38.658562,33.951656 40.026962,30.529259 
z"/>
<path fill="#FDDD32" opacity="1.000000" stroke="none" 
	d="
M62.471767,42.161736 
	C63.342705,42.804089 63.990417,43.723598 64.879738,44.893105 
	C64.572113,47.258240 64.022873,49.373379 63.238525,51.762772 
	C62.199230,52.019722 61.395042,52.002411 60.186085,51.970711 
	C60.603722,48.783844 61.426132,45.611370 62.471767,42.161736 
z"/>
<path fill="#E6B84A" opacity="1.000000" stroke="none" 
	d="
M54.315842,49.979530 
	C54.571434,50.036186 54.783600,50.164547 55.055389,50.519615 
	C55.091660,51.208466 55.024883,51.742313 54.622852,52.673534 
	C53.882484,53.091930 53.477375,53.112957 53.051792,53.091084 
	C53.031322,53.048187 52.990662,52.965870 52.977707,52.732716 
	C52.964752,52.499561 52.934742,52.032600 52.828239,51.751808 
	C52.471012,50.921032 52.220284,50.371048 52.358620,49.865181 
	C53.270405,49.932713 53.793125,49.956120 54.315842,49.979530 
z"/>
<path fill="#C28B35" opacity="1.000000" stroke="none" 
	d="
M53.072262,53.133980 
	C53.477375,53.112957 53.882484,53.091930 54.590786,53.073883 
	C54.950844,53.509666 55.007710,53.942474 55.058571,54.703323 
	C54.605728,55.265919 54.158890,55.500462 53.403164,55.632385 
	C53.048973,55.367062 53.003670,55.204361 52.983269,54.723217 
	C53.029530,53.981174 53.050896,53.557579 53.072262,53.133980 
z"/>
<path fill="#FCD918" opacity="1.000000" stroke="none" 
	d="
M36.999626,42.340652 
	C40.415852,41.627548 43.846439,41.256180 47.799820,41.226830 
	C49.846554,42.394676 51.370495,43.220505 53.570290,44.412582 
	C53.342632,44.934654 52.649467,46.524254 51.654179,48.146538 
	C50.941189,48.588528 50.530319,48.997841 49.982086,49.552528 
	C49.641071,49.871376 49.463463,50.068336 49.311893,50.288776 
	C49.100502,50.249886 48.889107,50.210991 48.356720,50.145233 
	C47.741249,48.876930 47.446766,47.635487 47.226196,46.705624 
	C44.540688,46.498840 42.133522,46.313488 39.351234,46.067963 
	C38.322071,44.899323 37.668030,43.790855 36.999626,42.340652 
z"/>
<path fill="#F2CC6B" opacity="1.000000" stroke="none" 
	d="
M50.006073,63.813904 
	C49.790302,64.474411 49.574535,65.134918 49.122757,66.062386 
	C48.464054,66.240517 48.041359,66.151688 47.303822,65.982559 
	C47.239086,64.129326 47.489193,62.356396 48.107056,60.282921 
	C48.474812,59.982376 48.945919,59.952549 48.971279,60.306576 
	C49.344631,61.515903 49.692623,62.371201 50.035530,63.373558 
	C50.030441,63.520618 50.006073,63.813904 50.006073,63.813904 
z"/>
<path fill="#F9D218" opacity="1.000000" stroke="none" 
	d="
M51.956299,48.113857 
	C52.649467,46.524254 53.342632,44.934654 53.570290,44.412582 
	C51.370495,43.220505 49.846554,42.394676 48.164303,41.289833 
	C50.430943,40.048111 52.855896,39.085407 55.639816,38.060043 
	C55.500618,41.764576 55.002453,45.531769 54.410065,49.639244 
	C53.793125,49.956120 53.270405,49.932713 52.335579,49.691383 
	C51.923470,49.473465 51.894043,49.120064 51.918201,48.869041 
	C51.947006,48.449966 51.951653,48.281914 51.956299,48.113857 
z"/>
<path fill="#F9D218" opacity="1.000000" stroke="none" 
	d="
M56.361687,34.897980 
	C53.603199,34.237144 49.500340,36.995422 49.010345,31.402092 
	C51.983891,31.203049 54.965626,31.406504 58.085861,31.979774 
	C57.693951,33.156387 57.163536,33.963188 56.361687,34.897980 
z"/>
<path fill="#FDF165" opacity="1.000000" stroke="none" 
	d="
M52.801666,23.188568 
	C55.969139,22.487511 59.184372,21.146723 62.136795,23.326014 
	C62.094048,23.998924 62.051304,24.671837 62.008556,25.344748 
	C59.152603,25.047058 56.296646,24.749369 53.138123,24.013058 
	C52.835548,23.574436 52.801666,23.188568 52.801666,23.188568 
z"/>
<path fill="#F9D218" opacity="1.000000" stroke="none" 
	d="
M49.329384,28.995190 
	C48.163803,28.746311 47.348969,28.492962 46.240856,28.103989 
	C46.251503,27.484030 46.555431,26.999697 47.166466,26.060518 
	C47.614807,25.280912 47.756050,24.956152 47.897293,24.631393 
	C47.897293,24.631393 47.965191,24.242914 48.382515,24.113327 
	C49.860909,24.162018 50.921974,24.340296 51.983044,24.518574 
	C51.998734,26.412659 53.873001,29.263813 49.329384,28.995190 
z"/>
<path fill="#F9FBCE" opacity="1.000000" stroke="none" 
	d="
M52.205017,24.356663 
	C50.921974,24.340296 49.860909,24.162018 48.401985,23.917107 
	C48.137665,23.684826 48.272255,23.520149 48.468391,23.288097 
	C49.739368,23.068218 50.949852,22.916683 52.481003,22.976858 
	C52.801666,23.188568 52.835548,23.574436 52.877808,23.763321 
	C52.755714,24.033052 52.591354,24.113901 52.205017,24.356663 
z"/>
<path fill="#FDE023" opacity="1.000000" stroke="none" 
	d="
M47.657753,24.783300 
	C47.756050,24.956152 47.614807,25.280912 47.289742,25.798738 
	C47.210018,25.639605 47.314117,25.287405 47.657753,24.783300 
z"/>
<path fill="#F3DDA0" opacity="1.000000" stroke="none" 
	d="
M48.945919,59.952549 
	C48.945919,59.952549 48.474812,59.982376 48.239418,59.999249 
	C48.250008,59.198215 48.495995,58.380306 48.843315,57.255016 
	C48.944649,56.947632 48.962994,56.964684 49.313644,56.983505 
	C50.472645,57.335052 51.280991,57.667782 51.803741,58.042835 
	C51.059124,58.400444 50.600105,58.715733 50.073029,59.130234 
	C50.004967,59.229450 49.915432,59.452812 49.723194,59.456505 
	C49.289200,59.568733 49.094189,59.732849 48.945919,59.952549 
z"/>
<path fill="#FDDF4E" opacity="1.000000" stroke="none" 
	d="
M52.089336,58.000511 
	C51.280991,57.667782 50.472645,57.335052 49.321373,56.984337 
	C49.105450,56.383579 49.232456,55.800812 49.979782,55.058609 
	C51.386189,54.946667 52.172279,54.994167 52.958370,55.041664 
	C53.003670,55.204361 53.048973,55.367062 53.188957,55.766304 
	C53.197628,56.434750 53.111610,56.866661 52.772873,57.636471 
	C52.520149,57.974369 52.089336,58.000511 52.089336,58.000511 
z"/>
<path fill="#DCAC46" opacity="1.000000" stroke="none" 
	d="
M52.983269,54.723217 
	C52.172279,54.994167 51.386189,54.946667 50.206322,54.856148 
	C49.616886,54.187992 49.421234,53.562851 49.068581,52.622231 
	C48.911583,52.306744 49.055908,51.849155 49.392860,51.822701 
	C50.142132,51.895618 50.554443,51.994995 51.173820,52.289047 
	C51.917473,52.644436 52.454067,52.805157 52.990662,52.965874 
	C52.990662,52.965870 53.031322,53.048187 53.051792,53.091087 
	C53.050896,53.557579 53.029530,53.981174 52.983269,54.723217 
z"/>
<path fill="#FAD866" opacity="1.000000" stroke="none" 
	d="
M50.966759,52.094372 
	C50.554443,51.994995 50.142132,51.895618 49.476452,51.597832 
	C49.221485,51.152390 49.232704,50.905945 49.284317,50.474426 
	C49.463463,50.068336 49.641071,49.871376 50.276550,49.480995 
	C51.103600,49.216076 51.498821,49.168068 51.894043,49.120064 
	C51.894043,49.120064 51.923470,49.473465 51.946510,49.647263 
	C52.220284,50.371048 52.471012,50.921032 52.500778,51.746876 
	C51.842129,52.046612 51.404442,52.070492 50.966759,52.094372 
z"/>
<path fill="#F0CC6E" opacity="1.000000" stroke="none" 
	d="
M51.803741,58.042835 
	C52.089336,58.000511 52.520149,57.974369 52.735245,57.965038 
	C53.639454,58.758278 54.328568,59.560844 55.026623,60.641182 
	C54.696236,62.344791 54.356899,63.770630 54.025429,65.577583 
	C53.860909,65.972038 53.688530,65.985374 53.254951,65.587700 
	C52.677429,63.492947 52.361103,61.809216 51.861656,59.905418 
	C51.166046,59.467243 50.653564,59.249130 50.141087,59.031021 
	C50.600105,58.715733 51.059124,58.400444 51.803741,58.042835 
z"/>
<path fill="#F9D56B" opacity="1.000000" stroke="none" 
	d="
M50.073029,59.130234 
	C50.653564,59.249130 51.166046,59.467243 51.847439,60.316833 
	C52.001022,62.611095 51.985699,64.273872 51.970375,65.936653 
	C51.470818,65.352913 50.971264,64.769173 50.238892,63.999668 
	C50.006073,63.813904 50.030441,63.520618 50.039413,62.984417 
	C50.004070,61.449749 49.959751,60.451279 49.915436,59.452812 
	C49.915432,59.452812 50.004967,59.229450 50.073029,59.130234 
z"/>
<path fill="#DCB353" opacity="1.000000" stroke="none" 
	d="
M52.227360,65.950134 
	C51.985699,64.273872 52.001022,62.611095 52.030563,60.536896 
	C52.361103,61.809216 52.677429,63.492947 52.996384,65.567680 
	C52.827454,65.960320 52.655899,65.961967 52.227360,65.950134 
z"/>
<path fill="#DFB863" opacity="1.000000" stroke="none" 
	d="
M51.173820,52.289047 
	C51.404442,52.070492 51.842129,52.046612 52.607277,52.027664 
	C52.934742,52.032600 52.964752,52.499561 52.977707,52.732719 
	C52.454067,52.805157 51.917473,52.644436 51.173820,52.289047 
z"/>
<path fill="#E6B84A" opacity="1.000000" stroke="none" 
	d="
M51.918201,48.869041 
	C51.498821,49.168068 51.103600,49.216076 50.413910,49.335617 
	C50.530319,48.997841 50.941189,48.588528 51.654179,48.146538 
	C51.951653,48.281914 51.947006,48.449966 51.918201,48.869041 
z"/>
<path fill="#CDA34A" opacity="1.000000" stroke="none" 
	d="
M49.723198,59.456505 
	C49.959751,60.451279 50.004070,61.449749 50.044502,62.837357 
	C49.692623,62.371201 49.344631,61.515903 48.971279,60.306576 
	C49.094189,59.732849 49.289200,59.568733 49.723198,59.456505 
z"/>
</svg>