<svg version="1.1" id="Layer_1" xmlns="http://www.w3.org/2000/svg" xmlns:xlink="http://www.w3.org/1999/xlink" x="0px" y="0px"
	 width="100%" viewBox="0 0 100 100" enable-background="new 0 0 100 100" xml:space="preserve">
<path fill="#000000" opacity="1.000000" stroke="none" 
	d="
M100.750000,100.750000 
	C67.333336,101.000000 34.166668,101.000000 1.000000,101.000000 
	C1.000000,67.666664 1.000000,34.333332 1.000000,1.000000 
	C34.333332,1.000000 67.666664,1.000000 101.000000,1.000000 
	C101.000000,34.166668 101.000000,67.333336 100.750000,100.750000 
M82.294342,75.160645 
	C82.085068,74.909798 81.829277,74.722565 81.314896,74.021553 
	C80.570305,73.062271 79.825714,72.102982 79.776169,70.980255 
	C79.774910,70.068100 80.162643,68.781174 79.706276,68.307503 
	C77.520630,66.039001 75.106422,63.990730 72.978615,62.051216 
	C74.466995,60.884705 75.665924,59.945049 76.799759,58.266777 
	C73.997963,56.812893 71.219551,55.310863 68.381378,53.931858 
	C67.418816,53.464169 65.975426,52.725971 65.313797,53.101532 
	C60.677563,55.733189 54.965229,57.103683 52.318203,63.148991 
	C51.251289,62.753555 50.184372,62.358116 48.997101,61.224945 
	C43.952274,50.814323 39.050877,49.207005 29.220459,55.301739 
	C29.288855,56.834423 29.357252,58.367107 29.405966,59.458687 
	C28.183468,60.766579 27.103580,61.921902 26.023695,63.077225 
	C26.833500,63.575970 27.643307,64.074715 28.193689,64.413689 
	C26.459145,66.259201 24.683012,68.148964 22.937023,70.006653 
	C23.650240,71.106384 24.256958,72.041893 24.222544,73.259247 
	C22.756058,74.474770 21.289572,75.690292 19.068449,76.998360 
	C18.296898,77.964561 17.525347,78.930763 16.753798,79.896965 
	C16.977152,80.315544 17.200508,80.734116 17.423864,81.152695 
	C25.904783,80.743317 34.382328,80.194908 42.868183,79.988838 
	C46.577614,79.898750 50.829639,81.803642 53.920296,80.548882 
	C61.919239,77.301445 69.368240,80.513756 77.760727,81.006607 
	C78.485291,80.964066 79.209862,80.921516 80.617836,80.953995 
	C81.074646,80.926796 81.531464,80.899605 82.740097,80.962357 
	C83.769867,80.794273 84.799629,80.626190 86.607742,80.331062 
	C85.203079,78.645798 84.306892,77.570587 83.198570,76.121620 
	C83.012924,75.890442 82.784668,75.714516 82.294342,75.160645 
z"/>
<path fill="#CDAC91" opacity="1.000000" stroke="none" 
	d="
M19.823088,76.905815 
	C21.289572,75.690292 22.756058,74.474770 24.889658,73.028297 
	C29.376493,69.544312 33.196217,66.291267 37.155853,63.308109 
	C37.879063,64.141869 38.462353,64.705750 39.068935,65.292137 
	C38.042599,66.011024 37.022324,66.725662 36.002048,67.440308 
	C36.156521,68.021378 36.310997,68.602440 36.465473,69.183510 
	C38.657310,68.793076 40.849148,68.402649 43.183830,68.285988 
	C43.890926,68.712967 44.455173,68.866173 45.014328,69.003883 
	C45.009232,68.988388 44.976768,68.991554 44.892166,69.322906 
	C44.897171,70.099777 44.986774,70.545280 44.754623,71.041634 
	C44.221867,71.143845 44.010868,71.195206 43.453033,71.212616 
	C42.405033,71.204918 41.703861,71.231194 40.582741,71.185127 
	C38.459572,71.117928 36.756351,71.123062 34.705437,71.091621 
	C33.741776,71.412117 33.125801,71.769180 32.509827,72.126244 
	C33.371456,72.332596 34.233089,72.538948 35.415081,72.786827 
	C36.163910,72.873703 36.592377,72.919044 37.115204,73.353500 
	C42.137516,74.506416 47.065468,75.270226 52.004730,76.311348 
	C52.030319,76.773132 52.044601,76.957611 51.770752,77.411400 
	C46.756542,77.501495 42.015095,77.003098 37.308540,77.229645 
	C32.241867,77.473518 27.215765,78.490067 22.150711,78.917938 
	C21.436590,78.978264 20.601946,77.611839 19.823088,76.905815 
z"/>
<path fill="#542E34" opacity="1.000000" stroke="none" 
	d="
M19.445768,76.952087 
	C20.601946,77.611839 21.436590,78.978264 22.150711,78.917938 
	C27.215765,78.490067 32.241867,77.473518 37.308540,77.229645 
	C42.015095,77.003098 46.756542,77.501495 52.164680,77.414932 
	C62.320271,76.468239 71.763954,76.218452 81.102730,79.327133 
	C81.472343,79.995438 81.730309,80.433922 81.988274,80.872406 
	C81.531464,80.899605 81.074646,80.926796 80.087112,80.697983 
	C78.716919,80.602837 77.877464,80.763702 77.038002,80.924576 
	C69.368240,80.513756 61.919239,77.301445 53.920296,80.548882 
	C50.829639,81.803642 46.577614,79.898750 42.868183,79.988838 
	C34.382328,80.194908 25.904783,80.743317 17.423864,81.152695 
	C17.200508,80.734116 16.977152,80.315544 16.753798,79.896965 
	C17.525347,78.930763 18.296898,77.964561 19.445768,76.952087 
z"/>
<path fill="#FBF2DD" opacity="1.000000" stroke="none" 
	d="
M52.885429,62.964737 
	C54.965229,57.103683 60.677563,55.733189 65.313797,53.101532 
	C65.975426,52.725971 67.418816,53.464169 68.381378,53.931858 
	C71.219551,55.310863 73.997963,56.812893 76.464890,58.645157 
	C73.758049,59.978672 71.386070,60.933804 68.658585,61.936111 
	C67.526222,62.391602 66.749359,62.799908 65.665741,63.245384 
	C64.948410,63.315247 64.537834,63.347939 63.878304,63.326340 
	C63.452900,63.536385 63.276455,63.800724 62.821365,64.257889 
	C60.733624,65.320778 58.924534,66.190834 56.815659,66.909531 
	C55.305725,65.493683 54.095577,64.229210 52.885429,62.964737 
z"/>
<path fill="#F8ECD8" opacity="1.000000" stroke="none" 
	d="
M29.883329,54.956944 
	C39.050877,49.207005 43.952274,50.814323 48.709877,61.655293 
	C47.606010,63.424603 46.789368,64.763565 45.689201,66.044495 
	C44.929276,65.687866 44.452873,65.389282 43.830734,64.835403 
	C43.149960,64.382607 42.614925,64.185112 41.907440,63.796867 
	C40.828613,63.383530 39.922241,63.160942 38.982166,62.668159 
	C35.926754,59.917625 32.905041,57.437286 29.883329,54.956944 
z"/>
<path fill="#EAD9C0" opacity="1.000000" stroke="none" 
	d="
M69.014091,61.888935 
	C71.386070,60.933804 73.758049,59.978672 76.497444,59.014465 
	C75.665924,59.945049 74.466995,60.884705 72.978615,62.051216 
	C75.106422,63.990730 77.520630,66.039001 79.706276,68.307503 
	C80.162643,68.781174 79.774910,70.068100 79.081604,71.011818 
	C78.636696,72.339790 78.886360,73.636192 78.749168,75.002197 
	C76.812096,74.214821 75.282578,73.317200 73.704948,72.514069 
	C72.497528,71.899399 71.229309,71.404152 69.569359,70.838989 
	C67.481522,70.725990 65.812469,70.629776 64.168091,70.257812 
	C64.730927,69.585770 65.269089,69.189484 66.180885,68.856628 
	C68.711052,68.716179 70.650230,68.508934 69.088776,65.421173 
	C68.609558,64.473511 69.014198,63.078884 69.014091,61.888935 
z"/>
<path fill="#F5E8D2" opacity="1.000000" stroke="none" 
	d="
M29.551895,55.129341 
	C32.905041,57.437286 35.926754,59.917625 38.647739,62.664230 
	C37.903320,62.966408 37.459625,63.002316 37.015938,63.038227 
	C33.196217,66.291267 29.376493,69.544312 25.210224,72.887375 
	C24.256958,72.041893 23.650240,71.106384 22.937023,70.006653 
	C24.683012,68.148964 26.459145,66.259201 28.193689,64.413689 
	C27.643307,64.074715 26.833500,63.575970 26.023693,63.077225 
	C27.103580,61.921902 28.183468,60.766579 29.405966,59.458687 
	C29.357252,58.367107 29.288855,56.834423 29.551895,55.129341 
z"/>
<path fill="#F2E4CD" opacity="1.000000" stroke="none" 
	d="
M45.972729,66.102531 
	C46.789368,64.763565 47.606010,63.424603 48.770058,62.024162 
	C50.184372,62.358116 51.251289,62.753555 52.601814,63.056862 
	C54.095577,64.229210 55.305725,65.493683 56.679703,67.188789 
	C56.183868,68.659210 55.524200,69.698997 54.639256,70.842361 
	C54.135963,71.128258 53.840496,71.275589 53.219959,71.248108 
	C52.699024,71.044960 52.485718,70.981636 52.229797,70.539589 
	C51.982513,68.926781 51.777840,67.692703 51.573166,66.458626 
	C51.260014,66.472313 50.946857,66.486000 50.633701,66.499680 
	C50.415775,67.328964 50.197853,68.158241 49.595776,68.984741 
	C48.187019,68.963921 47.162411,68.945877 46.119072,68.974426 
	C46.100334,69.021004 46.001888,69.001190 46.077274,68.638428 
	C46.092686,67.551285 46.032707,66.826904 45.972729,66.102531 
z"/>
<path fill="#5D363D" opacity="1.000000" stroke="none" 
	d="
M82.364182,80.917381 
	C81.730309,80.433922 81.472343,79.995438 81.419998,79.261017 
	C82.019119,78.364304 82.412628,77.763519 82.967163,77.004852 
	C83.128189,76.846970 83.410713,76.495384 83.410713,76.495384 
	C84.306892,77.570587 85.203079,78.645798 86.607742,80.331062 
	C84.799629,80.626190 83.769867,80.794273 82.364182,80.917381 
z"/>
<path fill="#5D363D" opacity="1.000000" stroke="none" 
	d="
M79.136024,74.932602 
	C78.886360,73.636192 78.636696,72.339790 78.734070,71.093536 
	C79.825714,72.102982 80.570305,73.062271 81.266800,74.415497 
	C81.218712,74.809441 80.945869,75.064171 80.698433,75.058128 
	C80.450996,75.052086 79.955582,75.067986 79.738564,74.935196 
	C79.356361,74.840897 79.191170,74.879395 79.049408,74.952164 
	C79.072830,74.986443 79.136024,74.932602 79.136024,74.932602 
z"/>
<path fill="#5D363D" opacity="1.000000" stroke="none" 
	d="
M77.399368,80.965591 
	C77.877464,80.763702 78.716919,80.602837 79.745407,80.660469 
	C79.209862,80.921516 78.485291,80.964066 77.399368,80.965591 
z"/>
<path fill="#5D363D" opacity="1.000000" stroke="none" 
	d="
M81.372833,74.704193 
	C81.829277,74.722565 82.085068,74.909798 82.238785,75.498871 
	C82.183235,75.837090 81.882446,76.116341 81.652145,76.016762 
	C81.263184,75.632843 81.104530,75.348511 80.945869,75.064171 
	C80.945869,75.064171 81.218712,74.809441 81.372833,74.704193 
z"/>
<path fill="#5D363D" opacity="1.000000" stroke="none" 
	d="
M82.348526,75.715469 
	C82.784668,75.714516 83.012924,75.890442 83.304642,76.308502 
	C83.410713,76.495384 83.128189,76.846970 82.747009,76.899147 
	C82.106102,76.730087 81.944977,76.451759 81.882446,76.116341 
	C81.882446,76.116341 82.183235,75.837090 82.348526,75.715469 
z"/>
<path fill="#C6A68D" opacity="1.000000" stroke="none" 
	d="
M81.652145,76.016762 
	C81.944977,76.451759 82.106102,76.730087 82.585976,77.057030 
	C82.412628,77.763519 82.019119,78.364304 81.308350,79.031204 
	C71.763954,76.218452 62.320271,76.468239 52.452808,77.145630 
	C52.044601,76.957611 52.030319,76.773132 52.247581,76.128784 
	C53.007740,75.068939 53.536366,74.468956 54.463768,73.908142 
	C57.237885,73.589493 59.613216,73.231682 62.325081,72.895905 
	C63.111015,72.908958 63.560417,72.899979 64.392761,72.926361 
	C66.599442,73.129799 68.423180,73.297890 70.327087,73.473358 
	C70.193184,72.439278 70.090660,71.647530 69.988136,70.855782 
	C71.229309,71.404152 72.497528,71.899399 73.704948,72.514069 
	C75.282578,73.317200 76.812096,74.214821 78.749168,75.002197 
	C79.136024,74.932602 79.072830,74.986443 79.095909,75.136490 
	C79.397850,75.213692 79.676720,75.140839 79.955582,75.067986 
	C79.955582,75.067986 80.450996,75.052086 80.698433,75.058128 
	C81.104530,75.348511 81.263184,75.632843 81.652145,76.016762 
z"/>
<path fill="#B99477" opacity="1.000000" stroke="none" 
	d="
M54.064987,73.868973 
	C53.536366,74.468956 53.007740,75.068939 52.236267,75.851486 
	C47.065468,75.270226 42.137516,74.506416 37.513977,73.330559 
	C38.880714,72.851913 39.943039,72.785309 41.349068,72.788475 
	C42.793121,72.858246 43.893471,72.858246 46.208130,72.858246 
	C44.824165,71.932068 44.312012,71.589325 43.799866,71.246582 
	C44.010868,71.195206 44.221867,71.143845 45.151066,71.038223 
	C46.398537,70.960747 46.927814,70.937515 47.617031,70.886482 
	C47.776974,70.858681 48.102493,70.887703 48.155975,71.247910 
	C49.468788,72.074738 50.728127,72.541351 52.284012,73.024963 
	C52.778454,73.034767 52.976345,73.027596 53.363174,73.114914 
	C53.778992,73.385780 53.949951,73.605637 54.064987,73.868973 
z"/>
<path fill="#C9A98B" opacity="1.000000" stroke="none" 
	d="
M45.689205,66.044495 
	C46.032707,66.826904 46.092686,67.551285 45.821175,68.615700 
	C45.318714,68.967682 45.147739,68.979614 44.976768,68.991554 
	C44.976768,68.991554 45.009232,68.988388 44.871883,68.737923 
	C44.170017,68.329048 43.605503,68.170631 43.040985,68.012215 
	C40.849148,68.402649 38.657310,68.793076 36.465473,69.183510 
	C36.310997,68.602440 36.156521,68.021378 36.002048,67.440308 
	C37.022324,66.725662 38.042599,66.011024 39.068935,65.292137 
	C38.462353,64.705750 37.879063,64.141869 37.155853,63.308109 
	C37.459625,63.002316 37.903320,62.966408 38.681438,62.934425 
	C39.922241,63.160942 40.828613,63.383530 42.028946,64.067322 
	C42.874096,64.715927 43.425282,64.903313 43.976471,65.090706 
	C44.452873,65.389282 44.929276,65.687866 45.689205,66.044495 
z"/>
<path fill="#8E5C46" opacity="1.000000" stroke="none" 
	d="
M41.005363,72.718704 
	C39.943039,72.785309 38.880714,72.851913 37.419617,72.941452 
	C36.592377,72.919044 36.163910,72.873703 35.393463,72.519157 
	C35.052032,71.849373 35.052582,71.488785 35.053127,71.128204 
	C36.756351,71.123062 38.459572,71.117928 40.583046,71.429016 
	C41.003757,72.069725 41.004444,72.394218 41.005363,72.718704 
z"/>
<path fill="#8E5B44" opacity="1.000000" stroke="none" 
	d="
M41.349068,72.788475 
	C41.004444,72.394218 41.003757,72.069725 41.002991,71.501358 
	C41.703861,71.231194 42.405033,71.204918 43.453033,71.212616 
	C44.312012,71.589325 44.824165,71.932068 46.208130,72.858246 
	C43.893471,72.858246 42.793121,72.858246 41.349068,72.788475 
z"/>
<path fill="#A0755B" opacity="1.000000" stroke="none" 
	d="
M34.705437,71.091629 
	C35.052582,71.488785 35.052032,71.849373 35.073105,72.477623 
	C34.233089,72.538948 33.371456,72.332596 32.509827,72.126244 
	C33.125801,71.769180 33.741776,71.412117 34.705437,71.091629 
z"/>
<path fill="#95674C" opacity="1.000000" stroke="none" 
	d="
M44.892166,69.322906 
	C45.147739,68.979614 45.318714,68.967682 45.745789,68.978470 
	C46.001888,69.001190 46.100334,69.021004 46.186409,69.270508 
	C46.667355,69.984772 47.062222,70.449532 47.457088,70.914284 
	C46.927814,70.937515 46.398537,70.960747 45.472820,70.987381 
	C44.986774,70.545280 44.897171,70.099777 44.892166,69.322906 
z"/>
<path fill="#95674C" opacity="1.000000" stroke="none" 
	d="
M43.183830,68.285988 
	C43.605503,68.170631 44.170017,68.329048 44.876980,68.753418 
	C44.455173,68.866173 43.890926,68.712967 43.183830,68.285988 
z"/>
<path fill="#AB8467" opacity="1.000000" stroke="none" 
	d="
M64.009819,72.890991 
	C63.560417,72.899979 63.111015,72.908958 62.320694,72.557739 
	C61.000397,71.792923 60.053108,71.215881 59.033730,71.026108 
	C57.673313,70.772858 56.256897,70.820427 54.864532,70.738792 
	C55.524200,69.698997 56.183868,68.659210 56.979488,67.340164 
	C58.924534,66.190834 60.733624,65.320778 63.015766,64.180824 
	C63.742573,63.783451 63.955387,63.606686 64.127266,63.380634 
	C64.537834,63.347939 64.948410,63.315247 65.650421,63.643105 
	C65.896980,65.600174 65.852112,67.196678 65.807236,68.793190 
	C65.269089,69.189484 64.730927,69.585770 64.128403,70.652130 
	C64.045967,71.845131 64.027893,72.368065 64.009819,72.890991 
z"/>
<path fill="#CFB499" opacity="1.000000" stroke="none" 
	d="
M66.180878,68.856628 
	C65.852112,67.196678 65.896980,65.600174 65.957184,63.605942 
	C66.749359,62.799908 67.526222,62.391602 68.658585,61.936111 
	C69.014198,63.078884 68.609558,64.473511 69.088776,65.421173 
	C70.650230,68.508934 68.711052,68.716179 66.180878,68.856628 
z"/>
<path fill="#CFB499" opacity="1.000000" stroke="none" 
	d="
M63.878304,63.326340 
	C63.955387,63.606686 63.742573,63.783451 63.294411,63.987999 
	C63.276455,63.800724 63.452900,63.536385 63.878304,63.326340 
z"/>
<path fill="#F2E4CD" opacity="1.000000" stroke="none" 
	d="
M43.830734,64.835403 
	C43.425282,64.903313 42.874096,64.715927 42.201401,64.258072 
	C42.614925,64.185112 43.149960,64.382607 43.830734,64.835403 
z"/>
<path fill="#AD7F61" opacity="1.000000" stroke="none" 
	d="
M64.392761,72.926353 
	C64.027893,72.368065 64.045967,71.845131 64.103729,70.927887 
	C65.812469,70.629776 67.481522,70.725990 69.569359,70.838989 
	C70.090660,71.647530 70.193184,72.439278 70.327087,73.473358 
	C68.423180,73.297890 66.599442,73.129799 64.392761,72.926353 
z"/>
<path fill="#AD7F61" opacity="1.000000" stroke="none" 
	d="
M54.639259,70.842361 
	C56.256897,70.820427 57.673313,70.772858 59.033730,71.026108 
	C60.053108,71.215881 61.000397,71.792923 61.984165,72.535706 
	C59.613216,73.231682 57.237885,73.589493 54.463768,73.908142 
	C53.949951,73.605637 53.778992,73.385780 53.322609,72.828598 
	C53.237934,72.094513 53.382759,71.741226 53.527588,71.387939 
	C53.840496,71.275589 54.135963,71.128258 54.639259,70.842361 
z"/>
<path fill="#CDAC91" opacity="1.000000" stroke="none" 
	d="
M51.987461,73.007973 
	C50.728127,72.541351 49.468788,72.074738 48.462933,71.220139 
	C49.137585,70.217278 49.558758,69.602402 49.979927,68.987518 
	C50.197853,68.158241 50.415775,67.328964 50.633701,66.499680 
	C50.946857,66.486000 51.260014,66.472313 51.573166,66.458626 
	C51.777840,67.692703 51.982513,68.926781 52.149071,70.883499 
	C52.069790,72.073410 52.028625,72.540695 51.987461,73.007973 
z"/>
<path fill="#E9D5B8" opacity="1.000000" stroke="none" 
	d="
M49.595779,68.984741 
	C49.558758,69.602402 49.137585,70.217278 48.409454,70.859924 
	C48.102493,70.887703 47.776974,70.858681 47.617031,70.886482 
	C47.062222,70.449532 46.667355,69.984772 46.205147,69.223930 
	C47.162411,68.945877 48.187019,68.963921 49.595779,68.984741 
z"/>
<path fill="#E9D5B8" opacity="1.000000" stroke="none" 
	d="
M52.284012,73.024963 
	C52.028625,72.540695 52.069790,72.073410 52.191689,71.262222 
	C52.485718,70.981636 52.699024,71.044960 53.219963,71.248108 
	C53.382759,71.741226 53.237934,72.094513 53.133675,72.734108 
	C52.976345,73.027596 52.778454,73.034767 52.284012,73.024963 
z"/>
<path fill="#EAD9C0" opacity="1.000000" stroke="none" 
	d="
M79.738564,74.935196 
	C79.676720,75.140839 79.397850,75.213692 79.072487,75.102219 
	C79.191170,74.879395 79.356361,74.840897 79.738564,74.935196 
z"/>
</svg>