<svg version="1.1" id="Layer_1" xmlns="http://www.w3.org/2000/svg" xmlns:xlink="http://www.w3.org/1999/xlink" x="0px" y="0px"
	 width="100%" viewBox="0 0 100 100" enable-background="new 0 0 100 100" xml:space="preserve">
<path fill="#010101" opacity="1.000000" stroke="none" 
	d="
M56.000000,101.000000 
	C37.333336,101.000000 19.166674,101.000000 1.000007,101.000000 
	C1.000005,67.666679 1.000005,34.333351 1.000002,1.000021 
	C34.333317,1.000014 67.666634,1.000014 100.999969,1.000007 
	C100.999977,34.333313 100.999977,67.666626 100.999985,100.999969 
	C86.166664,101.000000 71.333336,101.000000 56.000000,101.000000 
M10.195514,44.243969 
	C15.545801,47.919689 20.886152,51.609985 26.249069,55.267189 
	C32.034775,59.212715 32.307400,60.022099 29.889977,66.790901 
	C27.373528,73.836983 24.747446,80.846931 22.420113,87.954803 
	C21.986744,89.278351 22.740450,90.990578 22.946310,92.523430 
	C24.431067,92.174019 26.145187,92.181168 27.354351,91.403343 
	C30.145084,89.608131 32.699749,87.443626 35.334026,85.408035 
	C40.326439,81.550240 47.284012,78.635048 49.748089,73.547363 
	C52.310650,68.256340 50.127678,60.819904 50.777668,54.398323 
	C51.246765,49.763870 51.050671,45.292694 50.768448,40.684158 
	C50.280746,32.720356 50.622849,24.705692 50.618347,16.712366 
	C50.616337,13.146603 50.618004,9.580836 50.618004,6.015072 
	C48.890526,6.969977 48.258305,8.047009 47.913712,9.209316 
	C45.834148,16.223574 43.607677,23.204821 41.855316,30.302036 
	C40.567703,35.516983 38.044895,37.743717 32.385952,37.227806 
	C24.939976,36.548977 17.414234,36.627216 9.923653,36.651093 
	C8.352955,36.656094 6.786014,37.839607 5.217342,38.480061 
	C6.121525,39.899750 6.968602,41.361153 7.959455,42.717529 
	C8.328933,43.223305 9.034262,43.483738 10.195514,44.243969 
z"/>
<path fill="#F60606" opacity="1.000000" stroke="none" 
	d="
M9.890981,44.050007 
	C9.034262,43.483738 8.328933,43.223305 7.959455,42.717529 
	C6.968602,41.361153 6.121525,39.899750 5.217341,38.480061 
	C6.786014,37.839607 8.352955,36.656094 9.923653,36.651093 
	C17.414234,36.627216 24.939976,36.548977 32.385952,37.227806 
	C38.044895,37.743717 40.567703,35.516983 41.855316,30.302036 
	C43.607677,23.204821 45.834148,16.223574 47.913712,9.209316 
	C48.258305,8.047009 48.890526,6.969977 50.618004,6.015072 
	C50.618004,9.580836 50.616337,13.146603 50.618347,16.712366 
	C50.622849,24.705692 50.280746,32.720356 50.768448,40.684158 
	C51.050671,45.292694 51.246765,49.763870 50.777668,54.398323 
	C50.127678,60.819904 52.310650,68.256340 49.748089,73.547363 
	C47.284012,78.635048 40.326439,81.550240 35.334026,85.408035 
	C32.699749,87.443626 30.145084,89.608131 27.354351,91.403343 
	C26.145187,92.181168 24.431067,92.174019 22.946310,92.523430 
	C22.740450,90.990578 21.986744,89.278351 22.420113,87.954803 
	C24.747446,80.846931 27.373528,73.836983 29.889977,66.790901 
	C32.307400,60.022099 32.034775,59.212715 26.249069,55.267189 
	C20.886152,51.609985 15.545801,47.919689 9.890981,44.050007 
z"/>
</svg>