<svg version="1.1" id="Layer_1" xmlns="http://www.w3.org/2000/svg" xmlns:xlink="http://www.w3.org/1999/xlink" x="0px" y="0px"
	 width="100%" viewBox="0 0 100 100" enable-background="new 0 0 100 100" xml:space="preserve">
<path fill="#000000" opacity="1.000000" stroke="none" 
	d="
M60.000000,101.000000 
	C40.000004,101.000000 20.500008,101.000000 1.000008,101.000000 
	C1.000005,67.666679 1.000005,34.333351 1.000003,1.000021 
	C34.333317,1.000014 67.666634,1.000014 100.999969,1.000007 
	C100.999977,34.333313 100.999977,67.666626 100.999985,100.999969 
	C87.500000,101.000000 74.000000,101.000000 60.000000,101.000000 
M62.143108,24.736353 
	C61.802265,24.468040 61.461426,24.199730 61.040646,23.171457 
	C60.697849,22.110096 60.635815,20.806053 59.964130,20.028971 
	C56.896194,16.479639 57.568970,9.087999 49.252541,10.032027 
	C47.903858,11.155179 46.039646,12.011857 45.297138,13.448336 
	C42.331951,19.184887 39.905987,25.204538 36.840847,30.882084 
	C36.040298,32.364937 33.767998,33.350353 31.967487,33.928936 
	C29.019855,34.876141 25.904938,35.302750 22.000126,35.982979 
	C19.431665,36.314056 16.871883,36.764141 14.292992,36.952175 
	C8.376069,37.383602 6.661868,40.335899 9.073874,46.551941 
	C9.368071,46.745598 9.662266,46.939251 10.125574,47.668880 
	C10.696099,48.132519 11.266625,48.596153 12.012593,49.593971 
	C12.323524,49.784584 12.634455,49.975197 13.076964,50.612576 
	C13.260507,50.897472 13.521617,51.046062 14.079995,51.639519 
	C14.994504,52.449261 15.909013,53.259003 17.127316,54.713604 
	C17.972275,55.457920 18.947016,56.098850 19.637800,56.965988 
	C21.690264,59.542431 24.051672,62.006088 25.448771,64.918488 
	C26.218178,66.522400 25.293171,68.939125 24.969896,71.794899 
	C24.077721,75.628952 22.822922,79.426651 22.433561,83.311104 
	C22.210966,85.531815 23.397169,87.893738 24.221909,90.844994 
	C28.216671,94.846008 31.558908,91.603653 35.567047,89.903107 
	C35.763321,89.616196 35.959595,89.329292 36.082073,89.035149 
	C36.082073,89.035149 36.107727,89.104721 36.830727,88.981651 
	C41.207096,86.508492 45.545883,83.963440 49.998497,81.636147 
	C50.703381,81.267715 51.921673,81.881538 53.050056,82.573105 
	C53.366447,82.660767 53.682835,82.748428 54.693089,83.135857 
	C55.768173,83.699539 56.843258,84.263222 58.505035,85.064636 
	C60.996052,86.327637 63.487064,87.590637 66.630341,89.173050 
	C70.255760,91.118729 73.464485,95.628654 78.606270,90.935936 
	C78.901093,90.756332 79.047287,90.493927 79.618713,89.857262 
	C79.707924,89.249573 79.797142,88.641884 80.009521,87.167976 
	C79.621216,83.766701 79.232910,80.365433 78.890320,76.442940 
	C78.610840,76.245728 78.331352,76.048515 78.049858,75.942184 
	C78.049858,75.942184 78.138924,75.924011 78.038483,75.090790 
	C77.642570,72.054352 77.246658,69.017906 76.973076,65.208298 
	C78.364662,62.821232 79.756248,60.434170 81.766449,57.799534 
	C85.085007,54.782570 88.525673,51.886848 91.681610,48.708420 
	C94.002907,46.370590 94.857224,43.673985 93.164032,40.274609 
	C91.778358,37.492634 90.199745,37.720745 87.982002,38.091045 
	C86.339569,37.691059 84.697144,37.291073 82.663742,36.191341 
	C80.788292,36.100147 78.912849,36.008953 76.650070,35.225483 
	C73.111305,34.455692 69.572533,33.685902 65.959404,32.453175 
	C65.959404,32.453175 65.839577,31.999876 65.968834,31.449541 
	C65.660141,31.260519 65.351440,31.071495 64.972504,30.437113 
	C64.972504,30.437113 64.825165,30.010996 64.997055,29.357046 
	C64.291512,28.108757 63.585972,26.860466 62.736320,25.256065 
	C62.736320,25.256065 62.376289,25.122055 62.143108,24.736353 
z"/>
<path fill="#F6F5F5" opacity="1.000000" stroke="none" 
	d="
M64.825165,30.010996 
	C64.825165,30.010996 64.972504,30.437113 65.073975,30.887028 
	C65.337555,31.617294 65.558929,31.838272 65.839577,31.999876 
	C65.839577,31.999876 65.959404,32.453175 65.972717,32.954941 
	C65.976204,33.637341 65.966377,33.817974 65.578033,33.999207 
	C64.438744,34.011345 63.677975,34.022888 62.649994,33.878151 
	C61.418182,32.981411 60.453587,32.240952 59.488991,31.500492 
	C59.038948,31.809189 58.588905,32.117886 58.138863,32.426582 
	C59.151970,34.194584 60.134171,35.981224 61.186256,37.725719 
	C62.414032,39.761524 63.702843,41.760513 64.539276,43.880180 
	C61.787189,44.061863 59.461010,44.138840 56.849705,44.148743 
	C56.369968,44.067158 56.175350,44.052643 55.816422,43.750893 
	C53.415092,41.688065 51.178074,39.912460 48.964287,37.784111 
	C48.993809,36.960114 49.000099,36.488869 49.307648,35.866455 
	C51.073982,33.480343 52.539055,31.245394 54.357250,28.917997 
	C56.438984,28.268295 59.447189,31.567917 59.907051,26.830807 
	C59.950459,26.365780 59.968464,26.179829 60.413864,25.934927 
	C61.352932,25.624670 61.864613,25.373362 62.376289,25.122055 
	C62.376289,25.122055 62.736320,25.256065 62.608059,25.740971 
	C63.261585,27.487581 64.043373,28.749289 64.825165,30.010996 
z"/>
<path fill="#EFEDED" opacity="1.000000" stroke="none" 
	d="
M22.860580,35.948940 
	C25.904938,35.302750 29.019855,34.876141 31.967487,33.928936 
	C33.767998,33.350353 36.040298,32.364937 36.840847,30.882084 
	C39.905987,25.204538 42.331951,19.184887 45.297138,13.448336 
	C46.039646,12.011857 47.903858,11.155179 49.586250,10.438713 
	C49.600304,12.206906 49.280651,13.568413 48.869255,15.271574 
	C46.846844,20.071634 44.916168,24.530041 42.693146,29.121616 
	C41.925575,30.164776 41.450356,31.074768 40.724670,32.197479 
	C39.660549,33.962753 38.846889,35.515312 37.627846,37.112831 
	C32.821320,37.722988 28.420176,38.288185 24.014349,38.517670 
	C23.626637,37.437614 23.243608,36.693279 22.860580,35.948940 
z"/>
<path fill="#D1D1D1" opacity="1.000000" stroke="none" 
	d="
M64.965172,43.775478 
	C63.702843,41.760513 62.414032,39.761524 61.186256,37.725719 
	C60.134171,35.981224 59.151970,34.194584 58.138863,32.426582 
	C58.588905,32.117886 59.038948,31.809189 59.488991,31.500492 
	C60.453587,32.240952 61.418182,32.981411 62.709145,34.230022 
	C64.355507,35.504768 65.675499,36.271366 67.284149,37.309784 
	C70.856300,37.758675 74.425049,39.558380 77.037399,35.917755 
	C78.912849,36.008953 80.788292,36.100147 82.716751,36.865463 
	C82.839546,39.559418 82.909325,41.579247 82.575462,43.688919 
	C80.796417,43.761940 79.421005,43.745117 77.951065,43.383759 
	C75.886696,43.264889 73.916878,43.490555 71.514175,43.774117 
	C69.042595,43.813171 67.003883,43.794327 64.965172,43.775478 
z"/>
<path fill="#AEAFB6" opacity="1.000000" stroke="none" 
	d="
M88.057098,38.879845 
	C90.199745,37.720745 91.778358,37.492634 93.164032,40.274609 
	C94.857224,43.673985 94.002907,46.370590 91.681610,48.708420 
	C88.525673,51.886848 85.085007,54.782570 81.151962,57.772003 
	C80.017433,56.800064 79.497398,55.855656 79.094460,54.600395 
	C82.799362,50.864674 86.387177,47.439796 89.957314,43.653191 
	C89.312126,41.820927 88.684616,40.350384 88.057098,38.879845 
z"/>
<path fill="#E7E8EC" opacity="1.000000" stroke="none" 
	d="
M52.902592,82.041214 
	C51.921673,81.881538 50.703381,81.267715 49.998497,81.636147 
	C45.545883,83.963440 41.207096,86.508492 36.428535,88.634178 
	C36.019398,87.191193 36.012459,86.095680 36.002838,85.000237 
	C36.000156,85.000305 36.001568,85.006325 36.215134,84.941193 
	C36.700344,84.728539 36.901756,84.514839 37.365143,84.085052 
	C41.797821,81.595657 45.898300,79.256142 50.345810,77.053650 
	C53.448750,78.534195 56.204651,79.877701 58.900383,81.593559 
	C58.532925,82.919579 58.225632,83.873238 57.918339,84.826904 
	C56.843258,84.263222 55.768173,83.699539 54.208855,82.795258 
	C53.507389,82.203964 53.233379,82.066147 52.902592,82.041214 
z"/>
<path fill="#E0DCDC" opacity="1.000000" stroke="none" 
	d="
M22.430353,35.965958 
	C23.243608,36.693279 23.626637,37.437614 23.626045,38.662750 
	C20.972233,39.461555 18.663960,39.620823 16.445168,40.153095 
	C14.952698,40.511127 13.586779,41.396687 12.164244,42.046242 
	C12.863296,43.398388 13.417623,44.855385 14.300651,46.074245 
	C15.251742,47.387062 16.510820,48.476753 17.243235,49.760757 
	C15.854057,50.257935 14.857176,50.658138 13.860294,51.058342 
	C13.521617,51.046062 13.260507,50.897472 12.902164,50.137894 
	C12.430627,49.462074 12.133888,49.260933 11.837151,49.059792 
	C11.266625,48.596153 10.696099,48.132519 9.966633,47.175011 
	C9.662951,46.384941 9.443458,46.162487 9.149211,46.013786 
	C6.661868,40.335899 8.376069,37.383602 14.292992,36.952175 
	C16.871883,36.764141 19.431665,36.314056 22.430353,35.965958 
z"/>
<path fill="#EFECEC" opacity="1.000000" stroke="none" 
	d="
M25.132080,70.989410 
	C25.293171,68.939125 26.218178,66.522400 25.448771,64.918488 
	C24.051672,62.006088 21.690264,59.542431 19.637800,56.965988 
	C18.947016,56.098850 17.972275,55.457920 17.294657,54.253277 
	C18.570974,53.536015 19.679949,53.279083 20.968132,53.325581 
	C23.679714,55.339806 26.212090,57.050594 28.519535,58.984482 
	C28.790802,59.829967 29.287001,60.452354 29.854250,61.478424 
	C29.400425,64.963181 28.875549,68.044258 27.949350,71.090698 
	C26.742712,71.033844 25.937397,71.011627 25.132080,70.989410 
z"/>
<path fill="#C7C8CA" opacity="1.000000" stroke="none" 
	d="
M48.960995,14.929919 
	C49.280651,13.568413 49.600304,12.206906 49.945236,10.494160 
	C57.568970,9.087999 56.896194,16.479639 59.964130,20.028971 
	C60.635815,20.806053 60.697849,22.110096 60.815109,23.718782 
	C60.388542,24.842031 60.187508,25.417955 59.986473,25.993877 
	C59.968464,26.179829 59.950459,26.365780 59.588303,26.681217 
	C57.621407,23.391994 55.978149,19.982819 54.382591,16.551466 
	C53.169144,13.941871 51.496895,13.035314 48.960995,14.929919 
z"/>
<path fill="#A6A7AB" opacity="1.000000" stroke="none" 
	d="
M79.044868,90.148727 
	C79.047287,90.493927 78.901093,90.756332 77.959457,90.975266 
	C75.919304,90.240662 74.525948,89.466721 73.511246,88.672203 
	C74.591827,87.140518 75.829018,85.646378 75.877586,84.114548 
	C75.962906,81.423630 75.320717,78.709641 75.377914,76.005280 
	C76.561378,75.978172 77.350151,75.951096 78.138924,75.924011 
	C78.138924,75.924011 78.049858,75.942184 78.124405,76.122147 
	C78.323906,76.610847 78.539124,76.831528 78.844604,76.964157 
	C79.232910,80.365433 79.621216,83.766701 79.709946,87.787201 
	C79.288536,88.987198 79.166702,89.567963 79.044868,90.148727 
z"/>
<path fill="#E0DCDC" opacity="1.000000" stroke="none" 
	d="
M25.050987,71.392151 
	C25.937397,71.011627 26.742712,71.033844 27.943146,71.509079 
	C27.930038,74.924545 27.521811,77.887009 26.992996,81.172058 
	C26.565048,82.321182 26.257687,83.147713 25.576311,84.072540 
	C24.784555,86.177910 24.366814,88.184998 23.949070,90.192085 
	C23.397169,87.893738 22.210966,85.531815 22.433561,83.311104 
	C22.822922,79.426651 24.077721,75.628952 25.050987,71.392151 
z"/>
<path fill="#C3C3C5" opacity="1.000000" stroke="none" 
	d="
M24.085491,90.518539 
	C24.366814,88.184998 24.784555,86.177910 25.594997,84.471207 
	C26.536329,89.537987 27.303272,89.930252 31.073360,87.578293 
	C32.642754,86.599243 34.357090,85.852524 36.005520,85.000168 
	C36.012459,86.095680 36.019398,87.191193 36.067032,88.695709 
	C36.107727,89.104721 36.082073,89.035149 35.890999,89.123840 
	C35.360283,89.312416 35.139347,89.531807 35.037121,89.870697 
	C31.558908,91.603653 28.216671,94.846008 24.085491,90.518539 
z"/>
<path fill="#D1CFD2" opacity="1.000000" stroke="none" 
	d="
M78.977364,54.911243 
	C79.497398,55.855656 80.017433,56.800064 80.842659,57.895790 
	C79.756248,60.434170 78.364662,62.821232 76.530396,65.602554 
	C75.070160,66.006798 74.052597,66.016777 72.852226,65.780922 
	C72.098724,65.357468 71.528023,65.179840 71.001228,64.660561 
	C71.690079,62.625866 72.335037,60.932827 73.251358,59.108887 
	C73.994919,58.611954 74.467117,58.245914 75.263954,57.880611 
	C76.718178,56.891308 77.847771,55.901276 78.977364,54.911243 
z"/>
<path fill="#C4C4C4" opacity="1.000000" stroke="none" 
	d="
M88.019547,38.485443 
	C88.684616,40.350384 89.312126,41.820927 89.522217,43.598671 
	C87.062904,43.803604 85.021004,43.701340 82.979111,43.599075 
	C82.909325,41.579247 82.839546,39.559418 82.912231,37.215340 
	C84.697144,37.291073 86.339569,37.691059 88.019547,38.485443 
z"/>
<path fill="#B9BABD" opacity="1.000000" stroke="none" 
	d="
M73.132599,88.692780 
	C74.525948,89.466721 75.919304,90.240662 77.731773,91.029869 
	C73.464485,95.628654 70.255760,91.118729 66.316910,88.626633 
	C66.004982,87.048401 66.006477,86.016579 66.349670,85.023125 
	C68.838448,86.271919 70.985519,87.482346 73.132599,88.692780 
z"/>
<path fill="#E9E9E9" opacity="1.000000" stroke="none" 
	d="
M76.843735,35.571617 
	C74.425049,39.558380 70.856300,37.758675 67.259766,36.984726 
	C66.616676,35.591434 66.286613,34.795021 65.956558,33.998604 
	C65.966377,33.817974 65.976204,33.637341 66.009903,33.186409 
	C69.572533,33.685902 73.111305,34.455692 76.843735,35.571617 
z"/>
<path fill="#BCBCBD" opacity="1.000000" stroke="none" 
	d="
M73.035034,66.026749 
	C74.052597,66.016777 75.070160,66.006798 76.469238,65.989143 
	C77.246658,69.017906 77.642570,72.054352 78.088699,75.507401 
	C77.350151,75.951096 76.561378,75.978172 75.251755,75.758316 
	C74.487083,75.013702 74.243263,74.516022 73.998466,73.605774 
	C73.676674,70.804390 73.355858,68.415573 73.035034,66.026749 
z"/>
<path fill="#D2D3D7" opacity="1.000000" stroke="none" 
	d="
M66.007980,84.984764 
	C66.006477,86.016579 66.004982,87.048401 65.990784,88.466927 
	C63.487064,87.590637 60.996052,86.327637 58.211685,84.945770 
	C58.225632,83.873238 58.532925,82.919579 59.137936,81.565796 
	C59.435658,81.165680 59.913647,81.175529 60.111889,81.442505 
	C62.209415,82.801247 64.108696,83.893005 66.007980,84.984764 
z"/>
<path fill="#E4DEDE" opacity="1.000000" stroke="none" 
	d="
M20.788925,53.022148 
	C19.679949,53.279083 18.570974,53.536015 17.142759,53.930847 
	C15.909013,53.259003 14.994504,52.449261 13.970144,51.348930 
	C14.857176,50.658138 15.854057,50.257935 17.497044,49.911602 
	C19.025072,50.984367 19.907000,52.003258 20.788925,53.022148 
z"/>
<path fill="#E9E9E9" opacity="1.000000" stroke="none" 
	d="
M64.911110,29.684021 
	C64.043373,28.749289 63.261585,27.487581 62.680115,25.919025 
	C63.585972,26.860466 64.291512,28.108757 64.911110,29.684021 
z"/>
<path fill="#E9E9E9" opacity="1.000000" stroke="none" 
	d="
M60.413864,25.934927 
	C60.187508,25.417955 60.388542,24.842031 60.855080,24.098763 
	C61.461426,24.199730 61.802265,24.468040 62.259697,24.929203 
	C61.864613,25.373362 61.352932,25.624670 60.413864,25.934927 
z"/>
<path fill="#B9BABD" opacity="1.000000" stroke="none" 
	d="
M79.331787,90.002991 
	C79.166702,89.567963 79.288536,88.987198 79.648361,88.220314 
	C79.797142,88.641884 79.707924,89.249573 79.331787,90.002991 
z"/>
<path fill="#E7E8EC" opacity="1.000000" stroke="none" 
	d="
M35.302086,89.886902 
	C35.139347,89.531807 35.360283,89.312416 35.927898,89.127457 
	C35.959595,89.329292 35.763321,89.616196 35.302086,89.886902 
z"/>
<path fill="#D2D3D7" opacity="1.000000" stroke="none" 
	d="
M52.976326,82.307159 
	C53.233379,82.066147 53.507389,82.203964 53.861923,82.645378 
	C53.682835,82.748428 53.366447,82.660767 52.976326,82.307159 
z"/>
<path fill="#BCBCBD" opacity="1.000000" stroke="none" 
	d="
M78.867462,76.703552 
	C78.539124,76.831528 78.323906,76.610847 78.125412,76.076706 
	C78.331352,76.048515 78.610840,76.245728 78.867462,76.703552 
z"/>
<path fill="#E4DEDE" opacity="1.000000" stroke="none" 
	d="
M11.924871,49.326881 
	C12.133888,49.260933 12.430627,49.462074 12.836376,49.914513 
	C12.634455,49.975197 12.323524,49.784584 11.924871,49.326881 
z"/>
<path fill="#E4DEDE" opacity="1.000000" stroke="none" 
	d="
M9.111543,46.282864 
	C9.443458,46.162487 9.662951,46.384941 9.882077,46.907024 
	C9.662266,46.939251 9.368071,46.745598 9.111543,46.282864 
z"/>
<path fill="#E9E9E9" opacity="1.000000" stroke="none" 
	d="
M65.904205,31.724709 
	C65.558929,31.838272 65.337555,31.617294 65.109100,31.109707 
	C65.351440,31.071495 65.660141,31.260519 65.904205,31.724709 
z"/>
<path fill="#072780" opacity="1.000000" stroke="none" 
	d="
M82.575470,43.688919 
	C85.021004,43.701340 87.062904,43.803604 89.539886,43.960396 
	C86.387177,47.439796 82.799362,50.864674 79.094460,54.600395 
	C77.847771,55.901276 76.718178,56.891308 75.289230,57.509415 
	C75.989807,54.333252 76.989731,51.529022 77.989662,48.724792 
	C77.572174,48.418400 77.154694,48.112007 76.737213,47.805618 
	C72.822121,51.499443 68.907028,55.193272 64.556107,58.969139 
	C62.054726,58.981007 59.989159,58.910831 57.986073,58.501549 
	C58.626480,57.399937 59.154076,56.592342 59.790359,55.882122 
	C64.526543,50.595608 64.361679,49.522453 58.056511,45.464355 
	C57.681190,44.914497 57.408009,44.565159 57.134827,44.215820 
	C59.461010,44.138840 61.787189,44.061863 64.539276,43.880180 
	C67.003883,43.794327 69.042595,43.813171 71.939667,43.884987 
	C74.547211,43.868073 76.296410,43.798183 78.045601,43.728294 
	C79.421005,43.745117 80.796417,43.761940 82.575470,43.688919 
z"/>
<path fill="#18347E" opacity="1.000000" stroke="none" 
	d="
M48.869255,15.271574 
	C51.496895,13.035314 53.169144,13.941871 54.382591,16.551466 
	C55.978149,19.982819 57.621407,23.391994 59.562901,26.960293 
	C59.447189,31.567917 56.438984,28.268295 53.951687,28.802895 
	C51.795677,28.836193 50.398350,28.892149 48.581520,28.841738 
	C46.436508,28.819729 44.711002,28.904089 42.985493,28.988447 
	C44.916168,24.530041 46.846844,20.071634 48.869255,15.271574 
z"/>
<path fill="#DC1F3C" opacity="1.000000" stroke="none" 
	d="
M48.941055,38.136860 
	C51.178074,39.912460 53.415092,41.688065 55.672436,44.043961 
	C53.789619,46.734909 51.886478,48.845562 49.694988,51.091099 
	C48.617153,51.504539 47.827667,51.783092 47.017258,51.646484 
	C46.661362,47.151947 46.326382,43.072578 46.164757,38.752998 
	C46.890678,38.338173 47.443241,38.163555 48.234276,38.012115 
	C48.472748,38.035297 48.941055,38.136860 48.941055,38.136860 
z"/>
<path fill="#C5132A" opacity="1.000000" stroke="none" 
	d="
M49.983330,50.956207 
	C51.886478,48.845562 53.789619,46.734909 55.836746,44.331192 
	C56.175350,44.052643 56.369968,44.067158 56.849705,44.148746 
	C57.408009,44.565159 57.681190,44.914497 57.984207,45.850353 
	C57.006107,49.289837 55.998173,52.142803 54.599464,54.996231 
	C51.296349,55.222565 49.800510,53.967121 49.983330,50.956207 
z"/>
<path fill="#E4E0E1" opacity="1.000000" stroke="none" 
	d="
M48.964287,37.784111 
	C48.941055,38.136860 48.472748,38.035297 48.081833,37.719551 
	C45.452324,35.597458 43.213730,33.791107 40.975136,31.984760 
	C41.450356,31.074768 41.925575,30.164776 42.693146,29.121616 
	C44.711002,28.904089 46.436508,28.819729 48.581173,29.283642 
	C49.002350,31.893816 49.004372,33.955719 49.006393,36.017620 
	C49.000099,36.488869 48.993809,36.960114 48.964287,37.784111 
z"/>
<path fill="#E1E1E1" opacity="1.000000" stroke="none" 
	d="
M49.307652,35.866455 
	C49.004372,33.955719 49.002350,31.893816 49.000675,29.390009 
	C50.398350,28.892149 51.795677,28.836193 53.598568,28.895340 
	C52.539055,31.245394 51.073982,33.480343 49.307652,35.866455 
z"/>
<path fill="#F5F5F5" opacity="1.000000" stroke="none" 
	d="
M65.578033,33.999207 
	C66.286613,34.795021 66.616676,35.591434 66.971115,36.712906 
	C65.675499,36.271366 64.355507,35.504768 62.976364,34.386303 
	C63.677975,34.022888 64.438744,34.011345 65.578033,33.999207 
z"/>
<path fill="#A91B2C" opacity="1.000000" stroke="none" 
	d="
M20.968132,53.325581 
	C19.907000,52.003258 19.025072,50.984367 17.889336,49.814636 
	C16.510820,48.476753 15.251742,47.387062 14.300651,46.074245 
	C13.417623,44.855385 12.863296,43.398388 12.164244,42.046242 
	C13.586779,41.396687 14.952698,40.511127 16.445168,40.153095 
	C18.663960,39.620823 20.972233,39.461555 23.630728,38.998466 
	C28.420176,38.288185 32.821320,37.722988 37.579372,37.418694 
	C37.288212,38.444935 36.640148,39.210270 35.560745,39.980766 
	C31.124346,40.691490 27.011856,41.063107 23.176722,42.296879 
	C21.954119,42.690189 20.351934,46.239590 20.834364,46.860764 
	C23.161335,49.856987 26.140554,52.346649 28.895458,55.460014 
	C28.926830,56.771442 28.951136,57.638870 28.945108,58.557816 
	C28.914776,58.609333 28.744465,58.761387 28.744465,58.761387 
	C26.212090,57.050594 23.679714,55.339806 20.968132,53.325581 
z"/>
<path fill="#C61E33" opacity="1.000000" stroke="none" 
	d="
M35.992085,39.975605 
	C36.640148,39.210270 37.288212,38.444935 37.984756,37.373734 
	C38.846889,35.515312 39.660549,33.962753 40.724670,32.197479 
	C43.213730,33.791107 45.452324,35.597458 47.843361,37.696373 
	C47.443241,38.163555 46.890678,38.338173 45.875603,38.896324 
	C44.292492,39.857834 43.171890,40.435814 41.669067,41.013710 
	C39.585022,40.345772 37.031776,44.020882 35.992085,39.975605 
z"/>
<path fill="#AEAFB6" opacity="1.000000" stroke="none" 
	d="
M77.951065,43.383759 
	C76.296410,43.798183 74.547211,43.868073 72.372536,43.827091 
	C73.916878,43.490555 75.886696,43.264889 77.951065,43.383759 
z"/>
<path fill="#03257E" opacity="1.000000" stroke="none" 
	d="
M36.002838,85.000237 
	C34.357090,85.852524 32.642754,86.599243 31.073360,87.578293 
	C27.303272,89.930252 26.536329,89.537987 25.969011,84.372917 
	C26.257687,83.147713 26.565048,82.321182 27.242620,81.077774 
	C28.075701,80.131577 28.538570,79.602234 29.320902,78.991302 
	C30.822741,77.983749 32.005119,77.057785 33.487297,76.015076 
	C34.881470,75.221512 35.975845,74.544701 37.525612,73.941544 
	C42.327682,74.071198 46.674366,74.127190 50.980560,74.475189 
	C50.626305,75.483665 50.312542,76.200142 49.998775,76.916618 
	C45.898300,79.256142 41.797821,81.595657 37.096455,84.011139 
	C36.330902,84.393517 36.166237,84.699921 36.001568,85.006325 
	C36.001568,85.006325 36.000156,85.000305 36.002838,85.000237 
z"/>
<path fill="#062D8F" opacity="1.000000" stroke="none" 
	d="
M50.345810,77.053650 
	C50.312542,76.200142 50.626305,75.483665 51.437592,74.380524 
	C57.949429,73.951874 63.963741,73.909904 70.310608,73.959457 
	C71.094505,74.125511 71.545853,74.200043 71.990623,74.625595 
	C70.856400,78.600212 69.205101,80.837952 64.899948,78.556061 
	C62.410488,77.236549 60.388893,78.039619 59.913647,81.175529 
	C59.913647,81.175529 59.435658,81.165680 59.198105,81.193443 
	C56.204651,79.877701 53.448750,78.534195 50.345810,77.053650 
z"/>
<path fill="#C3C3C5" opacity="1.000000" stroke="none" 
	d="
M36.215134,84.941193 
	C36.166237,84.699921 36.330902,84.393517 36.764252,84.161026 
	C36.901756,84.514839 36.700344,84.728539 36.215134,84.941193 
z"/>
<path fill="#AF1427" opacity="1.000000" stroke="none" 
	d="
M33.187492,76.131821 
	C32.005119,77.057785 30.822741,77.983749 29.318199,78.567795 
	C29.274784,76.776413 29.761179,75.331512 29.793118,73.876633 
	C29.886749,69.611465 29.799559,65.342331 29.783199,61.074745 
	C29.287001,60.452354 28.790802,59.829967 28.519535,58.984482 
	C28.744465,58.761387 28.914776,58.609333 29.195963,58.319122 
	C30.274595,57.578987 31.072039,57.129059 32.024456,57.055779 
	C34.325840,62.296375 34.951431,67.131805 32.570797,72.193192 
	C32.102386,73.189064 32.947933,74.802956 33.187492,76.131821 
z"/>
<path fill="#9E2635" opacity="1.000000" stroke="none" 
	d="
M29.854248,61.478424 
	C29.799559,65.342331 29.886749,69.611465 29.793118,73.876633 
	C29.761179,75.331512 29.274784,76.776413 28.998737,78.649384 
	C28.538570,79.602234 28.075701,80.131577 27.363209,80.755188 
	C27.521811,77.887009 27.930038,74.924545 28.344467,71.543716 
	C28.875549,68.044258 29.400425,64.963181 29.854248,61.478424 
z"/>
<path fill="#0B2976" opacity="1.000000" stroke="none" 
	d="
M60.111889,81.442505 
	C60.388893,78.039619 62.410488,77.236549 64.899948,78.556061 
	C69.205101,80.837952 70.856400,78.600212 72.317146,74.538063 
	C73.099976,74.072449 73.549706,74.045395 73.999443,74.018341 
	C74.243263,74.516022 74.487083,75.013702 74.857063,75.758347 
	C75.320717,78.709641 75.962906,81.423630 75.877586,84.114548 
	C75.829018,85.646378 74.591827,87.140518 73.511246,88.672203 
	C70.985519,87.482346 68.838448,86.271919 66.349670,85.023125 
	C64.108696,83.893005 62.209415,82.801247 60.111889,81.442505 
z"/>
<path fill="#F3F2F3" opacity="1.000000" stroke="none" 
	d="
M69.978058,73.867935 
	C63.963741,73.909904 57.949429,73.951874 51.478081,74.088516 
	C46.674366,74.127190 42.327682,74.071198 37.673370,73.685631 
	C38.231464,72.567673 39.097191,71.779282 40.242012,70.934235 
	C41.052876,70.354233 41.584641,69.830887 42.430344,69.200180 
	C43.922031,68.115486 45.099777,67.138161 46.576492,66.085670 
	C47.881409,65.317307 48.887356,64.624107 50.265995,63.975647 
	C52.831528,65.208694 55.024372,66.397018 58.002811,68.011055 
	C58.002811,64.648979 58.002811,61.905834 58.013092,59.074783 
	C58.023369,58.986870 57.923592,58.840652 57.923592,58.840652 
	C59.989159,58.910831 62.054726,58.981007 64.993813,59.050457 
	C68.238220,59.113083 70.609108,59.176434 72.979996,59.239784 
	C72.335037,60.932827 71.690079,62.625866 70.686615,64.835938 
	C70.211426,68.191284 70.094742,71.029602 69.978058,73.867935 
z"/>
<path fill="#0131A7" opacity="1.000000" stroke="none" 
	d="
M73.251358,59.108887 
	C70.609108,59.176434 68.238220,59.113083 65.429626,58.968414 
	C68.907028,55.193272 72.822121,51.499443 76.737213,47.805618 
	C77.154694,48.112007 77.572174,48.418400 77.989662,48.724792 
	C76.989731,51.529022 75.989807,54.333252 74.964600,57.508682 
	C74.467117,58.245914 73.994919,58.611954 73.251358,59.108887 
z"/>
<path fill="#DDDEDF" opacity="1.000000" stroke="none" 
	d="
M70.310608,73.959457 
	C70.094742,71.029602 70.211426,68.191284 70.642715,65.177582 
	C71.528023,65.179840 72.098724,65.357468 72.852234,65.780922 
	C73.355858,68.415573 73.676674,70.804390 73.998466,73.605774 
	C73.549706,74.045395 73.099976,74.072449 72.323715,74.187042 
	C71.545853,74.200043 71.094505,74.125511 70.310608,73.959457 
z"/>
<path fill="#AB1328" opacity="1.000000" stroke="none" 
	d="
M54.990234,54.995770 
	C55.998173,52.142803 57.006107,49.289837 58.086349,46.050873 
	C64.361679,49.522453 64.526543,50.595608 59.790359,55.882122 
	C59.154076,56.592342 58.626480,57.399937 57.986073,58.501549 
	C57.923592,58.840652 58.023369,58.986870 57.656662,58.971870 
	C56.560810,59.082088 55.831657,59.207310 55.074177,58.899605 
	C55.027309,57.309708 55.008774,56.152737 54.990234,54.995770 
z"/>
<path fill="#E12040" opacity="1.000000" stroke="none" 
	d="
M42.051292,41.013794 
	C43.171890,40.435814 44.292492,39.857834 45.702248,39.136528 
	C46.326382,43.072578 46.661362,47.151947 47.004307,51.960690 
	C46.993286,53.110416 46.974293,53.530773 46.632797,53.998589 
	C45.205246,55.025723 44.100193,56.005405 42.662590,56.990829 
	C41.886528,57.000065 41.443012,57.003555 41.002930,56.633644 
	C40.667999,54.840279 40.329636,53.420311 40.151619,51.630714 
	C40.538731,48.510395 40.765499,45.759705 41.108391,42.751358 
	C41.500111,42.000393 41.775700,41.507095 42.051292,41.013794 
z"/>
<path fill="#B9162A" opacity="1.000000" stroke="none" 
	d="
M46.955299,53.951130 
	C46.974293,53.530773 46.993286,53.110416 47.025230,52.375854 
	C47.827667,51.783092 48.617153,51.504539 49.694984,51.091095 
	C49.800510,53.967121 51.296349,55.222565 54.599464,54.996231 
	C55.008774,56.152737 55.027309,57.309708 54.905769,59.165478 
	C53.141563,61.219826 51.517437,62.575371 49.893307,63.930916 
	C48.887356,64.624107 47.881409,65.317307 46.272717,65.857033 
	C46.098415,61.786083 46.526855,57.868607 46.955299,53.951130 
z"/>
<path fill="#C2162B" opacity="1.000000" stroke="none" 
	d="
M41.669067,41.013710 
	C41.775700,41.507095 41.500111,42.000393 40.798435,42.887131 
	C36.362320,44.306507 37.633266,47.243290 37.630978,49.915192 
	C36.181717,48.970261 35.096405,47.961201 34.013256,46.592056 
	C33.793842,45.293095 33.572266,44.354214 33.350685,43.415337 
	C33.091026,43.426826 32.831364,43.438316 32.571705,43.449806 
	C32.373207,44.274002 32.174709,45.098202 31.909998,46.298035 
	C30.297970,48.145775 28.752157,49.617878 27.236547,51.061214 
	C27.539085,51.785542 28.213739,53.400776 28.888393,55.016010 
	C26.140554,52.346649 23.161335,49.856987 20.834364,46.860764 
	C20.351934,46.239590 21.954119,42.690189 23.176722,42.296879 
	C27.011856,41.063107 31.124346,40.691490 35.560745,39.980766 
	C37.031776,44.020882 39.585022,40.345772 41.669067,41.013710 
z"/>
<path fill="#EBE2E2" opacity="1.000000" stroke="none" 
	d="
M34.011089,46.952141 
	C35.096405,47.961201 36.181717,48.970261 37.896587,50.055447 
	C38.052212,50.763187 37.578278,51.394810 37.063255,52.024124 
	C37.022167,52.021820 37.025814,52.104050 36.712761,52.218018 
	C36.346821,53.204136 36.293938,54.076294 36.237534,55.294857 
	C36.443783,56.346554 36.653557,57.051838 36.772251,57.450909 
	C34.946644,57.163528 33.408062,56.921329 31.869484,56.679131 
	C31.072039,57.129059 30.274595,57.578987 29.226295,58.267609 
	C28.951136,57.638870 28.926830,56.771442 28.895458,55.460014 
	C28.213739,53.400776 27.539085,51.785542 27.236547,51.061214 
	C28.752157,49.617878 30.297970,48.145775 32.215157,46.305492 
	C33.061382,46.275589 33.536236,46.613865 34.011089,46.952141 
z"/>
<path fill="#C71A30" opacity="1.000000" stroke="none" 
	d="
M32.024460,57.055779 
	C33.408062,56.921329 34.946644,57.163528 36.772251,57.450909 
	C36.653557,57.051838 36.443783,56.346554 36.447205,55.072411 
	C36.782204,53.703716 36.904011,52.903885 37.025814,52.104050 
	C37.025814,52.104050 37.022167,52.021820 37.423889,52.022297 
	C38.547501,52.015297 39.269390,52.007824 39.991276,52.000351 
	C40.329636,53.420311 40.667999,54.840279 40.952660,57.017044 
	C38.361595,62.021927 38.236732,66.440865 39.962917,70.990891 
	C39.097191,71.779282 38.231464,72.567673 37.217979,73.611969 
	C35.975845,74.544701 34.881470,75.221512 33.487297,76.015076 
	C32.947933,74.802956 32.102386,73.189064 32.570797,72.193192 
	C34.951431,67.131805 34.325840,62.296375 32.024460,57.055779 
z"/>
<path fill="#C71A30" opacity="1.000000" stroke="none" 
	d="
M46.632797,53.998589 
	C46.526855,57.868607 46.098415,61.786083 45.973747,65.932198 
	C45.099777,67.138161 43.922031,68.115486 42.398598,68.751343 
	C42.366985,64.601608 42.681065,60.793343 42.995140,56.985085 
	C44.100193,56.005405 45.205246,55.025723 46.632797,53.998589 
z"/>
<path fill="#B91428" opacity="1.000000" stroke="none" 
	d="
M42.662590,56.990829 
	C42.681065,60.793343 42.366985,64.601608 42.084656,68.858704 
	C41.584641,69.830887 41.052876,70.354233 40.242012,70.934235 
	C38.236732,66.440865 38.361595,62.021927 40.949226,57.390442 
	C41.443012,57.003555 41.886528,57.000065 42.662590,56.990829 
z"/>
<path fill="#D1CFD2" opacity="1.000000" stroke="none" 
	d="
M50.265995,63.975647 
	C51.517437,62.575371 53.141563,61.219826 54.934101,59.598404 
	C55.831657,59.207310 56.560810,59.082088 57.646385,59.059784 
	C58.002811,61.905834 58.002811,64.648979 58.002811,68.011055 
	C55.024372,66.397018 52.831528,65.208694 50.265995,63.975647 
z"/>
<path fill="#C61E33" opacity="1.000000" stroke="none" 
	d="
M40.151619,51.630714 
	C39.269390,52.007824 38.547501,52.015297 37.464981,52.024605 
	C37.578278,51.394810 38.052212,50.763187 38.260536,49.991314 
	C37.633266,47.243290 36.362320,44.306507 40.682312,43.144791 
	C40.765499,45.759705 40.538731,48.510395 40.151619,51.630714 
z"/>
<path fill="#C61E33" opacity="1.000000" stroke="none" 
	d="
M34.013256,46.592056 
	C33.536236,46.613865 33.061382,46.275589 32.281372,45.929855 
	C32.174709,45.098202 32.373207,44.274002 32.571705,43.449806 
	C32.831364,43.438316 33.091026,43.426826 33.350685,43.415337 
	C33.572266,44.354214 33.793842,45.293095 34.013256,46.592056 
z"/>
<path fill="#C61E33" opacity="1.000000" stroke="none" 
	d="
M36.712761,52.218018 
	C36.904011,52.903885 36.782204,53.703716 36.450726,54.725998 
	C36.293938,54.076294 36.346821,53.204136 36.712761,52.218018 
z"/>
</svg>