<svg version="1.1" id="Layer_1" xmlns="http://www.w3.org/2000/svg" xmlns:xlink="http://www.w3.org/1999/xlink" x="0px" y="0px"
	 width="100%" viewBox="0 0 100 100" enable-background="new 0 0 100 100" xml:space="preserve">
<path fill="#000000" opacity="1.000000" stroke="none" 
	d="
M54.000000,101.000000 
	C36.000004,101.000000 18.500006,101.000000 1.000007,101.000000 
	C1.000005,67.666679 1.000005,34.333351 1.000002,1.000021 
	C34.333317,1.000014 67.666634,1.000014 100.999969,1.000007 
	C100.999977,34.333313 100.999977,67.666626 100.999985,100.999969 
	C85.500000,101.000000 70.000000,101.000000 54.000000,101.000000 
M42.018944,84.001495 
	C42.018944,84.001495 42.062077,83.958130 42.036938,84.625137 
	C42.717407,85.390663 43.397877,86.156189 44.038536,86.985405 
	C44.038536,86.985405 44.089085,86.918442 44.178356,87.656189 
	C46.919582,90.492935 49.501068,88.703819 51.445038,86.870476 
	C53.591259,84.846375 57.467861,83.159210 54.689972,78.315025 
	C47.915016,71.991570 46.034012,63.025726 42.831215,54.943638 
	C44.593681,53.949944 46.356144,52.956249 48.260899,52.624855 
	C49.839630,54.091007 51.418362,55.557159 53.382824,57.555325 
	C55.236935,58.722271 57.091042,59.889221 59.264706,61.651501 
	C63.847736,65.521378 67.884796,70.587479 75.678200,68.903275 
	C76.141220,68.284142 76.604240,67.665009 77.617500,66.660576 
	C77.977577,65.295425 78.184906,63.866108 78.726402,62.577179 
	C80.343819,58.727222 78.439713,56.075832 73.351120,55.292080 
	C72.906906,54.883389 72.462685,54.474697 71.668655,53.461288 
	C70.752800,53.375763 69.836937,53.290234 68.353119,52.806770 
	C65.580269,50.593185 62.807426,48.379604 59.386414,46.061401 
	C58.889614,45.692329 58.392815,45.323257 58.061562,44.210400 
	C56.990089,41.789894 55.918617,39.369392 55.670849,36.977699 
	C61.238533,36.843620 63.957054,32.713768 67.516960,28.637829 
	C68.824539,27.156040 70.132126,25.674252 71.954124,24.080084 
	C72.298553,23.706188 72.642982,23.332293 73.645454,22.870220 
	C74.087471,22.848394 74.529495,22.826571 75.653214,22.708122 
	C76.751976,22.074133 77.946213,21.560823 78.930450,20.782087 
	C81.283012,18.920719 83.536636,16.934301 86.011505,14.412509 
	C86.431923,13.967893 86.852341,13.523277 87.794807,13.023822 
	C88.178810,12.707908 88.562805,12.391994 89.606003,11.855913 
	C90.685898,11.506719 91.765785,11.157524 93.515236,10.749667 
	C94.392624,9.829596 95.270012,8.909524 95.837685,7.363242 
	C94.284592,6.492110 92.918442,2.658532 90.500000,7.128127 
	C90.344955,7.431005 90.189911,7.733882 89.662354,8.356236 
	C89.408669,8.571755 89.211754,8.830479 88.374451,9.080048 
	C87.326317,8.608602 86.278183,8.137156 84.911331,7.091938 
	C83.234673,6.044221 81.558006,4.996504 79.315727,4.494211 
	C79.516685,7.314658 79.717651,10.135105 79.233986,13.026483 
	C77.244949,13.316480 75.258011,13.818738 73.266312,13.838339 
	C71.164421,13.859025 69.057999,13.419309 66.272987,13.309744 
	C64.508972,14.217770 62.744957,15.125796 60.393639,16.221441 
	C59.654335,16.572742 58.915035,16.924044 57.550728,17.062117 
	C57.035648,17.383766 56.520565,17.705416 56.000145,18.001406 
	C56.000145,18.001406 56.026512,18.013647 55.275974,18.032581 
	C53.168030,18.884418 51.125790,20.030846 48.936752,20.519096 
	C45.647621,21.252708 44.368874,22.717670 45.529549,26.227762 
	C45.686104,26.818388 45.842659,27.409012 45.296890,27.993437 
	C44.843575,28.075981 44.390263,28.158527 43.208714,28.116602 
	C41.122646,29.033632 39.036575,29.950665 36.469078,30.977011 
	C36.469078,30.977011 36.006973,31.150757 35.551254,31.054321 
	C35.267181,31.408150 34.983109,31.761978 34.186478,32.346016 
	C34.122360,32.521996 34.058247,32.697975 33.256718,33.249111 
	C31.890745,34.668297 30.524773,36.087482 29.176994,37.665077 
	C29.176994,37.665077 29.183718,37.824383 29.089235,37.655582 
	C29.089235,37.655582 28.906651,37.591671 28.631292,36.859776 
	C28.372667,36.892303 28.114044,36.924828 27.391323,36.987152 
	C26.892519,37.232250 26.393713,37.477348 25.330954,37.791862 
	C25.144087,37.822754 24.957220,37.853645 24.027870,37.803181 
	C17.893103,39.660751 16.146860,44.070026 16.265144,50.079762 
	C14.179524,51.382568 12.093904,52.685379 9.408760,54.462887 
	C9.967331,56.887794 10.525901,59.312698 11.116348,61.885212 
	C11.116348,61.885212 11.256718,61.940884 11.245872,62.681583 
	C11.912642,64.775032 12.579412,66.868484 13.093659,69.013290 
	C13.093659,69.013290 13.012210,69.152100 12.599811,69.213341 
	C12.287734,69.376694 12.216112,69.612976 12.254746,70.589378 
	C12.192545,70.807266 12.130342,71.025146 11.443930,71.454147 
	C10.063680,73.644310 8.683431,75.834480 7.242108,78.760994 
	C7.233839,79.499756 7.225570,80.238510 6.730882,81.311264 
	C10.167342,85.539429 13.603802,89.767593 17.123392,94.702858 
	C18.406935,97.445328 20.436440,99.950745 23.492311,98.564392 
	C25.191753,97.793404 26.217943,94.936470 26.935766,92.812843 
	C27.423777,91.369110 26.850845,89.566757 26.870485,87.099007 
	C27.825577,83.251854 28.968836,79.436905 29.635555,75.540413 
	C29.874821,74.142082 28.965195,72.547157 28.780888,70.268364 
	C28.419273,68.163391 28.057659,66.058418 27.859659,63.449032 
	C27.886063,63.274254 27.912468,63.099480 28.517281,62.527901 
	C30.128899,59.775055 31.450783,61.131279 32.302807,62.989330 
	C35.327499,69.585419 38.203949,76.249481 41.231068,83.389633 
	C41.502754,83.575958 41.774437,83.762291 42.018944,84.001495 
z"/>
<path fill="#B67C70" opacity="1.000000" stroke="none" 
	d="
M28.579914,71.041962 
	C28.965195,72.547157 29.874821,74.142082 29.635555,75.540413 
	C28.968836,79.436905 27.825577,83.251854 26.563004,87.722687 
	C24.875477,91.265160 22.984703,91.409233 20.912058,89.155464 
	C17.857357,85.833824 14.919468,82.404762 12.021777,78.688789 
	C13.457413,76.929703 14.803097,75.503273 16.380943,73.859634 
	C18.084576,72.763817 19.556047,71.885216 21.388506,70.945068 
	C22.485920,69.218643 23.222343,67.553772 23.925629,65.495148 
	C24.557604,63.050411 25.222715,60.999443 26.174168,59.076630 
	C27.020256,59.491302 27.580006,59.777813 28.070370,60.419022 
	C27.980278,61.490711 27.959574,62.207710 27.938869,62.924706 
	C27.912468,63.099480 27.886063,63.274254 27.532209,63.972557 
	C27.663145,66.678047 28.121531,68.860001 28.579914,71.041962 
M28.387682,73.416534 
	C28.387682,73.416534 28.610792,73.534370 28.610792,73.534370 
	C28.610792,73.534370 28.569294,73.272774 28.387682,73.416534 
z"/>
<path fill="#B07B71" opacity="1.000000" stroke="none" 
	d="
M42.171555,55.129723 
	C46.034012,63.025726 47.915016,71.991570 54.546593,78.780212 
	C52.621655,81.191132 50.840092,83.136864 48.807049,84.877930 
	C46.830524,81.701233 44.886272,78.832291 43.429405,75.734154 
	C40.952827,70.467545 38.897934,65.002022 36.398838,59.747059 
	C35.817898,58.525490 34.163467,57.814442 33.054909,56.545338 
	C34.647793,55.186275 36.188744,54.150364 38.097370,53.179253 
	C39.700546,53.872612 40.936050,54.501167 42.171555,55.129723 
z"/>
<path fill="#764D4C" opacity="1.000000" stroke="none" 
	d="
M33.002975,56.868488 
	C34.163467,57.814442 35.817898,58.525490 36.398838,59.747059 
	C38.897934,65.002022 40.952827,70.467545 43.429405,75.734154 
	C44.886272,78.832291 46.830524,81.701233 48.625038,85.180809 
	C47.159374,86.098389 45.624229,86.508415 44.089085,86.918442 
	C44.089085,86.918442 44.038536,86.985405 44.029289,86.636429 
	C43.367386,85.511009 42.714729,84.734573 42.062077,83.958130 
	C42.062077,83.958130 42.018944,84.001495 41.938488,83.755478 
	C41.657795,83.255524 41.417301,83.048302 41.136551,82.887794 
	C38.203949,76.249481 35.327499,69.585419 32.302807,62.989330 
	C31.450783,61.131279 30.128899,59.775055 28.228075,62.726303 
	C27.959574,62.207710 27.980278,61.490711 28.325180,60.268131 
	C29.452066,58.886349 30.254755,58.010155 31.382906,57.099323 
	C32.139904,56.999287 32.571442,56.933887 33.002975,56.868488 
z"/>
<path fill="#DADDEC" opacity="1.000000" stroke="none" 
	d="
M24.770353,37.884537 
	C24.957220,37.853645 25.144087,37.822754 25.818935,38.011532 
	C26.823086,37.806583 27.339254,37.381966 27.855423,36.957352 
	C28.114044,36.924828 28.372667,36.892303 28.751610,37.578465 
	C27.819487,39.985065 26.767048,41.672981 25.714609,43.360893 
	C26.254564,43.786205 26.794521,44.211521 27.334476,44.636833 
	C29.884995,42.089115 32.435513,39.541397 35.202862,37.136200 
	C36.283108,36.842525 37.146519,36.406326 38.297356,35.859657 
	C40.373241,34.975277 43.619389,36.081848 43.286633,32.189259 
	C43.512775,32.098766 43.986546,31.991549 44.178806,32.004944 
	C44.371067,32.018337 44.755554,32.042774 44.881699,32.276825 
	C45.310558,32.679367 45.613274,32.847858 46.027462,33.278465 
	C46.415138,34.033848 46.691341,34.527111 46.949120,35.029129 
	C46.930691,35.037880 46.925629,35.078365 46.783684,35.164967 
	C46.475685,35.585762 46.564735,35.860374 46.927193,36.443001 
	C46.970612,37.545982 46.995720,38.281368 47.034126,39.226002 
	C47.047421,39.435253 46.991707,39.850883 46.679596,40.001564 
	C44.638710,42.099720 42.909931,44.047199 41.061504,46.276802 
	C40.558636,47.031467 40.175423,47.504013 39.601418,47.974125 
	C39.410625,47.971695 39.029209,47.984055 38.659599,47.951889 
	C36.805809,48.690716 35.321625,49.461716 33.515121,50.179676 
	C32.772060,48.968616 32.351322,47.810600 31.635962,46.453712 
	C29.404903,45.919067 27.727409,45.869926 28.734049,49.021427 
	C28.617908,49.719406 28.411364,50.087864 27.859259,50.499733 
	C27.343149,50.385593 27.172602,50.228039 27.001312,49.698486 
	C26.018843,47.553314 25.037113,45.780140 24.065691,43.646065 
	C24.307449,41.484955 24.538900,39.684746 24.770353,37.884537 
M37.654457,42.314365 
	C37.859848,42.229622 38.065239,42.144875 38.811249,41.655277 
	C40.229988,40.560356 41.648724,39.465435 43.067463,38.370514 
	C42.683567,37.881828 42.299675,37.393139 41.915783,36.904453 
	C40.264870,38.188000 38.613956,39.471546 36.562454,41.086136 
	C36.384552,41.375156 36.206646,41.664177 36.021198,42.402115 
	C36.234322,42.689735 36.447449,42.977360 36.660572,43.264980 
	C36.780163,43.015556 36.899757,42.766132 37.654457,42.314365 
z"/>
<path fill="#4F4C5D" opacity="1.000000" stroke="none" 
	d="
M11.931825,79.021454 
	C14.919468,82.404762 17.857357,85.833824 20.912058,89.155464 
	C22.984703,91.409233 24.875477,91.265160 26.503935,88.135559 
	C26.850845,89.566757 27.423777,91.369110 26.935766,92.812843 
	C26.217943,94.936470 25.191753,97.793404 23.492311,98.564392 
	C20.436440,99.950745 18.406935,97.445328 17.322632,94.155167 
	C15.520941,90.720238 13.694758,87.686729 11.449296,85.004181 
	C10.229030,83.546379 10.800535,79.970284 7.217300,80.977272 
	C7.225570,80.238510 7.233839,79.499756 7.604619,78.445511 
	C9.288694,78.427162 10.610259,78.724312 11.931825,79.021454 
z"/>
<path fill="#B57B6D" opacity="1.000000" stroke="none" 
	d="
M71.439697,24.192463 
	C70.132126,25.674252 68.824539,27.156040 66.870422,28.813845 
	C64.934029,29.708624 63.188347,30.113380 62.437435,31.203421 
	C59.909237,34.873402 57.213139,34.417679 54.065960,31.866596 
	C53.903618,31.433044 53.848515,31.256048 53.870331,30.740856 
	C54.247169,29.565149 54.547100,28.727636 55.123814,27.805569 
	C55.664700,27.445326 55.928795,27.169638 56.429718,26.891243 
	C56.978439,26.854042 57.290459,26.820698 57.983059,26.834454 
	C59.575260,25.588310 60.786999,24.296223 62.371300,22.991724 
	C65.429054,22.062893 68.114243,21.146473 70.938354,20.440201 
	C71.341202,21.073906 71.605125,21.497463 71.624718,22.137325 
	C71.400162,22.966574 71.419930,23.579517 71.439697,24.192463 
z"/>
<path fill="#714C4C" opacity="1.000000" stroke="none" 
	d="
M10.008284,53.988186 
	C12.093904,52.685379 14.179524,51.382568 16.904766,50.071171 
	C17.740492,50.094185 17.936598,50.125793 17.944933,50.406532 
	C17.083622,51.644878 15.797118,52.665955 15.846585,53.617588 
	C16.025396,57.057522 16.653393,60.474102 16.884014,64.104027 
	C18.751345,68.840561 14.889277,71.045219 12.628815,73.936829 
	C12.274326,73.014236 12.171234,72.128639 12.068141,71.243034 
	C12.130342,71.025146 12.192545,70.807266 12.449966,70.150879 
	C12.803312,69.549065 12.925653,69.362305 13.012210,69.152100 
	C13.012210,69.152100 13.093659,69.013290 13.372227,68.707527 
	C12.852770,66.248138 12.054744,64.094513 11.256718,61.940884 
	C11.256718,61.940884 11.116348,61.885212 11.081333,61.486176 
	C10.017295,58.820698 14.826841,55.700512 10.008284,53.988186 
z"/>
<path fill="#454657" opacity="1.000000" stroke="none" 
	d="
M71.869041,21.921024 
	C71.605125,21.497463 71.341202,21.073906 70.985603,20.069767 
	C70.858505,15.357190 67.948921,18.682854 66.699783,17.576591 
	C66.778702,16.930565 66.799683,16.558397 66.872139,15.811188 
	C66.933601,14.684341 66.943581,13.932533 66.953560,13.180726 
	C69.057999,13.419309 71.164421,13.859025 73.266312,13.838339 
	C75.258011,13.818738 77.244949,13.316480 79.886963,13.038750 
	C80.746391,13.084977 80.952843,13.118937 81.199722,13.246002 
	C81.240150,13.339106 81.249847,13.541876 81.149109,13.903894 
	C79.022751,17.112190 76.997131,19.958467 74.971512,22.804745 
	C74.529495,22.826571 74.087471,22.848394 73.176453,22.697065 
	C72.427979,22.322948 72.148514,22.121986 71.869041,21.921024 
z"/>
<path fill="#916863" opacity="1.000000" stroke="none" 
	d="
M60.034576,46.166016 
	C62.807426,48.379604 65.580269,50.593185 68.644417,53.355320 
	C68.956184,54.603249 68.976662,55.302631 68.773079,56.128090 
	C68.343948,56.526409 68.138885,56.798653 67.632248,57.036079 
	C66.928932,56.953053 66.527176,56.904839 65.986633,56.658783 
	C65.615639,56.215187 65.331696,56.072086 64.988708,55.779228 
	C64.983917,55.358501 64.986435,55.190178 65.234901,54.795990 
	C65.480850,53.561581 65.480850,52.553036 65.480850,51.544495 
	C65.030434,51.602951 64.580017,51.661407 64.129601,51.719864 
	C64.415497,52.817593 64.701385,53.915321 64.622833,55.016827 
	C61.494812,53.651184 58.731239,52.281765 56.078308,50.685997 
	C56.425060,50.017483 56.661171,49.575325 57.164642,48.969822 
	C58.299526,47.926327 59.167053,47.046173 60.034576,46.166016 
z"/>
<path fill="#825F5D" opacity="1.000000" stroke="none" 
	d="
M46.991707,39.850883 
	C46.991707,39.850883 47.047421,39.435253 47.383141,39.206749 
	C49.755383,37.598301 51.791904,36.218361 53.885185,35.138496 
	C54.243675,35.942013 54.545410,36.445454 54.847141,36.948891 
	C55.918617,39.369392 56.990089,41.789894 57.684891,44.476921 
	C56.130733,44.820019 54.953247,44.896599 53.544815,44.890656 
	C52.507282,44.882172 51.700703,44.956203 50.556091,44.969925 
	C49.142609,43.223373 48.067158,41.537128 46.991707,39.850883 
z"/>
<path fill="#36364A" opacity="1.000000" stroke="none" 
	d="
M18.132704,50.157402 
	C17.936598,50.125793 17.740492,50.094185 17.250319,50.013924 
	C16.146860,44.070026 17.893103,39.660751 24.399113,37.843857 
	C24.538900,39.684746 24.307449,41.484955 23.760494,43.735912 
	C19.982700,47.996632 25.744061,47.064888 25.510010,49.014668 
	C22.776649,49.402828 20.454678,49.780117 18.132704,50.157402 
z"/>
<path fill="#423F50" opacity="1.000000" stroke="none" 
	d="
M39.792206,47.976555 
	C40.175423,47.504013 40.558636,47.031467 41.376423,46.288128 
	C44.200317,46.672642 46.589642,47.327953 49.117252,48.287460 
	C48.876560,49.715290 48.497581,50.838921 48.118607,51.962555 
	C46.356144,52.956249 44.593681,53.949944 42.501385,55.036682 
	C40.936050,54.501167 39.700546,53.872612 38.275188,52.921463 
	C38.417534,52.359257 38.749729,52.119637 39.422813,51.746399 
	C39.773209,50.400703 39.782707,49.188629 39.792206,47.976555 
z"/>
<path fill="#3C3B4A" opacity="1.000000" stroke="none" 
	d="
M45.924557,25.953442 
	C44.368874,22.717670 45.647621,21.252708 48.936752,20.519096 
	C51.125790,20.030846 53.168030,18.884418 55.692894,18.329929 
	C56.648266,19.715979 57.186718,20.804684 57.373955,21.943760 
	C55.361210,23.375080 53.699680,24.756029 51.681274,26.076416 
	C49.524452,25.995049 47.724503,25.974245 45.924557,25.953442 
z"/>
<path fill="#AC756A" opacity="1.000000" stroke="none" 
	d="
M57.725174,21.893387 
	C57.186718,20.804684 56.648266,19.715979 56.068161,18.320461 
	C56.026512,18.013647 56.000145,18.001406 56.297867,18.016670 
	C57.122303,17.779739 57.649017,17.527542 58.175732,17.275345 
	C58.915035,16.924044 59.654335,16.572742 61.030670,16.134102 
	C63.385357,16.093250 65.103004,16.139738 66.820656,16.186228 
	C66.799683,16.558397 66.778702,16.930565 66.461319,17.477863 
	C64.776192,19.436708 63.387466,21.220423 61.998737,23.004135 
	C60.786999,24.296223 59.575260,25.588310 58.175873,26.610752 
	C57.986599,25.514980 57.984978,24.688854 57.958046,23.532028 
	C57.863544,22.765347 57.794357,22.329365 57.725174,21.893387 
z"/>
<path fill="#694747" opacity="1.000000" stroke="none" 
	d="
M66.125427,56.856628 
	C66.527176,56.904839 66.928932,56.953053 67.854759,57.087841 
	C68.378838,57.174419 68.834549,57.185349 68.935005,57.322922 
	C69.162590,57.484280 69.289726,57.508064 69.416855,57.531845 
	C69.317856,57.319706 69.218857,57.107567 69.096893,56.671013 
	C69.073929,56.446598 68.997131,56.002010 68.997131,56.002010 
	C68.976662,55.302631 68.956184,54.603249 68.928398,53.554287 
	C69.836937,53.290234 70.752800,53.375763 71.836052,54.049068 
	C72.502357,55.285179 73.001259,55.933510 73.811935,56.851425 
	C74.979378,59.318649 76.371124,61.622009 72.769348,62.714348 
	C71.703636,62.288963 70.836823,62.129009 69.979965,61.990562 
	C69.989914,62.012062 70.037300,62.011597 69.926765,61.673958 
	C68.543678,60.883160 67.271126,60.429993 65.997040,59.991394 
	C65.995506,60.005955 66.024071,59.999496 66.102005,59.714806 
	C66.163162,59.234085 66.146378,59.038055 66.101395,58.550514 
	C66.014778,57.874123 65.956367,57.489235 65.955360,57.042915 
	C66.012764,56.981476 66.125427,56.856628 66.125427,56.856628 
z"/>
<path fill="#614C53" opacity="1.000000" stroke="none" 
	d="
M72.968254,62.979778 
	C76.371124,61.622009 74.979378,59.318649 73.882858,56.729431 
	C73.671967,56.154903 73.705406,55.972595 73.742302,55.790920 
	C78.439713,56.075832 80.343819,58.727222 78.726402,62.577179 
	C78.184906,63.866108 77.977577,65.295425 77.115585,66.700401 
	C75.070335,65.816437 73.527008,64.892639 71.994003,63.760208 
	C72.004326,63.551563 72.020706,63.133369 72.256439,63.087872 
	C72.492172,63.042374 72.968254,62.979778 72.968254,62.979778 
z"/>
<path fill="#C2CFDE" opacity="1.000000" stroke="none" 
	d="
M34.986027,36.993675 
	C32.435513,39.541397 29.884995,42.089115 27.334476,44.636833 
	C26.794521,44.211521 26.254564,43.786205 25.714609,43.360893 
	C26.767048,41.672981 27.819487,39.985065 28.889288,37.944412 
	C28.906651,37.591671 29.089235,37.655582 29.359612,37.673309 
	C29.472927,37.629581 29.315863,37.568123 29.158800,37.506668 
	C30.524773,36.087482 31.890745,34.668297 33.605087,33.368717 
	C34.297649,34.656773 34.641838,35.825226 34.986027,36.993675 
z"/>
<path fill="#644548" opacity="1.000000" stroke="none" 
	d="
M55.258995,36.963295 
	C54.545410,36.445454 54.243675,35.942013 53.940262,34.798908 
	C54.016781,33.480545 54.094990,32.801846 54.173195,32.123150 
	C57.213139,34.417679 59.909237,34.873402 62.437435,31.203421 
	C63.188347,30.113380 64.934029,29.708624 66.579010,28.968182 
	C63.957054,32.713768 61.238533,36.843620 55.258995,36.963295 
z"/>
<path fill="#362D3B" opacity="1.000000" stroke="none" 
	d="
M44.133720,87.287315 
	C45.624229,86.508415 47.159374,86.098389 48.876526,85.385468 
	C50.840092,83.136864 52.621655,81.191132 54.694725,79.080551 
	C57.467861,83.159210 53.591259,84.846375 51.445038,86.870476 
	C49.501068,88.703819 46.919582,90.492935 44.133720,87.287315 
z"/>
<path fill="#302F43" opacity="1.000000" stroke="none" 
	d="
M6.974092,81.144272 
	C10.800535,79.970284 10.229030,83.546379 11.449296,85.004181 
	C13.694758,87.686729 15.520941,90.720238 17.281067,93.801613 
	C13.603802,89.767593 10.167342,85.539429 6.974092,81.144272 
z"/>
<path fill="#3E3C4F" opacity="1.000000" stroke="none" 
	d="
M75.312363,22.756435 
	C76.997131,19.958467 79.022751,17.112190 81.344330,14.171188 
	C83.036926,14.383768 84.433571,14.691070 85.830208,14.998373 
	C83.536636,16.934301 81.283012,18.920719 78.930450,20.782087 
	C77.946213,21.560823 76.751976,22.074133 75.312363,22.756435 
z"/>
<path fill="#C2CFDE" opacity="1.000000" stroke="none" 
	d="
M43.060486,32.279751 
	C43.619389,36.081848 40.373241,34.975277 38.283035,35.485992 
	C37.637691,33.771099 37.294098,32.319397 36.950508,30.867695 
	C39.036575,29.950665 41.122646,29.033632 43.498169,28.471134 
	C43.545246,29.977026 43.302868,31.128387 43.060486,32.279751 
z"/>
<path fill="#392B38" opacity="1.000000" stroke="none" 
	d="
M75.028740,68.846352 
	C67.884796,70.587479 63.847736,65.521378 59.204762,61.249321 
	C59.144817,60.847137 59.343613,60.638519 59.670933,60.738682 
	C62.662163,62.229893 65.326073,63.620941 67.995926,65.006775 
	C68.001862,65.001564 67.987877,64.998024 68.094574,65.222198 
	C68.413841,65.712738 68.680618,65.903175 69.220886,66.281158 
	C71.303017,67.311890 73.165878,68.079117 75.028740,68.846352 
z"/>
<path fill="#684547" opacity="1.000000" stroke="none" 
	d="
M11.756035,71.348587 
	C12.171234,72.128639 12.274326,73.014236 12.843967,74.123001 
	C14.256604,74.256393 15.202692,74.166618 16.148781,74.076851 
	C14.803097,75.503273 13.457413,76.929703 12.021776,78.688789 
	C10.610259,78.724312 9.288694,78.427162 7.635155,78.077332 
	C8.683431,75.834480 10.063680,73.644310 11.756035,71.348587 
z"/>
<path fill="#433946" opacity="1.000000" stroke="none" 
	d="
M48.189751,52.293705 
	C48.497581,50.838921 48.876560,49.715290 49.307320,48.043713 
	C49.707966,47.281513 50.056835,47.067257 50.589947,46.984093 
	C51.023941,47.303356 51.204399,47.543613 51.217094,48.165031 
	C51.745693,49.317406 52.372768,50.140705 53.005005,51.310669 
	C53.344334,52.739235 53.678497,53.821140 53.906013,55.177250 
	C53.531944,55.975407 53.264519,56.499359 52.997093,57.023312 
	C51.418362,55.557159 49.839630,54.091007 48.189751,52.293705 
z"/>
<path fill="#5E444A" opacity="1.000000" stroke="none" 
	d="
M75.353470,68.874817 
	C73.165878,68.079117 71.303017,67.311890 69.099564,66.068176 
	C68.548615,65.333176 68.291588,65.135292 67.987877,64.998024 
	C67.987877,64.998024 68.001862,65.001564 68.235413,64.742325 
	C69.640541,64.311684 70.812103,64.140266 71.983673,63.968849 
	C73.527008,64.892639 75.070335,65.816437 76.840462,66.893051 
	C76.604240,67.665009 76.141220,68.284142 75.353470,68.874817 
z"/>
<path fill="#5C5D70" opacity="1.000000" stroke="none" 
	d="
M79.881348,3.948786 
	C81.558006,4.996504 83.234673,6.044221 84.940186,7.647168 
	C84.615135,9.179738 84.261230,10.157078 83.694229,11.186479 
	C82.819283,11.175465 82.157433,11.112389 81.364700,10.654741 
	C80.782997,8.156375 80.332169,6.052580 79.881348,3.948786 
z"/>
<path fill="#5E6577" opacity="1.000000" stroke="none" 
	d="
M45.727051,26.090603 
	C47.724503,25.974245 49.524452,25.995049 51.668777,26.300005 
	C52.013153,26.584156 52.017757,27.033550 51.986095,27.213650 
	C51.954433,27.393751 51.935921,27.759005 51.626026,27.861561 
	C50.207882,28.638939 49.099632,29.313763 47.695580,29.956375 
	C47.010300,29.862484 46.620819,29.800804 46.197887,29.448292 
	C46.109360,28.771519 46.054287,28.385576 45.999214,27.999636 
	C45.842659,27.409012 45.686104,26.818388 45.727051,26.090603 
z"/>
<path fill="#535364" opacity="1.000000" stroke="none" 
	d="
M83.907333,11.134418 
	C84.261230,10.157078 84.615135,9.179738 85.099548,7.934054 
	C86.278183,8.137156 87.326317,8.608602 88.730896,9.473856 
	C89.040497,10.603804 88.993652,11.339943 88.946808,12.076082 
	C88.562805,12.391994 88.178810,12.707908 87.244987,12.888496 
	C85.765892,12.213587 84.836609,11.674004 83.907333,11.134418 
z"/>
<path fill="#CCD3E2" opacity="1.000000" stroke="none" 
	d="
M36.709793,30.922352 
	C37.294098,32.319397 37.637691,33.771099 37.995605,35.596462 
	C37.146519,36.406326 36.283108,36.842525 35.202862,37.136200 
	C34.641838,35.825226 34.297649,34.656773 33.973797,33.181137 
	C34.058247,32.697975 34.122360,32.521996 34.536930,32.479542 
	C35.260578,32.125629 35.633774,31.638193 36.006973,31.150757 
	C36.006973,31.150757 36.469078,30.977011 36.709793,30.922352 
z"/>
<path fill="#684547" opacity="1.000000" stroke="none" 
	d="
M9.708522,54.225536 
	C14.826841,55.700512 10.017295,58.820698 11.065395,61.412376 
	C10.525901,59.312698 9.967331,56.887794 9.708522,54.225536 
z"/>
<path fill="#707285" opacity="1.000000" stroke="none" 
	d="
M83.694229,11.186480 
	C84.836609,11.674004 85.765892,12.213587 86.983963,12.915915 
	C86.852341,13.523277 86.431923,13.967893 85.920853,14.705441 
	C84.433571,14.691070 83.036926,14.383768 81.445068,13.809171 
	C81.249847,13.541876 81.240150,13.339106 81.223167,12.889510 
	C81.302650,11.976381 81.399124,11.512848 81.495590,11.049314 
	C82.157433,11.112389 82.819283,11.175465 83.694229,11.186480 
z"/>
<path fill="#392B38" opacity="1.000000" stroke="none" 
	d="
M53.189957,57.289318 
	C53.264519,56.499359 53.531944,55.975407 54.202591,55.334358 
	C56.185078,57.024349 57.764347,58.831432 59.343613,60.638519 
	C59.343613,60.638519 59.144817,60.847137 59.044983,60.951653 
	C57.091042,59.889221 55.236935,58.722271 53.189957,57.289318 
z"/>
<path fill="#2E2E44" opacity="1.000000" stroke="none" 
	d="
M81.364708,10.654742 
	C81.399124,11.512848 81.302650,11.976381 81.182739,12.796406 
	C80.952843,13.118937 80.746391,13.084977 80.229279,13.003284 
	C79.717651,10.135105 79.516685,7.314658 79.598541,4.221498 
	C80.332169,6.052580 80.782997,8.156375 81.364708,10.654742 
z"/>
<path fill="#63494D" opacity="1.000000" stroke="none" 
	d="
M53.775764,44.973175 
	C54.953247,44.896599 56.130733,44.820019 57.602116,44.848816 
	C58.392815,45.323257 58.889614,45.692329 59.710495,46.113708 
	C59.167053,47.046173 58.299526,47.926327 57.018990,48.738243 
	C56.092533,48.514599 55.579086,48.359188 54.962048,47.959290 
	C54.609478,47.479397 54.360493,47.243996 54.081131,46.665920 
	C53.959091,45.873222 53.867428,45.423199 53.775764,44.973175 
z"/>
<path fill="#7B7C90" opacity="1.000000" stroke="none" 
	d="
M89.276413,11.965998 
	C88.993652,11.339943 89.040497,10.603804 89.079468,9.500034 
	C89.211754,8.830479 89.408669,8.571755 90.101822,8.215061 
	C90.710609,8.072723 90.879921,8.071560 91.321938,8.090929 
	C91.958527,8.091681 92.322403,8.071902 92.797478,8.385868 
	C92.887672,9.415853 92.866669,10.112092 92.845673,10.808331 
	C91.765785,11.157524 90.685898,11.506719 89.276413,11.965998 
z"/>
<path fill="#545365" opacity="1.000000" stroke="none" 
	d="
M92.686287,8.052123 
	C92.322403,8.071902 91.958527,8.091681 91.315338,7.838002 
	C91.034897,7.396366 91.033752,7.228188 91.032608,7.060009 
	C92.918442,2.658532 94.284592,6.492110 95.561111,7.684886 
	C94.418457,8.021728 93.552376,8.036925 92.686287,8.052123 
z"/>
<path fill="#675B66" opacity="1.000000" stroke="none" 
	d="
M66.872139,15.811188 
	C65.103004,16.139738 63.385357,16.093250 61.324326,16.040291 
	C62.744957,15.125796 64.508972,14.217770 66.613274,13.245235 
	C66.943581,13.932533 66.933601,14.684341 66.872139,15.811188 
z"/>
<path fill="#684547" opacity="1.000000" stroke="none" 
	d="
M11.251295,62.311234 
	C12.054744,64.094513 12.852770,66.248138 13.448488,68.681847 
	C12.579412,66.868484 11.912642,64.775032 11.251295,62.311234 
z"/>
<path fill="#94ACB8" opacity="1.000000" stroke="none" 
	d="
M45.648052,27.996536 
	C46.054287,28.385576 46.109360,28.771519 46.015732,29.707329 
	C45.544975,30.515898 45.222912,30.774597 44.695869,31.135815 
	C44.241776,31.435152 44.073662,31.686224 43.986546,31.991549 
	C43.986546,31.991549 43.512775,32.098766 43.286629,32.189259 
	C43.302868,31.128387 43.545246,29.977026 43.862289,28.533369 
	C44.390263,28.158527 44.843575,28.075981 45.648052,27.996536 
z"/>
<path fill="#404052" opacity="1.000000" stroke="none" 
	d="
M92.797478,8.385868 
	C93.552376,8.036925 94.418457,8.021728 95.715973,7.997992 
	C95.270012,8.909524 94.392624,9.829596 93.180450,10.778999 
	C92.866669,10.112092 92.887672,9.415853 92.797478,8.385868 
z"/>
<path fill="#764D4C" opacity="1.000000" stroke="none" 
	d="
M28.680401,70.655167 
	C28.121531,68.860001 27.663145,66.678047 27.450401,64.224762 
	C28.057659,66.058418 28.419273,68.163391 28.680401,70.655167 
z"/>
<path fill="#916863" opacity="1.000000" stroke="none" 
	d="
M73.546707,55.541500 
	C73.705406,55.972595 73.671967,56.154903 73.571075,56.459839 
	C73.001259,55.933510 72.502357,55.285179 72.010956,54.351429 
	C72.462685,54.474697 72.906906,54.883389 73.546707,55.541500 
z"/>
<path fill="#C2CFDE" opacity="1.000000" stroke="none" 
	d="
M27.623373,36.972252 
	C27.339254,37.381966 26.823086,37.806583 26.100914,37.976822 
	C26.393713,37.477348 26.892519,37.232250 27.623373,36.972252 
z"/>
<path fill="#3E3C4F" opacity="1.000000" stroke="none" 
	d="
M71.624718,22.137325 
	C72.148514,22.121986 72.427979,22.322948 72.847427,22.741154 
	C72.642982,23.332293 72.298553,23.706188 71.696915,24.136272 
	C71.419930,23.579517 71.400162,22.966574 71.624718,22.137325 
z"/>
<path fill="#362D3B" opacity="1.000000" stroke="none" 
	d="
M42.049507,84.291634 
	C42.714729,84.734573 43.367386,85.511009 44.049194,86.604584 
	C43.397877,86.156189 42.717407,85.390663 42.049507,84.291634 
z"/>
<path fill="#C2CFDE" opacity="1.000000" stroke="none" 
	d="
M35.779114,31.102539 
	C35.633774,31.638193 35.260578,32.125629 34.793209,32.364437 
	C34.983109,31.761978 35.267181,31.408150 35.779114,31.102539 
z"/>
<path fill="#3C3B4A" opacity="1.000000" stroke="none" 
	d="
M57.863228,17.168732 
	C57.649017,17.527542 57.122303,17.779739 56.300537,18.029499 
	C56.520565,17.705416 57.035648,17.383766 57.863228,17.168732 
z"/>
<path fill="#CCD3E2" opacity="1.000000" stroke="none" 
	d="
M29.167896,37.585873 
	C29.315863,37.568123 29.472927,37.629581 29.406853,37.757710 
	C29.183718,37.824383 29.176994,37.665077 29.167896,37.585873 
z"/>
<path fill="#684547" opacity="1.000000" stroke="none" 
	d="
M12.806010,69.182724 
	C12.925653,69.362305 12.803312,69.549065 12.515066,69.817276 
	C12.216112,69.612976 12.287734,69.376694 12.806010,69.182724 
z"/>
<path fill="#404052" opacity="1.000000" stroke="none" 
	d="
M90.766304,7.094068 
	C91.033752,7.228188 91.034897,7.396366 91.042633,7.817471 
	C90.879921,8.071560 90.710609,8.072723 90.288086,8.055323 
	C90.189911,7.733882 90.344955,7.431005 90.766304,7.094068 
z"/>
<path fill="#362D3B" opacity="1.000000" stroke="none" 
	d="
M41.183807,83.138718 
	C41.417301,83.048302 41.657795,83.255524 41.952080,83.729034 
	C41.774437,83.762291 41.502754,83.575958 41.183807,83.138718 
z"/>
<path fill="#48323C" opacity="1.000000" stroke="none" 
	d="
M16.380943,73.859634 
	C15.202692,74.166618 14.256604,74.256393 13.095363,74.159988 
	C14.889277,71.045219 18.751345,68.840561 17.195269,64.010872 
	C20.166866,61.664970 22.599407,59.616756 25.240707,57.755001 
	C25.595585,58.277134 25.741705,58.612804 25.887827,58.948475 
	C25.222715,60.999443 24.557604,63.050411 23.642933,65.677879 
	C22.604755,67.838455 21.816135,69.422539 21.027515,71.006615 
	C19.556047,71.885216 18.084576,72.763817 16.380943,73.859634 
z"/>
<path fill="#B77C6E" opacity="1.000000" stroke="none" 
	d="
M26.174168,59.076630 
	C25.741705,58.612804 25.595585,58.277134 25.324345,57.481178 
	C26.135233,56.351131 27.071239,55.681370 28.362991,55.019447 
	C29.498306,55.729511 30.277876,56.431736 31.057444,57.133961 
	C30.254755,58.010155 29.452066,58.886349 28.394567,59.913437 
	C27.580006,59.777813 27.020256,59.491302 26.174168,59.076630 
M29.551933,56.510746 
	C29.551933,56.510746 29.481524,56.545815 29.551933,56.510746 
z"/>
<path fill="#B77C6E" opacity="1.000000" stroke="none" 
	d="
M21.388504,70.945068 
	C21.816135,69.422539 22.604755,67.838455 23.676071,66.071640 
	C23.222343,67.553772 22.485920,69.218643 21.388504,70.945068 
z"/>
<path fill="#764D4C" opacity="1.000000" stroke="none" 
	d="
M28.478489,73.344650 
	C28.569294,73.272774 28.610792,73.534370 28.610792,73.534370 
	C28.610792,73.534370 28.387682,73.416534 28.478489,73.344650 
z"/>
<path fill="#B67C70" opacity="1.000000" stroke="none" 
	d="
M31.382906,57.099323 
	C30.277876,56.431736 29.498306,55.729511 28.358997,55.013046 
	C27.999258,54.998806 27.992708,54.987778 28.213291,54.749687 
	C29.283846,53.663563 30.133818,52.815525 30.995110,51.980274 
	C31.006432,51.993057 30.972816,51.990871 31.172852,51.891357 
	C31.626314,51.623730 31.819382,51.402874 32.208344,51.059864 
	C32.922211,50.737881 33.379826,50.485298 33.837444,50.232716 
	C35.321625,49.461716 36.805809,48.690716 38.692299,48.341309 
	C39.090382,49.801937 39.086155,50.840981 39.081924,51.880020 
	C38.749729,52.119637 38.417534,52.359257 37.907516,52.856663 
	C36.188744,54.150364 34.647793,55.186275 33.054909,56.545338 
	C32.571442,56.933887 32.139904,56.999287 31.382906,57.099323 
z"/>
<path fill="#B67C70" opacity="1.000000" stroke="none" 
	d="
M28.003250,55.005207 
	C27.071239,55.681370 26.135233,56.351131 25.115589,57.294716 
	C22.599407,59.616756 20.166866,61.664970 17.423073,63.806343 
	C16.653393,60.474102 16.025396,57.057522 15.846585,53.617588 
	C15.797118,52.665955 17.083622,51.644878 17.944933,50.406532 
	C20.454678,49.780117 22.776649,49.402828 25.640690,49.238373 
	C26.455854,49.657627 26.728954,49.864056 27.002052,50.070484 
	C27.172602,50.228039 27.343149,50.385593 27.821615,50.506065 
	C28.129534,50.468987 28.054783,50.448498 28.062757,50.793755 
	C28.381041,51.463375 28.691347,51.787746 28.734947,52.336655 
	C27.179195,52.911659 25.890156,53.262127 24.601114,53.612591 
	C24.603676,53.900654 24.606237,54.188713 24.608801,54.476776 
	C25.736771,54.647110 26.864738,54.817444 27.992708,54.987778 
	C27.992708,54.987778 27.999258,54.998806 28.003250,55.005207 
z"/>
<path fill="#393A4D" opacity="1.000000" stroke="none" 
	d="
M50.405701,46.853001 
	C50.056835,47.067257 49.707966,47.281513 49.169029,47.739517 
	C46.589642,47.327953 44.200317,46.672642 41.496075,46.006004 
	C42.909931,44.047199 44.638710,42.099720 46.679596,40.001564 
	C48.067158,41.537128 49.142609,43.223373 50.549843,45.210693 
	C50.722984,45.958843 50.564342,46.405922 50.405701,46.853001 
z"/>
<path fill="#D0D6E4" opacity="1.000000" stroke="none" 
	d="
M54.065964,31.866596 
	C54.094990,32.801846 54.016781,33.480545 53.883499,34.498833 
	C51.791904,36.218361 49.755383,37.598301 47.369850,38.997498 
	C46.995720,38.281368 46.970612,37.545982 46.944843,36.193680 
	C46.944183,35.576759 46.925629,35.078365 46.925629,35.078365 
	C46.925629,35.078365 46.930691,35.037880 47.223167,35.095196 
	C47.701984,35.128368 47.888325,35.104229 48.400612,35.020947 
	C50.248363,33.687569 51.770164,32.413330 53.417526,31.125721 
	C53.543083,31.112349 53.793415,31.079054 53.793415,31.079054 
	C53.848515,31.256048 53.903618,31.433044 54.065964,31.866596 
z"/>
<path fill="#5D5E6F" opacity="1.000000" stroke="none" 
	d="
M28.054783,50.448498 
	C28.054783,50.448498 28.129534,50.468987 28.167177,50.462654 
	C28.411364,50.087864 28.617908,49.719406 28.980679,48.830482 
	C30.068130,47.757542 30.999357,47.205063 31.930584,46.652580 
	C32.351322,47.810600 32.772060,48.968616 33.515121,50.179676 
	C33.379826,50.485298 32.922211,50.737881 31.989050,51.125069 
	C31.248690,51.440811 31.068460,51.684544 30.972816,51.990871 
	C30.972816,51.990871 31.006432,51.993057 30.723164,51.972740 
	C30.258892,51.939945 30.077885,51.927471 29.782795,51.595993 
	C29.130735,51.000828 28.592760,50.724663 28.054783,50.448498 
z"/>
<path fill="#CCD3E2" opacity="1.000000" stroke="none" 
	d="
M36.963043,40.755096 
	C38.613956,39.471546 40.264870,38.188000 41.915783,36.904453 
	C42.299675,37.393139 42.683567,37.881828 43.067463,38.370514 
	C41.648724,39.465435 40.229988,40.560356 38.399406,41.571312 
	C37.646057,41.243263 37.304550,40.999180 36.963043,40.755096 
z"/>
<path fill="#CCD3E2" opacity="1.000000" stroke="none" 
	d="
M27.001312,49.698486 
	C26.728954,49.864056 26.455854,49.657627 26.052074,49.227493 
	C25.744061,47.064888 19.982700,47.996632 23.750187,44.096813 
	C25.037113,45.780140 26.018843,47.553314 27.001312,49.698486 
z"/>
<path fill="#CCD3E2" opacity="1.000000" stroke="none" 
	d="
M31.635963,46.453716 
	C30.999357,47.205063 30.068130,47.757542 28.890274,48.500961 
	C27.727409,45.869926 29.404903,45.919067 31.635963,46.453716 
z"/>
<path fill="#879EAA" opacity="1.000000" stroke="none" 
	d="
M44.900852,31.033297 
	C45.222912,30.774597 45.544975,30.515898 46.049187,29.998161 
	C46.620819,29.800804 47.010300,29.862484 47.675964,30.290236 
	C47.958351,31.102083 47.964546,31.547859 47.986599,31.996555 
	C48.002457,31.999477 47.993355,31.969025 47.749939,32.056355 
	C47.331280,32.430508 47.156029,32.717331 46.714638,33.011658 
	C46.270992,33.018227 46.093494,33.017288 45.915993,33.016350 
	C45.613274,32.847858 45.310558,32.679367 44.945805,32.028313 
	C44.889465,31.374928 44.895157,31.204111 44.900852,31.033297 
z"/>
<path fill="#CDCFDC" opacity="1.000000" stroke="none" 
	d="
M39.422817,51.746399 
	C39.086155,50.840981 39.090382,49.801937 39.061909,48.373474 
	C39.029209,47.984055 39.410625,47.971695 39.601418,47.974125 
	C39.782707,49.188629 39.773209,50.400703 39.422817,51.746399 
z"/>
<path fill="#7C8895" opacity="1.000000" stroke="none" 
	d="
M46.027462,33.278465 
	C46.093494,33.017288 46.270992,33.018227 46.968998,33.058228 
	C47.654587,33.146626 47.819664,33.195950 47.995831,33.551071 
	C48.029503,34.264610 48.052082,34.672352 48.074661,35.080090 
	C47.888325,35.104229 47.701984,35.128368 47.241592,35.086441 
	C46.691341,34.527111 46.415138,34.033848 46.027462,33.278465 
z"/>
<path fill="#CCD3E2" opacity="1.000000" stroke="none" 
	d="
M37.019348,42.516708 
	C36.899757,42.766132 36.780163,43.015556 36.660572,43.264980 
	C36.447449,42.977360 36.234322,42.689735 36.276558,42.311577 
	C36.694397,42.319595 36.856873,42.418152 37.019348,42.516708 
z"/>
<path fill="#8E9DAB" opacity="1.000000" stroke="none" 
	d="
M37.336903,42.415535 
	C36.856873,42.418152 36.694397,42.319595 36.280331,42.087116 
	C36.206646,41.664177 36.384552,41.375156 36.762749,40.920616 
	C37.304550,40.999180 37.646057,41.243263 38.129097,41.773735 
	C38.065239,42.144875 37.859848,42.229622 37.336903,42.415535 
z"/>
<path fill="#CCD3E2" opacity="1.000000" stroke="none" 
	d="
M46.783684,35.164967 
	C46.925629,35.078365 46.944183,35.576759 46.926537,35.826080 
	C46.564735,35.860374 46.475685,35.585762 46.783684,35.164967 
z"/>
<path fill="#CCD3E2" opacity="1.000000" stroke="none" 
	d="
M44.695869,31.135815 
	C44.895157,31.204111 44.889465,31.374928 44.819664,31.794260 
	C44.755554,32.042774 44.371067,32.018337 44.178806,32.004944 
	C44.073662,31.686224 44.241776,31.435152 44.695869,31.135815 
z"/>
<path fill="#675B66" opacity="1.000000" stroke="none" 
	d="
M62.371300,22.991724 
	C63.387466,21.220423 64.776192,19.436708 66.403381,17.751720 
	C67.948921,18.682854 70.858505,15.357190 70.846680,19.859619 
	C68.114243,21.146473 65.429054,22.062893 62.371300,22.991724 
z"/>
<path fill="#697585" opacity="1.000000" stroke="none" 
	d="
M52.017757,27.033550 
	C52.017757,27.033550 52.013153,26.584156 52.025650,26.360569 
	C53.699680,24.756029 55.361210,23.375080 57.373955,21.943758 
	C57.794357,22.329365 57.863544,22.765347 57.669117,23.680250 
	C57.001301,25.070766 56.597099,25.982359 56.192894,26.893950 
	C55.928795,27.169638 55.664700,27.445326 54.951019,27.544498 
	C53.673546,27.256504 52.845654,27.145027 52.017757,27.033550 
z"/>
<path fill="#B6BDCB" opacity="1.000000" stroke="none" 
	d="
M51.986095,27.213650 
	C52.845654,27.145027 53.673546,27.256504 54.674232,27.629051 
	C54.547100,28.727636 54.247169,29.565149 53.870331,30.740856 
	C53.793415,31.079054 53.543083,31.112349 53.237827,30.864906 
	C52.601635,30.364809 52.270695,30.112154 51.947136,29.509567 
	C51.948315,28.692760 51.942120,28.225882 51.935921,27.759005 
	C51.935921,27.759005 51.954433,27.393751 51.986095,27.213650 
z"/>
<path fill="#A9B5C3" opacity="1.000000" stroke="none" 
	d="
M56.429722,26.891243 
	C56.597099,25.982359 57.001301,25.070766 57.694431,24.010952 
	C57.984978,24.688854 57.986599,25.514980 57.795410,26.564808 
	C57.290459,26.820698 56.978439,26.854042 56.429722,26.891243 
z"/>
<path fill="#764E4D" opacity="1.000000" stroke="none" 
	d="
M59.670937,60.738682 
	C57.764347,58.831432 56.185078,57.024349 54.309235,55.060158 
	C53.678497,53.821140 53.344334,52.739235 53.177269,51.088165 
	C53.869762,50.354244 54.395157,50.189480 55.040424,50.232376 
	C55.362240,50.712322 55.631363,50.869762 55.967667,50.912346 
	C58.731239,52.281765 61.494812,53.651184 64.629135,55.010956 
	C64.999886,55.001305 64.988953,55.021851 64.988953,55.021851 
	C64.986435,55.190178 64.983917,55.358501 64.991745,56.015171 
	C65.002090,56.503521 65.007294,56.976051 64.797409,57.123955 
	C64.670464,57.854298 64.753387,58.436733 64.973343,59.249901 
	C65.414932,59.653587 65.719505,59.826542 66.024071,59.999496 
	C66.024071,59.999496 65.995506,60.005955 66.140900,60.307610 
	C67.536621,61.076710 68.786964,61.544151 70.037300,62.011597 
	C70.037300,62.011597 69.989914,62.012062 70.145424,62.251015 
	C70.874191,62.704430 71.447449,62.918900 72.020706,63.133369 
	C72.020706,63.133369 72.004326,63.551563 71.994003,63.760208 
	C70.812103,64.140266 69.640541,64.311684 68.229477,64.747543 
	C65.326073,63.620941 62.662163,62.229893 59.670937,60.738682 
z"/>
<path fill="#B3857A" opacity="1.000000" stroke="none" 
	d="
M64.993584,55.007179 
	C64.701385,53.915321 64.415497,52.817593 64.129601,51.719864 
	C64.580017,51.661407 65.030434,51.602951 65.480850,51.544495 
	C65.480850,52.553036 65.480850,53.561581 65.234901,54.795990 
	C64.988953,55.021851 64.999886,55.001305 64.993584,55.007179 
z"/>
<path fill="#AB7870" opacity="1.000000" stroke="none" 
	d="
M56.078308,50.685997 
	C55.631363,50.869762 55.362240,50.712322 55.079922,49.928822 
	C55.021580,49.013004 55.043606,48.608391 55.065636,48.203781 
	C55.579086,48.359188 56.092533,48.514599 56.751633,48.901585 
	C56.661171,49.575325 56.425060,50.017483 56.078308,50.685997 
z"/>
<path fill="#A27472" opacity="1.000000" stroke="none" 
	d="
M68.773071,56.128090 
	C68.997131,56.002010 69.073929,56.446598 69.023895,56.741856 
	C68.973869,57.037113 68.834549,57.185349 68.834549,57.185349 
	C68.834549,57.185349 68.378838,57.174419 68.156326,57.122658 
	C68.138885,56.798653 68.343948,56.526409 68.773071,56.128090 
z"/>
<path fill="#694747" opacity="1.000000" stroke="none" 
	d="
M65.007294,56.976051 
	C65.007294,56.976051 65.002090,56.503521 64.999054,56.267578 
	C65.331696,56.072086 65.615639,56.215187 65.986633,56.658783 
	C66.125427,56.856628 66.012764,56.981476 65.732590,57.015244 
	C65.452423,57.049011 65.007294,56.976051 65.007294,56.976051 
z"/>
<path fill="#A06D66" opacity="1.000000" stroke="none" 
	d="
M50.589943,46.984093 
	C50.564342,46.405922 50.722984,45.958843 50.887875,45.271000 
	C51.700703,44.956203 52.507282,44.882172 53.544815,44.890656 
	C53.867428,45.423199 53.959091,45.873222 53.857353,46.730335 
	C53.361240,47.258999 53.145908,47.469788 52.734604,47.831223 
	C52.258717,47.909821 52.066181,47.926979 51.734772,47.913792 
	C51.595894,47.883446 51.315571,47.835964 51.315571,47.835964 
	C51.204399,47.543613 51.023941,47.303356 50.589943,46.984093 
z"/>
<path fill="#B1786B" opacity="1.000000" stroke="none" 
	d="
M69.926765,61.673958 
	C68.786964,61.544151 67.536621,61.076710 66.142426,60.293045 
	C67.271126,60.429993 68.543678,60.883160 69.926765,61.673958 
z"/>
<path fill="#916863" opacity="1.000000" stroke="none" 
	d="
M64.797409,57.123955 
	C65.007294,56.976051 65.452423,57.049011 65.675186,57.076683 
	C65.956367,57.489235 66.014778,57.874123 65.778336,58.601067 
	C65.267754,58.968475 65.052032,58.993820 64.836319,59.019169 
	C64.753387,58.436733 64.670464,57.854298 64.797409,57.123955 
z"/>
<path fill="#B27A6C" opacity="1.000000" stroke="none" 
	d="
M72.256439,63.087868 
	C71.447449,62.918900 70.874191,62.704430 70.135468,62.229511 
	C70.836823,62.129009 71.703636,62.288963 72.769348,62.714348 
	C72.968254,62.979778 72.492172,63.042374 72.256439,63.087868 
z"/>
<path fill="#B1786B" opacity="1.000000" stroke="none" 
	d="
M64.973343,59.249901 
	C65.052032,58.993820 65.267754,58.968475 65.806541,58.892578 
	C66.146378,59.038055 66.163162,59.234085 66.102005,59.714806 
	C65.719505,59.826542 65.414932,59.653587 64.973343,59.249901 
z"/>
<path fill="#A27472" opacity="1.000000" stroke="none" 
	d="
M69.046860,56.966270 
	C69.218857,57.107567 69.317856,57.319706 69.416855,57.531845 
	C69.289726,57.508064 69.162590,57.484280 68.935005,57.322922 
	C68.834549,57.185349 68.973869,57.037113 69.046860,56.966270 
z"/>
<path fill="#764E4D" opacity="1.000000" stroke="none" 
	d="
M68.094574,65.222198 
	C68.291588,65.135292 68.548615,65.333176 68.880295,65.804680 
	C68.680618,65.903175 68.413841,65.712738 68.094574,65.222198 
z"/>
<path fill="#815653" opacity="1.000000" stroke="none" 
	d="
M53.017963,47.769791 
	C53.145908,47.469788 53.361240,47.258999 53.887733,47.073009 
	C54.360493,47.243996 54.609478,47.479397 54.962044,47.959290 
	C55.043606,48.608391 55.021580,49.013004 54.960052,49.721169 
	C54.395157,50.189480 53.869762,50.354244 53.172104,50.741508 
	C52.372768,50.140705 51.745693,49.317406 51.217094,48.165031 
	C51.315571,47.835964 51.595894,47.883446 51.881004,48.061050 
	C52.450066,48.082367 52.734016,47.926079 53.017963,47.769791 
z"/>
<path fill="#C3CDDB" opacity="1.000000" stroke="none" 
	d="
M51.626026,27.861561 
	C51.942120,28.225882 51.948315,28.692760 51.792656,29.813183 
	C50.410778,30.975695 49.190758,31.484663 47.970741,31.993633 
	C47.964546,31.547859 47.958351,31.102083 47.971767,30.322447 
	C49.099632,29.313763 50.207882,28.638939 51.626026,27.861561 
z"/>
<path fill="#B67C70" opacity="1.000000" stroke="none" 
	d="
M29.516727,56.528282 
	C29.481524,56.545815 29.551933,56.510746 29.516727,56.528282 
z"/>
<path fill="#B77C6E" opacity="1.000000" stroke="none" 
	d="
M29.896877,51.914993 
	C30.077885,51.927471 30.258892,51.939945 30.711843,51.959953 
	C30.133818,52.815525 29.283846,53.663563 28.213291,54.749687 
	C26.864738,54.817444 25.736771,54.647110 24.608801,54.476776 
	C24.606237,54.188713 24.603676,53.900654 24.601114,53.612591 
	C25.890156,53.262127 27.179195,52.911659 28.955116,52.270866 
	C29.441994,51.980541 29.896877,51.914993 29.896877,51.914993 
z"/>
<path fill="#B77C6E" opacity="1.000000" stroke="none" 
	d="
M31.172852,51.891357 
	C31.068460,51.684544 31.248690,51.440811 31.732798,51.194473 
	C31.819382,51.402874 31.626314,51.623730 31.172852,51.891357 
z"/>
<path fill="#D2D9E7" opacity="1.000000" stroke="none" 
	d="
M29.782795,51.595993 
	C29.896877,51.914993 29.441994,51.980541 29.221825,52.046326 
	C28.691347,51.787746 28.381041,51.463375 28.062757,50.793755 
	C28.592760,50.724663 29.130735,51.000828 29.782795,51.595993 
z"/>
<path fill="#95AEB8" opacity="1.000000" stroke="none" 
	d="
M47.986599,31.996555 
	C49.190758,31.484663 50.410778,30.975695 51.785278,30.163113 
	C52.270695,30.112154 52.601635,30.364809 53.112267,30.878281 
	C51.770164,32.413330 50.248363,33.687569 48.400612,35.020947 
	C48.052082,34.672352 48.029503,34.264610 48.025974,33.231667 
	C48.027805,32.393982 48.010578,32.181503 47.993355,31.969025 
	C47.993355,31.969025 48.002457,31.999477 47.986599,31.996555 
z"/>
<path fill="#C3CDDB" opacity="1.000000" stroke="none" 
	d="
M47.749939,32.056355 
	C48.010578,32.181503 48.027805,32.393982 48.014885,32.925865 
	C47.819664,33.195950 47.654587,33.146626 47.235146,33.050728 
	C47.156029,32.717331 47.331280,32.430508 47.749939,32.056355 
z"/>
<path fill="#433946" opacity="1.000000" stroke="none" 
	d="
M52.734604,47.831226 
	C52.734016,47.926079 52.450066,48.082367 52.019882,48.091396 
	C52.066181,47.926979 52.258717,47.909821 52.734604,47.831226 
z"/>
</svg>