<svg version="1.1" id="Layer_1" xmlns="http://www.w3.org/2000/svg" xmlns:xlink="http://www.w3.org/1999/xlink" x="0px" y="0px"
	 width="100%" viewBox="0 0 100 100" enable-background="new 0 0 100 100" xml:space="preserve">
<path fill="#010101" opacity="1.000000" stroke="none" 
	d="
M61.000000,101.000000 
	C40.666672,101.000000 20.833340,101.000000 1.000008,101.000000 
	C1.000005,67.666679 1.000005,34.333351 1.000003,1.000021 
	C34.333317,1.000014 67.666634,1.000014 100.999969,1.000007 
	C100.999977,34.333313 100.999977,67.666626 100.999985,100.999969 
	C87.833336,101.000000 74.666664,101.000000 61.000000,101.000000 
M24.384100,72.372154 
	C24.384100,72.372154 24.637552,72.237991 25.346781,72.585220 
	C27.872946,72.329353 30.407442,72.134834 32.921974,71.793320 
	C34.305470,71.605415 35.655380,71.170235 37.675179,70.755615 
	C38.111702,70.806122 38.548229,70.856628 39.610188,71.439934 
	C42.439899,71.603271 45.269608,71.766609 49.013874,71.839958 
	C56.064163,71.297333 63.200035,71.256042 70.140694,70.071198 
	C77.091553,68.884621 83.847458,66.555954 91.461700,64.894402 
	C95.310844,64.260727 97.021027,62.005478 96.995766,58.098335 
	C96.926193,47.334816 97.050262,36.569523 96.897949,25.807762 
	C96.880081,24.545113 95.614365,23.300125 94.439827,21.751598 
	C93.954086,21.176830 93.468353,20.602062 93.000984,19.350275 
	C92.000977,18.898045 91.000969,18.445814 89.358070,17.958296 
	C88.589523,17.598867 87.820976,17.239437 86.902847,16.172258 
	C82.274864,14.818881 77.646881,13.465505 72.356537,12.070302 
	C71.573341,12.359863 70.790146,12.649425 69.220284,13.014111 
	C68.171127,12.936534 67.121964,12.858957 65.894981,11.989110 
	C65.518356,11.719838 65.144714,11.220001 64.764664,11.215072 
	C55.669174,11.097109 46.572651,10.981030 37.477516,11.042376 
	C36.633533,11.048067 35.797565,12.241220 34.272141,12.979635 
	C32.909702,13.052620 31.547266,13.125606 29.961605,12.499011 
	C29.840189,12.607556 29.718775,12.716101 29.597361,12.824646 
	C29.754690,12.990815 29.912018,13.156984 29.342630,13.752321 
	C28.222073,13.787762 27.101515,13.823202 25.504545,13.247510 
	C21.770830,13.007844 17.834288,12.229898 15.181882,17.007555 
	C11.440628,18.154104 7.090002,18.575699 6.436506,23.864859 
	C6.436506,23.864859 5.979884,24.024586 5.204117,24.413836 
	C5.138672,35.265686 5.001288,46.118202 5.101305,56.968529 
	C5.113436,58.284557 6.405320,59.588791 7.127388,61.621410 
	C9.529023,63.646046 12.043453,65.555130 14.285291,67.743477 
	C15.427046,68.857994 16.078854,70.474434 16.314440,72.146721 
	C14.827042,74.412331 13.339643,76.677933 11.153888,78.969109 
	C8.444903,81.950920 5.735919,84.932732 3.026935,87.914543 
	C3.388820,88.281303 3.750706,88.648064 4.112591,89.014824 
	C11.021958,87.832451 15.696353,82.939941 20.587679,78.451462 
	C20.845621,78.214767 20.432899,77.247208 20.450499,76.436859 
	C20.450499,76.436859 20.635302,76.321533 21.324709,76.621193 
	C22.302290,75.290611 23.279869,73.960030 24.384100,72.372154 
z"/>
<path fill="#FCFCFC" opacity="1.000000" stroke="none" 
	d="
M30.184830,13.198590 
	C31.547266,13.125606 32.909702,13.052620 35.079639,13.017513 
	C45.949028,12.964055 56.010918,12.872718 66.072807,12.781382 
	C67.121964,12.858957 68.171127,12.936534 69.880508,13.141138 
	C71.356186,13.421106 72.171623,13.574047 73.381226,13.856637 
	C78.201065,14.950859 82.626747,15.915432 87.052429,16.880005 
	C87.820976,17.239437 88.589523,17.598867 89.744781,18.292994 
	C91.081871,19.094227 92.032242,19.560762 92.982613,20.027296 
	C93.468353,20.602062 93.954086,21.176830 94.706497,22.367489 
	C95.137329,33.221989 95.103249,43.469337 95.554138,53.695305 
	C95.761528,58.398926 94.652252,62.078674 90.688812,64.727882 
	C83.847458,66.555954 77.091553,68.884621 70.140694,70.071198 
	C63.200035,71.256042 56.064163,71.297333 48.264496,71.716660 
	C44.671661,71.364624 41.828209,71.135880 38.984753,70.907135 
	C38.548229,70.856628 38.111702,70.806122 37.029778,70.586166 
	C32.453495,70.925301 27.787296,66.691238 24.637552,72.237991 
	C24.637552,72.237991 24.384100,72.372154 24.062626,72.632370 
	C22.705868,74.035568 21.670582,75.178551 20.635300,76.321533 
	C20.635302,76.321533 20.450499,76.436859 20.102654,76.665962 
	C17.214344,78.643295 14.673878,80.391518 11.969532,81.976929 
	C11.805651,81.814125 11.458574,81.509186 11.537321,81.185547 
	C11.694794,80.222458 11.773518,79.583000 11.852243,78.943542 
	C13.339643,76.677933 14.827042,74.412331 16.984802,72.025940 
	C18.488344,70.625877 19.321522,69.346596 19.854252,68.528633 
	C15.573825,65.798523 11.798126,63.390327 7.981830,60.651245 
	C7.635914,59.547337 7.330596,58.774319 7.135264,57.543377 
	C7.133775,46.043621 7.022298,35.001781 6.910821,23.959946 
	C7.090002,18.575699 11.440628,18.154104 15.943968,16.966576 
	C19.797688,15.903279 22.889322,14.880960 25.980957,13.858643 
	C27.101515,13.823202 28.222073,13.787762 29.691494,13.494675 
	C30.040359,13.237028 30.184830,13.198590 30.184830,13.198590 
z"/>
<path fill="#4B4B4B" opacity="1.000000" stroke="none" 
	d="
M91.075256,64.811142 
	C94.652252,62.078674 95.761528,58.398926 95.554138,53.695305 
	C95.103249,43.469337 95.137329,33.221989 94.950150,22.515163 
	C95.614365,23.300125 96.880081,24.545113 96.897949,25.807762 
	C97.050262,36.569523 96.926193,47.334816 96.995766,58.098335 
	C97.021027,62.005478 95.310844,64.260727 91.075256,64.811142 
z"/>
<path fill="#444444" opacity="1.000000" stroke="none" 
	d="
M11.503065,78.956329 
	C11.773518,79.583000 11.694794,80.222458 11.381664,81.405884 
	C11.187999,82.200211 11.228738,82.450569 11.269478,82.700920 
	C11.557456,82.513863 11.845434,82.326805 12.133411,82.139740 
	C14.673878,80.391518 17.214344,78.643295 20.043604,76.757477 
	C20.432899,77.247208 20.845621,78.214767 20.587679,78.451462 
	C15.696353,82.939941 11.021958,87.832451 4.112591,89.014824 
	C3.750706,88.648064 3.388820,88.281303 3.026935,87.914543 
	C5.735919,84.932732 8.444903,81.950920 11.503065,78.956329 
z"/>
<path fill="#424242" opacity="1.000000" stroke="none" 
	d="
M65.983894,12.385246 
	C56.010918,12.872718 45.949028,12.964055 35.422508,12.969201 
	C35.797565,12.241220 36.633533,11.048067 37.477516,11.042376 
	C46.572651,10.981030 55.669174,11.097109 64.764664,11.215072 
	C65.144714,11.220001 65.518356,11.719838 65.983894,12.385246 
z"/>
<path fill="#8B8B8B" opacity="1.000000" stroke="none" 
	d="
M7.025279,58.001297 
	C7.330596,58.774319 7.635914,59.547337 7.750348,60.651165 
	C7.559464,60.981972 7.104088,60.898491 7.104088,60.898491 
	C6.405320,59.588791 5.113436,58.284557 5.101305,56.968529 
	C5.001288,46.118202 5.138672,35.265686 5.598907,24.686207 
	C5.995568,34.265453 5.946409,43.572872 6.045515,52.878716 
	C6.063735,54.589527 6.683289,56.293934 7.025279,58.001297 
z"/>
<path fill="#3D3D3D" opacity="1.000000" stroke="none" 
	d="
M7.115738,61.259949 
	C7.104088,60.898491 7.559464,60.981972 7.790946,60.982056 
	C11.798126,63.390327 15.573825,65.798523 19.854252,68.528633 
	C19.321522,69.346596 18.488344,70.625877 17.303650,71.884567 
	C16.078854,70.474434 15.427046,68.857994 14.285291,67.743477 
	C12.043453,65.555130 9.529023,63.646046 7.115738,61.259949 
z"/>
<path fill="#494949" opacity="1.000000" stroke="none" 
	d="
M7.135265,57.543377 
	C6.683289,56.293934 6.063735,54.589527 6.045515,52.878716 
	C5.946409,43.572872 5.995568,34.265453 5.986791,24.491581 
	C5.979884,24.024586 6.436506,23.864859 6.673663,23.912403 
	C7.022298,35.001781 7.133775,46.043621 7.135265,57.543377 
z"/>
<path fill="#4B4B4B" opacity="1.000000" stroke="none" 
	d="
M86.977638,16.526131 
	C82.626747,15.915432 78.201065,14.950859 73.378021,13.587124 
	C72.993401,12.829350 73.006149,12.470739 73.018898,12.112127 
	C77.646881,13.465505 82.274864,14.818881 86.977638,16.526131 
z"/>
<path fill="#444444" opacity="1.000000" stroke="none" 
	d="
M24.992167,72.411606 
	C27.787296,66.691238 32.453495,70.925301 36.702408,70.631622 
	C35.655380,71.170235 34.305470,71.605415 32.921974,71.793320 
	C30.407442,72.134834 27.872946,72.329353 24.992167,72.411606 
z"/>
<path fill="#4F4F4F" opacity="1.000000" stroke="none" 
	d="
M25.742752,13.553076 
	C22.889322,14.880960 19.797688,15.903279 16.319668,16.889812 
	C17.834288,12.229898 21.770830,13.007844 25.742752,13.553076 
z"/>
<path fill="#444444" opacity="1.000000" stroke="none" 
	d="
M39.297470,71.173538 
	C41.828209,71.135880 44.671661,71.364624 47.807220,71.761658 
	C45.269608,71.766609 42.439899,71.603271 39.297470,71.173538 
z"/>
<path fill="#444444" opacity="1.000000" stroke="none" 
	d="
M20.980003,76.471359 
	C21.670582,75.178551 22.705868,74.035568 23.999300,72.761017 
	C23.279869,73.960030 22.302290,75.290611 20.980003,76.471359 
z"/>
<path fill="#4B4B4B" opacity="1.000000" stroke="none" 
	d="
M92.991798,19.688786 
	C92.032242,19.560762 91.081871,19.094227 90.066231,18.310638 
	C91.000969,18.445814 92.000977,18.898045 92.991798,19.688786 
z"/>
<path fill="#424242" opacity="1.000000" stroke="none" 
	d="
M72.687714,12.091215 
	C73.006149,12.470739 72.993401,12.829350 72.983856,13.457476 
	C72.171623,13.574047 71.356186,13.421106 70.273849,13.103576 
	C70.790146,12.649425 71.573341,12.359863 72.687714,12.091215 
z"/>
<path fill="#4F4F4F" opacity="1.000000" stroke="none" 
	d="
M30.073217,12.848801 
	C30.184830,13.198590 30.040359,13.237028 30.054852,13.280090 
	C29.912018,13.156984 29.754690,12.990815 29.597361,12.824646 
	C29.718775,12.716101 29.840189,12.607556 30.073217,12.848801 
z"/>
<path fill="#FCFCFC" opacity="1.000000" stroke="none" 
	d="
M11.969531,81.976929 
	C11.845434,82.326805 11.557456,82.513863 11.269478,82.700920 
	C11.228738,82.450569 11.187999,82.200211 11.302917,81.729523 
	C11.458574,81.509186 11.805651,81.814125 11.969531,81.976929 
z"/>
</svg>