<svg version="1.1" id="Layer_1" xmlns="http://www.w3.org/2000/svg" xmlns:xlink="http://www.w3.org/1999/xlink" x="0px" y="0px"
	 width="100%" viewBox="0 0 100 100" enable-background="new 0 0 100 100" xml:space="preserve">
<path fill="#000000" opacity="1.000000" stroke="none" 
	d="
M58.000000,101.000000 
	C38.666672,101.000000 19.833340,101.000000 1.000008,101.000000 
	C1.000005,67.666679 1.000005,34.333351 1.000003,1.000021 
	C34.333317,1.000014 67.666634,1.000014 100.999969,1.000007 
	C100.999977,34.333313 100.999977,67.666626 100.999985,100.999969 
	C86.833336,101.000000 72.666664,101.000000 58.000000,101.000000 
M80.889946,76.062340 
	C78.615097,73.019547 76.340256,69.976746 73.766289,66.334351 
	C67.886360,61.010700 62.006428,55.687046 55.978062,50.229004 
	C58.836910,43.505024 60.070572,36.693562 55.750645,29.281137 
	C51.623295,24.410385 46.070614,22.689342 39.204292,22.014688 
	C34.714108,23.514088 29.545378,23.914877 27.787399,29.621243 
	C27.014273,32.130798 25.884783,34.530567 24.190519,37.362865 
	C23.657633,46.346462 26.469770,51.574982 33.460041,53.962337 
	C33.460041,53.962337 33.895634,54.062714 34.213009,54.761986 
	C38.193024,58.284695 45.217319,57.906078 51.507111,53.984497 
	C51.973202,53.703861 52.439297,53.423222 52.930759,53.885094 
	C53.560024,55.350948 53.854923,57.124329 54.873653,58.231987 
	C60.803574,64.679520 66.903473,70.970734 73.334404,77.857018 
	C76.327408,80.997734 78.869072,81.001595 80.889946,76.062340 
z"/>
<path fill="#DADADA" opacity="1.000000" stroke="none" 
	d="
M39.984711,22.146622 
	C46.070614,22.689342 51.623295,24.410385 55.519188,29.712538 
	C54.862839,30.097837 54.437950,30.051735 53.872246,29.901983 
	C53.524940,29.780619 53.318459,29.762903 53.111973,29.745190 
	C53.426903,29.815504 53.741837,29.885820 54.101009,30.329445 
	C54.305367,31.680452 54.465477,32.658154 54.243958,33.744926 
	C49.655628,37.852497 45.001534,41.499653 41.454609,46.016270 
	C39.961311,47.917828 39.103813,49.066017 36.716602,49.062336 
	C35.453892,49.060387 34.190231,49.671196 32.588203,49.946400 
	C28.047260,47.454941 26.782103,43.595173 27.265162,38.861176 
	C29.295006,37.425823 30.929361,35.967941 32.803879,34.954094 
	C34.110111,34.247601 36.159168,34.602364 37.154064,33.692883 
	C39.785934,31.286968 42.025097,28.451468 44.506104,25.691774 
	C42.972958,25.384319 40.987629,24.986183 39.019135,24.591425 
	C39.391533,23.648518 39.688122,22.897570 39.984711,22.146622 
M36.491550,47.168339 
	C36.822872,47.105019 37.154190,47.041698 37.485512,46.978374 
	C37.156178,46.903542 36.826843,46.828712 36.491550,47.168339 
M50.474903,27.486465 
	C50.474903,27.486465 50.510937,27.504753 50.474903,27.486465 
z"/>
<path fill="#E8E8E8" opacity="1.000000" stroke="none" 
	d="
M32.927002,50.005367 
	C34.190231,49.671196 35.453892,49.060387 36.716602,49.062336 
	C39.103813,49.066017 39.961311,47.917828 41.454609,46.016270 
	C45.001534,41.499653 49.655628,37.852497 54.434151,33.996910 
	C55.178020,34.742012 55.350056,35.344204 55.186768,35.986954 
	C54.454231,36.390804 54.057011,36.754101 53.659794,37.117397 
	C54.434204,37.412865 55.208611,37.708328 56.040337,38.398537 
	C54.397259,42.861259 52.696869,46.929245 50.647781,51.112225 
	C44.831268,52.172382 39.363453,53.117546 33.895634,54.062714 
	C33.895634,54.062714 33.460041,53.962337 33.248810,53.506958 
	C33.000717,52.036175 32.963860,51.020771 32.927002,50.005367 
z"/>
<path fill="#EDEDED" opacity="1.000000" stroke="none" 
	d="
M39.594501,22.080654 
	C39.688122,22.897570 39.391533,23.648518 39.019135,24.591425 
	C40.987629,24.986183 42.972958,25.384319 44.506104,25.691774 
	C42.025097,28.451468 39.785934,31.286968 37.154064,33.692883 
	C36.159168,34.602364 34.110111,34.247601 32.803879,34.954094 
	C30.929361,35.967941 29.295006,37.425823 27.030334,38.682610 
	C25.974062,38.107445 25.445578,37.543812 24.917095,36.980183 
	C25.884783,34.530567 27.014273,32.130798 27.787399,29.621243 
	C29.545378,23.914877 34.714108,23.514088 39.594501,22.080654 
z"/>
<path fill="#888888" opacity="1.000000" stroke="none" 
	d="
M55.522087,35.946392 
	C55.350056,35.344204 55.178020,34.742012 54.815788,33.887840 
	C54.465477,32.658154 54.305367,31.680452 54.086498,30.339859 
	C54.027744,29.976967 54.013062,30.005634 54.013062,30.005634 
	C54.437950,30.051735 54.862839,30.097837 55.595123,30.046139 
	C60.070572,36.693562 58.836910,43.505024 55.978062,50.229004 
	C62.006428,55.687046 67.886360,61.010700 73.863297,67.022430 
	C73.978493,68.493942 73.996674,69.277367 73.672089,70.005386 
	C69.554504,66.083221 66.003906,61.956001 61.923874,58.443798 
	C59.323505,56.205330 55.938553,54.878288 52.905392,53.142586 
	C52.439297,53.423222 51.973202,53.703861 51.256653,53.565018 
	C51.002953,52.429440 50.999718,51.713333 50.996483,50.997231 
	C52.696869,46.929245 54.397259,42.861259 56.092949,38.124092 
	C55.899525,36.952072 55.710804,36.449234 55.522087,35.946392 
z"/>
<path fill="#383838" opacity="1.000000" stroke="none" 
	d="
M52.918076,53.513840 
	C55.938553,54.878288 59.323505,56.205330 61.923874,58.443798 
	C66.003906,61.956001 69.554504,66.083221 73.780708,70.256424 
	C74.488403,71.046471 74.744713,71.530075 74.855682,72.331772 
	C74.122208,74.204834 73.534073,75.759804 72.945938,77.314766 
	C66.903473,70.970734 60.803574,64.679520 54.873653,58.231987 
	C53.854923,57.124329 53.560024,55.350948 52.918076,53.513840 
z"/>
<path fill="#C5C5C5" opacity="1.000000" stroke="none" 
	d="
M24.553806,37.171524 
	C25.445578,37.543812 25.974062,38.107445 26.737373,38.849640 
	C26.782103,43.595173 28.047260,47.454941 32.588203,49.946400 
	C32.963860,51.020771 33.000717,52.036175 33.038036,53.432602 
	C26.469770,51.574982 23.657633,46.346462 24.553806,37.171524 
z"/>
<path fill="#B8B8B8" opacity="1.000000" stroke="none" 
	d="
M50.647785,51.112225 
	C50.999718,51.713333 51.002953,52.429440 50.978485,53.502674 
	C45.217319,57.906078 38.193024,58.284695 34.054321,54.412350 
	C39.363453,53.117546 44.831268,52.172382 50.647785,51.112225 
z"/>
<path fill="#272727" opacity="1.000000" stroke="none" 
	d="
M73.140167,77.585892 
	C73.534073,75.759804 74.122208,74.204834 75.112320,72.527313 
	C77.277229,73.863968 79.040169,75.323181 80.803108,76.782394 
	C78.869072,81.001595 76.327408,80.997734 73.140167,77.585892 
z"/>
<path fill="#525252" opacity="1.000000" stroke="none" 
	d="
M80.846527,76.422363 
	C79.040169,75.323181 77.277229,73.863968 75.257660,72.209213 
	C74.744713,71.530075 74.488403,71.046471 74.123474,70.311829 
	C73.996674,69.277367 73.978493,68.493942 74.012863,67.322235 
	C76.340256,69.976746 78.615097,73.019547 80.846527,76.422363 
z"/>
<path fill="#E8E8E8" opacity="1.000000" stroke="none" 
	d="
M36.494530,46.961109 
	C36.826843,46.828712 37.156178,46.903542 37.485512,46.978378 
	C37.154190,47.041698 36.822872,47.105019 36.494530,46.961109 
z"/>
<path fill="#888888" opacity="1.000000" stroke="none" 
	d="
M54.042255,29.966553 
	C53.741837,29.885820 53.426903,29.815504 53.111973,29.745190 
	C53.318459,29.762903 53.524940,29.780619 53.872246,29.901985 
	C54.013062,30.005634 54.027744,29.976967 54.042255,29.966553 
z"/>
<path fill="#888888" opacity="1.000000" stroke="none" 
	d="
M50.492920,27.495609 
	C50.510937,27.504753 50.474903,27.486465 50.492920,27.495609 
z"/>
<path fill="#DADADA" opacity="1.000000" stroke="none" 
	d="
M55.186768,35.986954 
	C55.710804,36.449234 55.899525,36.952072 56.035633,37.729355 
	C55.208611,37.708328 54.434204,37.412865 53.659794,37.117397 
	C54.057011,36.754101 54.454231,36.390804 55.186768,35.986954 
z"/>
</svg>