<svg version="1.1" id="Layer_1" xmlns="http://www.w3.org/2000/svg" xmlns:xlink="http://www.w3.org/1999/xlink" x="0px" y="0px"
	 width="100%" viewBox="0 0 300 300" enable-background="new 0 0 300 300" xml:space="preserve">
<path fill="#000000" opacity="1.000000" stroke="none" 
	d="
M175.000000,301.000000 
	C116.666679,301.000000 58.833355,301.000000 1.000023,301.000000 
	C1.000015,201.000031 1.000015,101.000053 1.000008,1.000064 
	C100.999947,1.000042 200.999893,1.000042 300.999878,1.000021 
	C300.999939,100.999939 300.999939,200.999878 300.999969,300.999908 
	C259.166656,301.000000 217.333328,301.000000 175.000000,301.000000 
M285.995789,119.950378 
	C285.896912,118.379898 285.798035,116.809418 285.710388,115.417534 
	C195.195786,115.417534 105.212624,115.417534 15.016663,115.417534 
	C15.016663,117.492653 15.016663,119.150879 14.317358,121.090248 
	C14.554727,122.129845 14.792095,123.169449 15.014580,125.120041 
	C15.020722,144.674500 15.026865,164.228973 14.315961,184.062531 
	C14.555929,185.115250 14.795898,186.167984 15.008438,188.075348 
	C15.008438,189.542648 15.008438,191.009949 15.008438,192.596649 
	C105.526360,192.596649 195.645065,192.596649 285.964233,192.596649 
	C285.964233,190.535980 285.964233,188.878494 286.771729,187.098022 
	C287.204193,186.430130 287.636627,185.762253 288.069092,185.094345 
	C287.368561,184.657257 286.668030,184.220169 285.986603,182.873138 
	C285.981903,163.318222 285.977234,143.763306 286.766510,124.071587 
	C287.192169,123.415962 287.617828,122.760338 288.043518,122.104729 
	C287.356628,121.672729 286.669769,121.240738 285.995789,119.950378 
z"/>
<path fill="#C5252B" opacity="1.000000" stroke="none" 
	d="
M15.033008,183.783432 
	C15.026865,164.228973 15.020722,144.674500 15.480976,124.580719 
	C105.129326,124.023033 194.311279,124.004059 283.493225,123.995499 
	C284.319672,123.995422 285.146088,124.134361 285.972534,124.208405 
	C285.977234,143.763306 285.981903,163.318222 285.523956,183.442413 
	C284.064758,184.054871 283.068237,184.135742 282.071686,184.135818 
	C194.545105,184.141891 107.018532,184.143524 19.491961,184.127136 
	C18.005623,184.126862 16.519325,183.902969 15.033008,183.783432 
M71.974297,166.456024 
	C71.974297,169.241074 71.974297,172.026123 71.974297,174.862640 
	C74.218826,174.862640 75.927917,174.862640 78.177704,174.862640 
	C78.177704,166.100220 78.177704,157.682114 78.177704,149.263992 
	C80.877457,156.235550 83.274025,163.153336 84.619347,170.269867 
	C85.657898,175.763687 88.459213,175.799576 92.481796,174.784698 
	C92.481796,160.739456 92.481796,147.042648 92.481796,133.075989 
	C90.479355,133.176712 88.892067,133.256561 86.936218,133.354950 
	C86.936218,140.575912 86.936218,147.456070 86.936218,154.336243 
	C84.630859,149.446045 83.285843,144.397675 81.917732,139.355576 
	C80.031418,132.403671 80.023956,132.405701 71.974297,133.722198 
	C71.974297,144.248352 71.974297,154.856384 71.974297,166.456024 
M181.895706,173.192551 
	C181.895706,165.599838 181.895706,158.007141 181.895706,150.414429 
	C182.369949,150.386810 182.844193,150.359207 183.318436,150.331589 
	C185.095245,156.838303 187.227066,163.274826 188.532364,169.874786 
	C189.511215,174.824020 191.817657,176.268738 196.552856,174.777771 
	C196.552856,160.993881 196.552856,147.156525 196.552856,133.055252 
	C194.550674,133.176865 192.964920,133.273178 190.862762,133.400864 
	C190.862762,140.512817 190.862762,147.299271 190.862762,154.085739 
	C188.608826,149.248108 187.229599,144.345581 185.927261,139.422714 
	C184.097977,132.508057 184.122406,132.501587 176.186478,133.612335 
	C176.186478,147.289917 176.186478,161.006027 176.186478,175.592728 
	C178.310318,175.040436 180.053055,174.587250 181.895706,173.192551 
M149.866211,142.125229 
	C148.751144,134.392227 145.256180,131.781525 129.798523,133.666168 
	C129.798523,147.306717 129.798523,160.984375 129.798523,175.216476 
	C132.951614,175.216476 135.892593,175.254715 138.832275,175.209122 
	C146.766113,175.086075 149.836075,172.009735 149.924606,163.924988 
	C150.000931,156.954315 149.928574,149.982010 149.866211,142.125229 
M60.008728,132.952515 
	C50.869968,132.665680 47.901218,135.422668 47.830132,144.401962 
	C47.776218,151.211472 47.751190,158.022705 47.840824,164.831497 
	C47.935406,172.015732 51.055462,175.530365 57.289513,175.730286 
	C63.750820,175.937500 67.625557,172.287628 67.845161,165.228333 
	C68.072289,157.927216 68.038940,150.609772 67.845818,143.306702 
	C67.719627,138.534561 66.045555,134.508286 60.008728,132.952515 
M232.962646,174.442581 
	C234.781387,174.732574 236.600128,175.022568 238.430710,175.314453 
	C239.048767,172.388840 239.513168,170.190536 239.955368,168.097427 
	C242.848633,168.097427 245.275040,168.097427 247.575089,168.097427 
	C248.191299,170.610870 248.729935,172.807892 249.254761,174.948608 
	C251.423126,174.948608 253.178467,174.948608 255.568665,174.948608 
	C253.336197,160.889160 251.161194,147.191528 248.976852,133.435150 
	C245.570557,133.435150 242.494385,133.435150 239.213013,133.435150 
	C237.082779,146.987701 234.996689,160.259491 232.962646,174.442581 
M26.038754,136.931122 
	C25.754854,147.818451 25.053658,158.718887 25.394577,169.586609 
	C25.528994,173.871475 30.419889,176.139954 35.435104,175.709381 
	C40.167477,175.303085 43.241531,172.808441 43.947666,168.097931 
	C44.352760,165.395599 44.021065,162.582809 44.021065,159.820984 
	C41.750843,159.820984 40.021423,159.820984 37.984783,159.820984 
	C37.984783,162.168686 38.425354,164.297653 37.843384,166.095612 
	C37.389565,167.497696 35.825657,169.011688 34.435856,169.439835 
	C33.745747,169.652451 31.434414,167.564331 31.398754,166.466934 
	C31.134144,158.324081 31.136623,150.164688 31.402821,142.021851 
	C31.438253,140.938034 33.712822,138.888153 34.453911,139.091873 
	C35.824284,139.468582 37.223740,140.998627 37.869717,142.391968 
	C38.496895,143.744736 38.193672,145.528839 38.299751,147.134384 
	C40.424923,147.134384 42.159275,147.134384 43.979336,147.134384 
	C44.303429,141.743912 44.918175,136.409363 39.199356,133.848495 
	C34.657719,131.814758 30.096178,132.140137 26.038754,136.931122 
M160.589584,144.570099 
	C160.669235,142.956299 160.748886,141.342514 160.839264,139.511307 
	C164.780579,139.310318 168.329636,139.129318 172.045914,138.939789 
	C171.917389,136.764099 171.822357,135.155426 171.722931,133.472260 
	C165.693207,133.472260 159.978256,133.472260 154.401611,133.472260 
	C154.401611,147.568649 154.401611,161.290527 154.401611,174.924866 
	C160.415726,174.924866 166.015015,174.924866 171.970459,174.924866 
	C171.876984,172.878052 171.798843,171.166977 171.698502,168.969727 
	C167.783783,168.969727 164.366348,168.969727 160.936981,168.969727 
	C160.936981,164.717651 160.936981,160.987518 160.936981,156.743439 
	C164.022552,156.743439 166.764725,156.743439 169.531555,156.743439 
	C169.531555,154.621918 169.531555,153.032898 169.531555,151.199524 
	C166.521164,151.047531 163.767090,150.908493 160.589386,150.748047 
	C160.589386,148.784515 160.589386,147.153397 160.589584,144.570099 
M97.662643,136.664856 
	C97.662643,149.422668 97.662643,162.180481 97.662643,174.911194 
	C100.175888,174.911194 101.921669,174.911194 104.137070,174.911194 
	C104.137070,169.207901 104.137070,163.785248 104.137070,158.231033 
	C107.186012,158.072342 109.769371,157.937881 112.294617,157.806442 
	C112.294617,155.672562 112.294617,153.956085 112.294617,151.944702 
	C109.447098,151.944702 106.990921,151.944702 104.410339,151.944702 
	C104.410339,147.602936 104.410339,143.568695 104.410339,139.091934 
	C108.036469,139.091934 111.298874,139.091934 114.628159,139.091934 
	C114.628159,136.914536 114.628159,135.201538 114.628159,133.132477 
	C109.661583,133.132477 105.013390,132.991959 100.387253,133.248734 
	C99.440117,133.301315 98.575623,134.842728 97.662643,136.664856 
M212.353683,175.025269 
	C212.593002,172.434097 213.015106,169.844604 213.038712,167.251465 
	C213.122894,158.007217 213.071625,148.761719 213.071625,139.420120 
	C215.719437,139.259232 217.653717,139.141678 219.696899,139.017517 
	C219.696899,136.988403 219.696899,135.262131 219.696899,133.419312 
	C213.003098,133.419312 206.598938,133.419312 200.142548,133.419312 
	C200.142548,135.454300 200.142548,137.193756 200.142548,138.958618 
	C202.381363,139.163727 204.305466,139.340012 206.655579,139.555313 
	C206.655579,151.419113 206.655579,162.996704 206.655579,174.904739 
	C208.527176,175.012344 209.962753,175.094879 212.353683,175.025269 
M276.105469,171.679565 
	C275.020142,170.846771 274.019409,169.482330 272.831635,169.293320 
	C270.456482,168.915298 267.978912,169.181168 264.971924,169.181168 
	C264.971924,156.826492 264.971924,145.101746 264.971924,133.460205 
	C262.639557,133.460205 260.907013,133.460205 259.212158,133.460205 
	C259.212158,147.515625 259.212158,161.237167 259.212158,175.206757 
	C264.058014,175.206757 268.549072,175.370911 273.011841,175.088287 
	C274.091675,175.019897 275.078064,173.476151 276.105469,171.679565 
M229.618958,156.499191 
	C229.618958,148.775711 229.618958,141.052216 229.618958,133.308197 
	C226.991119,133.308197 225.218536,133.308197 223.256973,133.308197 
	C223.256973,147.358307 223.256973,161.189178 223.256973,175.031815 
	C225.428421,175.031815 227.223434,175.031815 229.618927,175.031815 
	C229.618927,169.052689 229.618927,163.275467 229.618958,156.499191 
M118.018204,156.499451 
	C118.018204,162.596771 118.018204,168.694092 118.018204,174.813202 
	C120.528992,174.813202 122.541809,174.813202 124.498756,174.813202 
	C124.498756,160.718155 124.498756,147.044891 124.498756,133.405701 
	C122.217316,133.405701 120.308022,133.405701 118.018211,133.405701 
	C118.018211,140.965851 118.018211,148.232742 118.018204,156.499451 
z"/>
<path fill="#C31F25" opacity="1.000000" stroke="none" 
	d="
M285.964233,187.221008 
	C285.964233,188.878494 285.964233,190.535980 285.964233,192.596649 
	C195.645065,192.596649 105.526360,192.596649 15.008438,192.596649 
	C15.008438,191.009949 15.008438,189.542648 15.474535,187.530609 
	C16.937002,186.940735 17.933367,186.856186 18.929741,186.856110 
	C106.455696,186.849701 193.981644,186.847992 281.507599,186.864914 
	C282.993164,186.865204 284.478699,187.097153 285.964233,187.221008 
z"/>
<path fill="#C31F25" opacity="1.000000" stroke="none" 
	d="
M15.016663,120.809097 
	C15.016663,119.150879 15.016663,117.492653 15.016663,115.417534 
	C105.212624,115.417534 195.195786,115.417534 285.710388,115.417534 
	C285.798035,116.809418 285.896912,118.379898 285.536804,120.502960 
	C284.247589,121.097038 283.417297,121.174843 282.587036,121.174904 
	C194.881866,121.181427 107.176704,121.183945 19.471544,121.167557 
	C17.986561,121.167282 16.501623,120.933769 15.016663,120.809097 
z"/>
<path fill="#ECB9BB" opacity="1.000000" stroke="none" 
	d="
M286.367981,187.159515 
	C284.478699,187.097153 282.993164,186.865204 281.507599,186.864914 
	C193.981644,186.847992 106.455696,186.849701 18.929741,186.856110 
	C17.933367,186.856186 16.937002,186.940735 15.488251,187.103271 
	C14.795898,186.167984 14.555929,185.115250 14.674484,183.922974 
	C16.519325,183.902969 18.005623,184.126862 19.491961,184.127136 
	C107.018532,184.143524 194.545105,184.141891 282.071686,184.135818 
	C283.068237,184.135742 284.064758,184.054871 285.514404,183.897400 
	C286.668030,184.220169 287.368561,184.657257 288.069092,185.094360 
	C287.636627,185.762253 287.204193,186.430130 286.367981,187.159515 
z"/>
<path fill="#F2CFD0" opacity="1.000000" stroke="none" 
	d="
M14.667011,120.949677 
	C16.501623,120.933769 17.986561,121.167282 19.471544,121.167557 
	C107.176704,121.183945 194.881866,121.181427 282.587036,121.174904 
	C283.417297,121.174843 284.247589,121.097038 285.530365,120.932137 
	C286.669769,121.240738 287.356628,121.672729 288.043518,122.104721 
	C287.617828,122.760338 287.192169,123.415962 286.369507,124.139999 
	C285.146088,124.134361 284.319672,123.995422 283.493225,123.995499 
	C194.311279,124.004059 105.129326,124.023033 15.488418,124.125229 
	C14.792095,123.169449 14.554727,122.129845 14.667011,120.949677 
z"/>
<path fill="#FCF5F5" opacity="1.000000" stroke="none" 
	d="
M71.974297,165.960220 
	C71.974297,154.856384 71.974297,144.248352 71.974297,133.722198 
	C80.023956,132.405701 80.031418,132.403671 81.917732,139.355576 
	C83.285843,144.397675 84.630859,149.446045 86.936218,154.336243 
	C86.936218,147.456070 86.936218,140.575912 86.936218,133.354950 
	C88.892067,133.256561 90.479355,133.176712 92.481796,133.075989 
	C92.481796,147.042648 92.481796,160.739456 92.481796,174.784698 
	C88.459213,175.799576 85.657898,175.763687 84.619347,170.269867 
	C83.274025,163.153336 80.877457,156.235550 78.177704,149.263992 
	C78.177704,157.682114 78.177704,166.100220 78.177704,174.862640 
	C75.927917,174.862640 74.218826,174.862640 71.974297,174.862640 
	C71.974297,172.026123 71.974297,169.241074 71.974297,165.960220 
z"/>
<path fill="#FCF5F6" opacity="1.000000" stroke="none" 
	d="
M181.845764,173.663300 
	C180.053055,174.587250 178.310318,175.040436 176.186478,175.592728 
	C176.186478,161.006027 176.186478,147.289917 176.186478,133.612335 
	C184.122406,132.501587 184.097977,132.508057 185.927261,139.422714 
	C187.229599,144.345581 188.608826,149.248108 190.862762,154.085739 
	C190.862762,147.299271 190.862762,140.512817 190.862762,133.400864 
	C192.964920,133.273178 194.550674,133.176865 196.552856,133.055252 
	C196.552856,147.156525 196.552856,160.993881 196.552856,174.777771 
	C191.817657,176.268738 189.511215,174.824020 188.532364,169.874786 
	C187.227066,163.274826 185.095245,156.838303 183.318436,150.331589 
	C182.844193,150.359207 182.369949,150.386810 181.895706,150.414429 
	C181.895706,158.007141 181.895706,165.599838 181.845764,173.663300 
z"/>
<path fill="#FDF7F8" opacity="1.000000" stroke="none" 
	d="
M149.894073,142.567841 
	C149.928574,149.982010 150.000931,156.954315 149.924606,163.924988 
	C149.836075,172.009735 146.766113,175.086075 138.832275,175.209122 
	C135.892593,175.254715 132.951614,175.216476 129.798523,175.216476 
	C129.798523,160.984375 129.798523,147.306717 129.798523,133.666168 
	C145.256180,131.781525 148.751144,134.392227 149.894073,142.567841 
M136.081238,141.989334 
	C136.081238,150.925323 136.081238,159.861298 136.081238,169.303314 
	C139.232147,168.803238 142.862335,170.380264 143.016312,165.879349 
	C143.283249,158.077225 143.184982,150.256287 142.962006,142.451157 
	C142.931519,141.383347 141.382156,139.600891 140.399429,139.501648 
	C139.034958,139.363831 137.541306,140.504944 136.081238,141.989334 
z"/>
<path fill="#FDF6F6" opacity="1.000000" stroke="none" 
	d="
M60.417763,133.014923 
	C66.045555,134.508286 67.719627,138.534561 67.845818,143.306702 
	C68.038940,150.609772 68.072289,157.927216 67.845161,165.228333 
	C67.625557,172.287628 63.750820,175.937500 57.289513,175.730286 
	C51.055462,175.530365 47.935406,172.015732 47.840824,164.831497 
	C47.751190,158.022705 47.776218,151.211472 47.830132,144.401962 
	C47.901218,135.422668 50.869968,132.665680 60.417763,133.014923 
M59.821098,168.940369 
	C60.240753,167.571930 60.999722,166.209259 61.023151,164.834061 
	C61.144642,157.702820 61.269573,150.559219 60.928375,143.442215 
	C60.853306,141.876373 58.890804,140.401047 57.797466,138.884033 
	C56.582382,140.346878 54.394436,141.760529 54.317593,143.280899 
	C53.949608,150.561386 54.053036,157.872849 54.202858,165.168900 
	C54.263447,168.119492 55.335613,170.507217 59.821098,168.940369 
z"/>
<path fill="#FDF6F6" opacity="1.000000" stroke="none" 
	d="
M232.936615,173.986938 
	C234.996689,160.259491 237.082779,146.987701 239.213013,133.435150 
	C242.494385,133.435150 245.570557,133.435150 248.976852,133.435150 
	C251.161194,147.191528 253.336197,160.889160 255.568665,174.948608 
	C253.178467,174.948608 251.423126,174.948608 249.254761,174.948608 
	C248.729935,172.807892 248.191299,170.610870 247.575089,168.097427 
	C245.275040,168.097427 242.848633,168.097427 239.955368,168.097427 
	C239.513168,170.190536 239.048767,172.388840 238.430710,175.314453 
	C236.600128,175.022568 234.781387,174.732574 232.936615,173.986938 
M240.919067,160.315842 
	C242.719345,160.984604 244.519638,161.653351 247.306763,162.688690 
	C246.062897,156.236206 245.107590,151.280640 244.152283,146.325073 
	C243.767761,146.339462 243.383224,146.353867 242.998688,146.368256 
	C242.315216,150.724533 241.631729,155.080795 240.919067,160.315842 
z"/>
<path fill="#FDF7F7" opacity="1.000000" stroke="none" 
	d="
M26.258472,136.585022 
	C30.096178,132.140137 34.657719,131.814758 39.199356,133.848495 
	C44.918175,136.409363 44.303429,141.743912 43.979336,147.134384 
	C42.159275,147.134384 40.424923,147.134384 38.299751,147.134384 
	C38.193672,145.528839 38.496895,143.744736 37.869717,142.391968 
	C37.223740,140.998627 35.824284,139.468582 34.453911,139.091873 
	C33.712822,138.888153 31.438253,140.938034 31.402821,142.021851 
	C31.136623,150.164688 31.134144,158.324081 31.398754,166.466934 
	C31.434414,167.564331 33.745747,169.652451 34.435856,169.439835 
	C35.825657,169.011688 37.389565,167.497696 37.843384,166.095612 
	C38.425354,164.297653 37.984783,162.168686 37.984783,159.820984 
	C40.021423,159.820984 41.750843,159.820984 44.021065,159.820984 
	C44.021065,162.582809 44.352760,165.395599 43.947666,168.097931 
	C43.241531,172.808441 40.167477,175.303085 35.435104,175.709381 
	C30.419889,176.139954 25.528994,173.871475 25.394577,169.586609 
	C25.053658,158.718887 25.754854,147.818451 26.258472,136.585022 
z"/>
<path fill="#FBF2F2" opacity="1.000000" stroke="none" 
	d="
M160.589478,145.046188 
	C160.589386,147.153397 160.589386,148.784515 160.589386,150.748047 
	C163.767090,150.908493 166.521164,151.047531 169.531555,151.199524 
	C169.531555,153.032898 169.531555,154.621918 169.531555,156.743439 
	C166.764725,156.743439 164.022552,156.743439 160.936981,156.743439 
	C160.936981,160.987518 160.936981,164.717651 160.936981,168.969727 
	C164.366348,168.969727 167.783783,168.969727 171.698502,168.969727 
	C171.798843,171.166977 171.876984,172.878052 171.970459,174.924866 
	C166.015015,174.924866 160.415726,174.924866 154.401611,174.924866 
	C154.401611,161.290527 154.401611,147.568649 154.401611,133.472260 
	C159.978256,133.472260 165.693207,133.472260 171.722931,133.472260 
	C171.822357,135.155426 171.917389,136.764099 172.045914,138.939789 
	C168.329636,139.129318 164.780579,139.310318 160.839264,139.511307 
	C160.748886,141.342514 160.669235,142.956299 160.589478,145.046188 
z"/>
<path fill="#FEFAFA" opacity="1.000000" stroke="none" 
	d="
M97.667839,136.181366 
	C98.575623,134.842728 99.440117,133.301315 100.387253,133.248734 
	C105.013390,132.991959 109.661583,133.132477 114.628159,133.132477 
	C114.628159,135.201538 114.628159,136.914536 114.628159,139.091934 
	C111.298874,139.091934 108.036469,139.091934 104.410339,139.091934 
	C104.410339,143.568695 104.410339,147.602936 104.410339,151.944702 
	C106.990921,151.944702 109.447098,151.944702 112.294617,151.944702 
	C112.294617,153.956085 112.294617,155.672562 112.294617,157.806442 
	C109.769371,157.937881 107.186012,158.072342 104.137070,158.231033 
	C104.137070,163.785248 104.137070,169.207901 104.137070,174.911194 
	C101.921669,174.911194 100.175888,174.911194 97.662643,174.911194 
	C97.662643,162.180481 97.662643,149.422668 97.667839,136.181366 
z"/>
<path fill="#FEFBFB" opacity="1.000000" stroke="none" 
	d="
M211.876007,175.101349 
	C209.962753,175.094879 208.527176,175.012344 206.655579,174.904739 
	C206.655579,162.996704 206.655579,151.419113 206.655579,139.555313 
	C204.305466,139.340012 202.381363,139.163727 200.142548,138.958618 
	C200.142548,137.193756 200.142548,135.454300 200.142548,133.419312 
	C206.598938,133.419312 213.003098,133.419312 219.696899,133.419312 
	C219.696899,135.262131 219.696899,136.988403 219.696899,139.017517 
	C217.653717,139.141678 215.719437,139.259232 213.071625,139.420120 
	C213.071625,148.761719 213.122894,158.007217 213.038712,167.251465 
	C213.015106,169.844604 212.593002,172.434097 211.876007,175.101349 
z"/>
<path fill="#FEFAFA" opacity="1.000000" stroke="none" 
	d="
M276.106445,172.145203 
	C275.078064,173.476151 274.091675,175.019897 273.011841,175.088287 
	C268.549072,175.370911 264.058014,175.206757 259.212158,175.206757 
	C259.212158,161.237167 259.212158,147.515625 259.212158,133.460205 
	C260.907013,133.460205 262.639557,133.460205 264.971924,133.460205 
	C264.971924,145.101746 264.971924,156.826492 264.971924,169.181168 
	C267.978912,169.181168 270.456482,168.915298 272.831635,169.293320 
	C274.019409,169.482330 275.020142,170.846771 276.106445,172.145203 
z"/>
<path fill="#FAEDEE" opacity="1.000000" stroke="none" 
	d="
M229.618942,156.998718 
	C229.618927,163.275467 229.618927,169.052689 229.618927,175.031815 
	C227.223434,175.031815 225.428421,175.031815 223.256973,175.031815 
	C223.256973,161.189178 223.256973,147.358307 223.256973,133.308197 
	C225.218536,133.308197 226.991119,133.308197 229.618958,133.308197 
	C229.618958,141.052216 229.618958,148.775711 229.618942,156.998718 
z"/>
<path fill="#FCF3F4" opacity="1.000000" stroke="none" 
	d="
M118.018204,155.999542 
	C118.018211,148.232742 118.018211,140.965851 118.018211,133.405701 
	C120.308022,133.405701 122.217316,133.405701 124.498756,133.405701 
	C124.498756,147.044891 124.498756,160.718155 124.498756,174.813202 
	C122.541809,174.813202 120.528992,174.813202 118.018204,174.813202 
	C118.018204,168.694092 118.018204,162.596771 118.018204,155.999542 
z"/>
<path fill="#C6292F" opacity="1.000000" stroke="none" 
	d="
M136.092102,141.543930 
	C137.541306,140.504944 139.034958,139.363831 140.399429,139.501648 
	C141.382156,139.600891 142.931519,141.383347 142.962006,142.451157 
	C143.184982,150.256287 143.283249,158.077225 143.016312,165.879349 
	C142.862335,170.380264 139.232147,168.803238 136.081238,169.303314 
	C136.081238,159.861298 136.081238,150.925323 136.092102,141.543930 
z"/>
<path fill="#C62B31" opacity="1.000000" stroke="none" 
	d="
M59.477909,169.161667 
	C55.335613,170.507217 54.263447,168.119492 54.202858,165.168900 
	C54.053036,157.872849 53.949608,150.561386 54.317593,143.280899 
	C54.394436,141.760529 56.582382,140.346878 57.797462,138.884033 
	C58.890804,140.401047 60.853306,141.876373 60.928375,143.442215 
	C61.269573,150.559219 61.144642,157.702820 61.023151,164.834061 
	C60.999722,166.209259 60.240753,167.571930 59.477909,169.161667 
z"/>
<path fill="#C83238" opacity="1.000000" stroke="none" 
	d="
M240.933655,159.876465 
	C241.631729,155.080795 242.315216,150.724533 242.998688,146.368256 
	C243.383224,146.353867 243.767761,146.339462 244.152283,146.325073 
	C245.107590,151.280640 246.062897,156.236206 247.306763,162.688690 
	C244.519638,161.653351 242.719345,160.984604 240.933655,159.876465 
z"/>
</svg>