<svg version="1.1" id="Layer_1" xmlns="http://www.w3.org/2000/svg" xmlns:xlink="http://www.w3.org/1999/xlink" x="0px" y="0px"
	 width="100%" viewBox="0 0 100 100" enable-background="new 0 0 100 100" xml:space="preserve">
<path fill="#000000" opacity="1.000000" stroke="none" 
	d="
M64.000000,101.000000 
	C42.666672,101.000000 21.833342,101.000000 1.000008,101.000000 
	C1.000006,67.666679 1.000006,34.333351 1.000003,1.000022 
	C34.333317,1.000015 67.666634,1.000015 100.999969,1.000007 
	C100.999977,34.333309 100.999977,67.666618 100.999985,100.999969 
	C88.833336,101.000000 76.666664,101.000000 64.000000,101.000000 
M80.038109,49.788746 
	C80.356979,48.868023 80.746056,47.965000 80.983391,47.023720 
	C82.571823,40.723915 73.145309,30.867193 66.689362,28.703453 
	C67.548225,27.579630 68.437012,26.378376 69.365356,25.208504 
	C73.370903,20.160860 72.343956,16.165920 66.086784,14.764481 
	C62.529076,13.967649 58.638699,14.404601 54.920490,14.639635 
	C50.291164,14.932261 46.123039,16.150923 44.180759,21.196079 
	C43.836788,22.089558 42.152500,22.740221 40.977943,22.990456 
	C37.182590,23.799038 33.307255,24.235491 29.516815,25.063036 
	C24.446140,26.170080 20.703314,30.271395 21.065861,34.689358 
	C21.422348,39.033493 24.419804,43.299809 21.086527,47.703999 
	C20.853344,48.012096 21.717030,49.090942 21.978617,49.843376 
	C23.020868,52.841316 23.981712,55.868164 25.059717,58.852879 
	C25.973219,61.382122 26.613377,64.136078 28.090195,66.302773 
	C29.790606,68.797501 32.539627,70.560349 34.358704,72.995522 
	C36.850697,76.331528 38.481159,80.371063 41.223511,83.446953 
	C46.130989,88.951309 53.361176,89.386124 61.115799,86.393127 
	C67.374329,83.977554 64.398239,78.687447 64.782875,74.454704 
	C64.814583,74.105827 64.507088,73.726128 64.296669,73.213203 
	C65.055145,73.137917 65.560745,72.956635 65.994255,73.064659 
	C71.253105,74.375092 72.673332,73.305649 73.032196,68.068672 
	C73.124878,66.716209 73.939987,65.419533 74.382095,64.083603 
	C75.910446,59.465237 81.763351,56.662369 80.038109,49.788746 
z"/>
<path fill="#F6F5ED" opacity="1.000000" stroke="none" 
	d="
M80.025711,50.229324 
	C81.763351,56.662369 75.910446,59.465237 74.382095,64.083603 
	C73.939987,65.419533 73.124878,66.716209 73.032196,68.068672 
	C72.673332,73.305649 71.253105,74.375092 65.994255,73.064659 
	C65.560745,72.956635 65.055145,73.137917 64.296669,73.213203 
	C64.507088,73.726128 64.814583,74.105827 64.782875,74.454704 
	C64.398239,78.687447 67.374329,83.977554 61.115799,86.393127 
	C53.361176,89.386124 46.130989,88.951309 41.223511,83.446953 
	C38.481159,80.371063 36.850697,76.331528 34.358704,72.995522 
	C32.539627,70.560349 29.790606,68.797501 28.090195,66.302773 
	C26.613377,64.136078 25.973219,61.382122 25.059717,58.852879 
	C23.981712,55.868164 23.020868,52.841316 21.978617,49.843376 
	C21.717030,49.090942 20.853344,48.012096 21.086527,47.703999 
	C24.419804,43.299809 21.422348,39.033493 21.065861,34.689358 
	C20.703314,30.271395 24.446140,26.170080 29.516815,25.063036 
	C33.307255,24.235491 37.182590,23.799038 40.977943,22.990456 
	C42.152500,22.740221 43.836788,22.089558 44.180759,21.196079 
	C46.123039,16.150923 50.291164,14.932261 54.920490,14.639635 
	C58.638699,14.404601 62.529076,13.967649 66.086784,14.764481 
	C72.343956,16.165920 73.370903,20.160860 69.365356,25.208504 
	C68.437012,26.378376 67.548225,27.579630 66.689362,28.703453 
	C73.145309,30.867193 82.571823,40.723915 80.983391,47.023720 
	C80.746056,47.965000 80.356979,48.868023 80.025711,50.229324 
M30.251356,28.931259 
	C29.868557,29.584063 29.485756,30.236866 28.504042,31.190302 
	C26.737293,32.770561 23.708944,33.923977 26.808233,37.707218 
	C28.225599,39.280373 29.642967,40.853527 30.854034,43.009361 
	C30.268696,44.339596 29.683357,45.669830 28.752371,47.733456 
	C26.794086,51.643394 28.179365,54.941483 30.546059,58.137058 
	C32.746140,61.107666 35.172245,61.669838 38.689167,59.113041 
	C39.172016,59.391277 39.654861,59.669510 40.013321,60.675667 
	C39.873856,62.932396 39.023769,65.457039 39.751354,67.386879 
	C41.038372,70.800545 43.285278,73.852310 44.840328,77.799744 
	C46.630695,82.495010 55.504520,85.195702 58.932358,81.874069 
	C59.579071,81.247391 59.296436,78.997353 58.698959,77.902046 
	C57.730225,76.126129 56.146286,74.685791 54.790730,72.397324 
	C54.247948,69.987167 53.705170,67.577003 53.893013,65.195389 
	C56.227196,65.820190 58.561378,66.444992 61.684948,67.191200 
	C66.652977,67.014877 69.128403,63.290028 70.993980,59.655235 
	C71.858162,57.971519 70.510979,55.152802 70.148659,52.155327 
	C71.383278,50.576393 72.617897,48.997456 73.744415,48.036125 
	C74.052849,48.238930 74.361282,48.441734 74.669708,48.644539 
	C74.799080,48.077999 74.928452,47.511459 75.675362,46.669811 
	C78.002159,43.596703 76.094772,41.715385 73.300911,39.752674 
	C72.953094,39.744133 72.605278,39.735592 72.319069,39.095863 
	C72.086105,38.326721 71.853142,37.557575 71.175934,36.221424 
	C69.832191,35.346794 68.488457,34.472164 66.828079,33.228104 
	C66.384117,33.032028 65.940147,32.835953 65.062103,32.140591 
	C64.058540,31.728046 63.054985,31.315502 62.170319,30.070612 
	C61.385387,26.757126 62.366646,24.084146 65.020592,22.005774 
	C65.020592,22.005774 64.993057,22.071089 65.588066,21.919298 
	C65.857903,21.616886 66.127731,21.314472 66.893257,20.479692 
	C62.365196,20.277151 57.748116,19.440645 53.335506,20.060268 
	C49.363731,20.617987 46.406532,23.497629 45.058968,27.975155 
	C43.703014,28.028391 42.347065,28.081627 40.255211,28.061190 
	C38.459160,28.012543 36.663109,27.963894 34.527004,27.956675 
	C34.527004,27.956675 34.200562,28.060541 33.483398,27.946699 
	C32.625656,28.260862 31.767918,28.575026 30.251356,28.931259 
z"/>
<path fill="#79B541" opacity="1.000000" stroke="none" 
	d="
M60.895561,67.069786 
	C58.561378,66.444992 56.227196,65.820190 53.336197,64.847443 
	C52.537186,61.066910 52.294998,57.634312 52.425514,54.122314 
	C53.556164,53.974350 54.314110,53.905785 55.339523,54.042603 
	C55.450439,55.220280 55.061977,56.224625 55.190907,57.157459 
	C55.391422,58.608288 55.943726,60.010494 56.346928,61.433311 
	C57.571461,60.452599 59.225548,59.703789 59.911861,58.432514 
	C60.770950,56.841202 60.835041,54.820705 61.446342,52.743584 
	C64.364143,48.083954 66.678284,51.543182 68.930626,53.220734 
	C66.272003,58.141766 66.297699,64.186066 60.895561,67.069786 
z"/>
<path fill="#5A9544" opacity="1.000000" stroke="none" 
	d="
M45.130455,77.055542 
	C43.285278,73.852310 41.038372,70.800545 39.751354,67.386879 
	C39.023769,65.457039 39.873856,62.932396 40.286293,60.123230 
	C40.287392,58.973755 40.015511,58.376709 39.761909,57.383064 
	C39.869930,55.663105 39.959667,54.339748 40.380424,52.899147 
	C42.806313,53.194202 44.901176,53.606514 46.993729,54.347477 
	C46.990738,56.129181 46.990067,57.582226 46.591751,59.031937 
	C45.537090,60.745026 44.162479,62.553841 44.369144,64.159073 
	C44.830795,67.744812 46.081020,71.229034 47.094559,75.049744 
	C47.568504,76.097290 47.957886,76.849693 48.748787,78.377945 
	C46.928833,77.712799 46.029644,77.384171 45.130455,77.055542 
z"/>
<path fill="#CF9C4D" opacity="1.000000" stroke="none" 
	d="
M45.868237,27.982796 
	C46.406532,23.497629 49.363731,20.617987 53.335506,20.060268 
	C57.748116,19.440645 62.365196,20.277151 66.358276,20.853165 
	C65.546555,21.508121 65.269806,21.789606 64.993057,22.071091 
	C64.993057,22.071089 65.020592,22.005774 64.658813,21.993149 
	C60.041431,23.063324 55.465408,23.676855 53.697670,28.962461 
	C51.854172,28.660461 50.390125,28.354877 48.545090,28.029072 
	C47.398811,28.000168 46.633526,27.991482 45.868237,27.982796 
z"/>
<path fill="#4F9B42" opacity="1.000000" stroke="none" 
	d="
M46.989391,59.035275 
	C46.990067,57.582226 46.990738,56.129181 47.202934,54.091019 
	C48.960579,53.737839 50.506695,53.969776 52.052811,54.201714 
	C52.294998,57.634312 52.537186,61.066910 52.970882,64.833176 
	C53.705170,67.577003 54.247948,69.987167 54.569832,72.968857 
	C53.126205,74.756546 54.154129,79.931679 50.017448,75.590012 
	C49.013622,69.793419 48.001507,64.414345 46.989391,59.035275 
z"/>
<path fill="#207746" opacity="1.000000" stroke="none" 
	d="
M50.009163,76.007523 
	C54.154129,79.931679 53.126205,74.756546 54.585503,73.322083 
	C56.146286,74.685791 57.730225,76.126129 58.698959,77.902046 
	C59.296436,78.997353 59.579071,81.247391 58.932358,81.874069 
	C55.504520,85.195702 46.630695,82.495010 44.985390,77.427643 
	C46.029644,77.384171 46.928833,77.712799 48.748787,78.377945 
	C47.957886,76.849693 47.568504,76.097290 47.405487,75.151085 
	C48.424290,75.307365 49.216724,75.657448 50.009163,76.007523 
z"/>
<path fill="#6A4D28" opacity="1.000000" stroke="none" 
	d="
M69.100113,52.879642 
	C66.678284,51.543182 64.364143,48.083954 61.401039,52.345528 
	C60.111309,51.657051 59.070938,51.124737 58.017036,50.254250 
	C57.978050,49.240051 57.952595,48.564037 57.946987,47.651100 
	C57.966839,47.414185 58.009682,46.939114 58.470394,46.951321 
	C63.911873,46.657013 68.892639,46.350502 73.867584,46.387611 
	C73.858673,46.960331 73.855591,47.189426 73.852509,47.418518 
	C72.617897,48.997456 71.383278,50.576393 69.891632,52.523399 
	C69.456444,52.887531 69.278282,52.883587 69.100113,52.879642 
z"/>
<path fill="#9D6029" opacity="1.000000" stroke="none" 
	d="
M54.077122,28.958876 
	C55.465408,23.676855 60.041431,23.063324 64.689781,22.010376 
	C62.366646,24.084146 61.385387,26.757126 61.808552,30.520260 
	C61.251194,31.020971 61.055599,31.072037 60.511684,31.101669 
	C59.460064,31.046690 58.756771,31.013144 57.718716,30.953129 
	C56.377556,30.564665 55.371159,30.202671 54.315037,29.612991 
	C54.265316,29.385302 54.077122,28.958876 54.077122,28.958876 
z"/>
<path fill="#529945" opacity="1.000000" stroke="none" 
	d="
M68.930626,53.220734 
	C69.278282,52.883587 69.456444,52.887531 69.900467,52.870060 
	C70.510979,55.152802 71.858162,57.971519 70.993980,59.655235 
	C69.128403,63.290028 66.652977,67.014877 61.290253,67.130493 
	C66.297699,64.186066 66.272003,58.141766 68.930626,53.220734 
z"/>
<path fill="#558F49" opacity="1.000000" stroke="none" 
	d="
M38.079796,59.190533 
	C35.172245,61.669838 32.746140,61.107666 30.546059,58.137058 
	C28.179365,54.941483 26.794086,51.643394 29.301823,47.433632 
	C30.564402,49.825333 31.277529,52.516861 32.145996,55.477306 
	C33.223145,56.162994 34.144955,56.579762 35.396492,56.998444 
	C36.166172,56.991390 36.606129,56.982426 37.023895,56.987656 
	C37.001705,57.001842 37.012245,56.950233 37.126106,57.187866 
	C37.536228,57.606098 37.832489,57.786701 38.094269,57.942307 
	C38.059788,57.917305 38.115273,57.852669 38.103065,58.187046 
	C38.087166,58.744461 38.083481,58.967499 38.079796,59.190533 
z"/>
<path fill="#4B3D22" opacity="1.000000" stroke="none" 
	d="
M31.060333,42.426682 
	C29.642967,40.853527 28.225599,39.280373 26.998240,37.291607 
	C27.802887,36.565521 28.417528,36.255043 29.077072,36.306824 
	C32.678852,38.670712 36.203533,40.736156 39.843739,42.572620 
	C40.197346,42.751011 41.264923,41.514175 41.993176,41.315926 
	C41.594326,43.163361 41.203384,44.629147 40.501411,46.063988 
	C39.775326,45.995449 39.360275,45.957851 38.799023,45.650200 
	C37.798054,44.905952 36.943291,44.431763 36.071861,43.946186 
	C36.055195,43.934803 36.014839,43.934158 35.789627,43.656036 
	C34.399567,43.356304 33.234722,43.334686 31.935680,43.121620 
	C31.629890,42.651089 31.382839,42.483257 31.060333,42.426682 
z"/>
<path fill="#B75C32" opacity="1.000000" stroke="none" 
	d="
M29.032169,35.944565 
	C28.417528,36.255043 27.802887,36.565521 26.854342,36.964600 
	C23.708944,33.923977 26.737293,32.770561 29.101192,31.127453 
	C30.491268,31.299904 31.284195,31.535206 32.448776,31.813686 
	C34.024719,31.565239 35.229004,31.273613 36.627434,31.082153 
	C37.139561,31.488539 37.457542,31.794758 37.731339,32.460686 
	C34.802155,33.861786 31.917164,34.903179 29.032169,35.944565 
z"/>
<path fill="#95BE5D" opacity="1.000000" stroke="none" 
	d="
M30.957184,42.718021 
	C31.382839,42.483257 31.629890,42.651089 32.205215,43.318428 
	C33.744244,43.782505 34.879539,43.858334 36.014839,43.934158 
	C36.014839,43.934158 36.055195,43.934803 35.898422,44.256111 
	C32.497055,47.417423 31.535206,51.062866 31.990658,55.208385 
	C31.277529,52.516861 30.564402,49.825333 29.474648,47.066936 
	C29.683357,45.669830 30.268696,44.339596 30.957184,42.718021 
z"/>
<path fill="#447284" opacity="1.000000" stroke="none" 
	d="
M65.496185,32.639881 
	C65.940147,32.835953 66.384117,33.032028 66.804214,33.708092 
	C66.456657,34.796803 66.132973,35.405529 65.596115,36.112061 
	C64.978653,36.461941 64.574364,36.714012 63.831902,36.920597 
	C63.046436,36.800404 62.599136,36.725689 62.128952,36.353024 
	C61.992981,35.674248 61.879894,35.293423 61.815155,34.596092 
	C61.899010,33.854584 61.934509,33.429577 62.409073,32.952171 
	C63.730816,32.813145 64.613503,32.726513 65.496185,32.639881 
z"/>
<path fill="#796B55" opacity="1.000000" stroke="none" 
	d="
M73.783325,39.947796 
	C76.094772,41.715385 78.002159,43.596703 75.428368,46.560219 
	C74.791695,45.940411 74.402016,45.430199 73.866005,44.705742 
	C73.225945,44.042782 72.732216,43.594070 72.540833,43.009323 
	C73.156563,41.898121 73.469940,40.922958 73.783325,39.947796 
z"/>
<path fill="#D9854B" opacity="1.000000" stroke="none" 
	d="
M36.433289,30.981987 
	C35.229004,31.273613 34.024719,31.565239 32.467331,31.495232 
	C32.117382,30.705299 32.120529,30.277000 32.288727,29.634136 
	C33.036041,28.966560 33.618301,28.513552 34.200562,28.060541 
	C34.200562,28.060541 34.527004,27.956675 34.833466,28.196457 
	C35.419289,28.704523 35.698654,28.972809 36.023132,29.535763 
	C36.189930,30.214281 36.311611,30.598135 36.433289,30.981987 
z"/>
<path fill="#C26034" opacity="1.000000" stroke="none" 
	d="
M73.542114,39.850235 
	C73.469940,40.922958 73.156563,41.898121 72.259842,42.851028 
	C71.139465,42.218678 70.602425,41.608578 70.094528,40.806759 
	C70.123680,40.615040 70.205353,40.235729 70.549118,40.157967 
	C71.347740,39.962482 71.802605,39.844765 72.257462,39.727047 
	C72.605278,39.735592 72.953094,39.744133 73.542114,39.850235 
z"/>
<path fill="#A9895F" opacity="1.000000" stroke="none" 
	d="
M65.809288,36.014256 
	C66.132973,35.405529 66.456657,34.796803 66.962524,33.892807 
	C68.488457,34.472164 69.832191,35.346794 71.006279,36.567802 
	C70.165291,37.547974 69.493950,38.181767 68.596642,38.600433 
	C67.516876,37.594955 66.663078,36.804607 65.809288,36.014256 
z"/>
<path fill="#2F7092" opacity="1.000000" stroke="none" 
	d="
M68.822617,38.815563 
	C69.493950,38.181767 70.165291,37.547974 71.228394,36.851307 
	C71.853142,37.557575 72.086105,38.326721 72.288269,39.411453 
	C71.802605,39.844765 71.347740,39.962482 70.257523,40.037331 
	C69.420898,39.936787 69.219620,39.879116 68.985039,39.566933 
	C68.908699,39.146805 68.865662,38.981186 68.822617,38.815563 
z"/>
<path fill="#DFC67E" opacity="1.000000" stroke="none" 
	d="
M45.463600,27.978975 
	C46.633526,27.991482 47.398811,28.000168 48.568275,28.292303 
	C48.978828,28.752037 48.985210,28.928322 48.589378,29.080072 
	C46.634289,29.087992 45.081425,29.120445 43.121201,29.086990 
	C42.164879,28.997295 41.615910,28.973511 41.042080,28.746559 
	C41.017216,28.543392 40.991112,28.134863 40.991112,28.134863 
	C42.347065,28.081627 43.703014,28.028391 45.463600,27.978975 
z"/>
<path fill="#C0B89D" opacity="1.000000" stroke="none" 
	d="
M40.623161,28.098026 
	C40.991112,28.134863 41.017216,28.543392 40.868759,28.889027 
	C40.720299,29.234663 40.325729,29.445583 39.916588,29.265562 
	C38.330971,29.137392 37.154491,29.189243 35.978016,29.241096 
	C35.698654,28.972809 35.419289,28.704523 35.003494,28.175741 
	C36.663109,27.963894 38.459160,28.012543 40.623161,28.098026 
z"/>
<path fill="#B19565" opacity="1.000000" stroke="none" 
	d="
M65.279144,32.390236 
	C64.613503,32.726513 63.730816,32.813145 62.298473,32.701447 
	C61.452545,32.043118 61.156277,31.583111 60.860008,31.123104 
	C61.055599,31.072037 61.251194,31.020971 61.749107,30.936432 
	C63.054985,31.315502 64.058540,31.728046 65.279144,32.390236 
z"/>
<path fill="#9EA29E" opacity="1.000000" stroke="none" 
	d="
M32.123680,29.848703 
	C32.120529,30.277000 32.117382,30.705299 32.095676,31.452053 
	C31.284195,31.535206 30.491268,31.299904 29.400648,30.977135 
	C29.485756,30.236866 29.868557,29.584063 30.715088,29.146675 
	C31.493773,29.524296 31.808725,29.686499 32.123680,29.848703 
z"/>
<path fill="#A25833" opacity="1.000000" stroke="none" 
	d="
M74.012329,44.919987 
	C74.402016,45.430199 74.791695,45.940411 75.119598,46.697769 
	C74.928452,47.511459 74.799080,48.077999 74.669708,48.644539 
	C74.361282,48.441734 74.052849,48.238930 73.798462,47.727322 
	C73.855591,47.189426 73.858673,46.960331 73.909584,46.107258 
	C73.975708,45.295517 73.994019,45.107750 74.012329,44.919987 
z"/>
<path fill="#9C9179" opacity="1.000000" stroke="none" 
	d="
M32.288727,29.634136 
	C31.808725,29.686499 31.493773,29.524296 31.044498,29.125641 
	C31.767918,28.575026 32.625656,28.260862 33.841980,28.003620 
	C33.618301,28.513552 33.036041,28.966560 32.288727,29.634136 
z"/>
<path fill="#516D33" opacity="1.000000" stroke="none" 
	d="
M38.384483,59.151787 
	C38.083481,58.967499 38.087166,58.744461 38.374584,58.202999 
	C39.020084,57.849606 39.381859,57.814636 39.743629,57.779667 
	C40.015511,58.376709 40.287392,58.973755 40.348488,59.759270 
	C39.654861,59.669510 39.172016,59.391277 38.384483,59.151787 
z"/>
<path fill="#9D6029" opacity="1.000000" stroke="none" 
	d="
M65.290558,21.995193 
	C65.269806,21.789606 65.546555,21.508121 66.110435,21.119347 
	C66.127731,21.314472 65.857903,21.616886 65.290558,21.995193 
z"/>
<path fill="#2A3B38" opacity="1.000000" stroke="none" 
	d="
M38.945225,45.920254 
	C39.360275,45.957851 39.775326,45.995449 40.557838,46.419296 
	C41.807579,49.794815 43.177731,49.992874 45.407246,47.407501 
	C46.935375,47.676228 48.052914,48.294418 49.210823,48.382618 
	C50.853432,48.507732 52.525776,48.242508 54.560944,48.121414 
	C55.933365,48.028500 56.930248,47.958260 57.927135,47.888016 
	C57.952595,48.564037 57.978050,49.240051 57.762550,50.462814 
	C56.705074,51.952114 55.888565,52.894665 55.072052,53.837219 
	C54.314110,53.905785 53.556164,53.974350 52.425514,54.122314 
	C50.506695,53.969776 48.960579,53.737839 47.205254,53.762360 
	C44.901176,53.606514 42.806313,53.194202 40.273964,52.551262 
	C38.894161,51.900520 37.951836,51.480412 37.019707,50.664383 
	C37.109264,49.481781 37.188622,48.695107 37.444908,47.736801 
	C37.721493,47.092216 37.821144,46.619263 38.176170,46.086468 
	C38.602768,45.991173 38.773994,45.955715 38.945225,45.920254 
z"/>
<path fill="#E9E9E9" opacity="1.000000" stroke="none" 
	d="
M55.339523,54.042603 
	C55.888565,52.894665 56.705074,51.952114 57.776077,50.800995 
	C59.070938,51.124737 60.111309,51.657051 61.196991,52.587418 
	C60.835041,54.820705 60.770950,56.841202 59.911861,58.432514 
	C59.225548,59.703789 57.571461,60.452599 56.346928,61.433311 
	C55.943726,60.010494 55.391422,58.608288 55.190907,57.157459 
	C55.061977,56.224625 55.450439,55.220280 55.339523,54.042603 
z"/>
<path fill="#86C040" opacity="1.000000" stroke="none" 
	d="
M50.017448,75.590004 
	C49.216724,75.657448 48.424290,75.307365 47.320930,74.855942 
	C46.081020,71.229034 44.830795,67.744812 44.369144,64.159073 
	C44.162479,62.553841 45.537090,60.745026 46.591751,59.031937 
	C48.001507,64.414345 49.013622,69.793419 50.017448,75.590004 
z"/>
<path fill="#DCDCDC" opacity="1.000000" stroke="none" 
	d="
M37.009514,51.060307 
	C37.951836,51.480412 38.894161,51.900520 39.942947,52.668510 
	C39.959667,54.339748 39.869930,55.663105 39.761909,57.383064 
	C39.381859,57.814636 39.020084,57.849606 38.386795,57.868622 
	C38.115273,57.852669 38.059788,57.917305 38.006813,57.685562 
	C37.639977,57.285954 37.326111,57.118092 37.012245,56.950233 
	C37.012245,56.950233 37.001705,57.001842 36.869999,56.677467 
	C36.506344,55.266266 36.274395,54.179443 36.264664,52.984818 
	C36.685871,52.261955 36.884869,51.646896 37.057140,51.017509 
	C37.030418,51.003178 37.009514,51.060307 37.009514,51.060307 
z"/>
<path fill="#CFA660" opacity="1.000000" stroke="none" 
	d="
M48.991596,29.104607 
	C48.985210,28.928322 48.978828,28.752037 48.949265,28.312523 
	C50.390125,28.354877 51.854172,28.660461 53.697670,28.962461 
	C54.077122,28.958876 54.265316,29.385302 54.045296,29.786484 
	C53.603722,30.753180 53.382160,31.318693 52.815941,31.792454 
	C51.333534,31.486128 50.195793,31.271555 49.064484,30.731071 
	C49.044476,29.971643 49.018036,29.538126 48.991596,29.104607 
z"/>
<path fill="#845A3A" opacity="1.000000" stroke="none" 
	d="
M73.866005,44.705742 
	C73.994019,45.107750 73.975708,45.295517 73.915405,45.763634 
	C68.892639,46.350502 63.911873,46.657013 58.340370,46.673050 
	C57.520012,45.608677 57.290390,44.834789 57.350594,44.134727 
	C60.202026,42.353107 59.513203,40.988598 57.026249,39.582756 
	C57.387070,38.477097 57.711479,37.689857 58.373405,36.931290 
	C59.777142,37.284122 60.843365,37.608292 62.191284,38.060436 
	C63.028851,38.447933 63.584721,38.707451 64.476608,38.996422 
	C65.876411,39.361282 66.940216,39.696693 68.185760,40.269287 
	C68.933464,40.670471 69.499428,40.834476 70.065384,40.998478 
	C70.602425,41.608578 71.139465,42.218678 71.957489,42.987068 
	C72.732216,43.594070 73.225945,44.042782 73.866005,44.705742 
z"/>
<path fill="#637D43" opacity="1.000000" stroke="none" 
	d="
M57.060772,44.060898 
	C57.290390,44.834789 57.520012,45.608677 57.879654,46.660843 
	C58.009682,46.939114 57.966839,47.414185 57.946987,47.651100 
	C56.930248,47.958260 55.933365,48.028500 54.466988,47.703419 
	C54.206463,46.200417 54.415424,45.092739 54.926598,43.990124 
	C55.839462,44.017090 56.450119,44.038994 57.060772,44.060898 
z"/>
<path fill="#417D9D" opacity="1.000000" stroke="none" 
	d="
M53.160599,31.884207 
	C53.382160,31.318693 53.603722,30.753180 54.095016,30.014172 
	C55.371159,30.202671 56.377556,30.564665 57.673027,31.286591 
	C57.853279,32.081528 57.744461,32.516533 57.449501,32.987846 
	C57.263359,33.024158 56.897594,33.138775 56.534500,33.071991 
	C55.432377,32.909283 54.693348,32.813358 53.843792,32.557991 
	C53.585461,32.179138 53.394569,32.007687 53.160599,31.884207 
z"/>
<path fill="#D0904A" opacity="1.000000" stroke="none" 
	d="
M57.635639,32.951534 
	C57.744461,32.516533 57.853279,32.081528 58.007790,31.313063 
	C58.756771,31.013144 59.460064,31.046690 60.511684,31.101671 
	C61.156277,31.583111 61.452545,32.043118 61.859413,32.753845 
	C61.934509,33.429577 61.899010,33.854584 61.532143,34.437164 
	C60.012398,34.047005 58.824020,33.499271 57.635639,32.951534 
z"/>
<path fill="#7AB841" opacity="1.000000" stroke="none" 
	d="
M37.267982,47.908432 
	C37.188622,48.695107 37.109264,49.481781 37.019707,50.664383 
	C37.009514,51.060307 37.030418,51.003178 36.836411,51.044964 
	C36.352741,51.189220 36.132179,51.374069 35.641705,51.750679 
	C35.224049,53.572224 35.145409,55.284374 35.066769,56.996529 
	C34.144955,56.579762 33.223145,56.162994 32.145996,55.477306 
	C31.535206,51.062866 32.497055,47.417423 35.915092,44.267494 
	C36.943291,44.431763 37.798054,44.905952 38.799023,45.650200 
	C38.773994,45.955715 38.602768,45.991173 37.925522,46.184143 
	C37.368992,46.863914 37.318489,47.386173 37.267982,47.908432 
z"/>
<path fill="#46703E" opacity="1.000000" stroke="none" 
	d="
M35.396492,56.998444 
	C35.145409,55.284374 35.224049,53.572224 35.646957,52.115856 
	C36.008297,52.611969 36.025372,52.852295 36.042450,53.092621 
	C36.274395,54.179443 36.506344,55.266266 36.892189,56.663277 
	C36.606129,56.982426 36.166172,56.991390 35.396492,56.998444 
z"/>
<path fill="#46703E" opacity="1.000000" stroke="none" 
	d="
M37.126106,57.187862 
	C37.326111,57.118092 37.639977,57.285954 38.041294,57.710560 
	C37.832489,57.786701 37.536228,57.606098 37.126106,57.187862 
z"/>
<path fill="#7B5535" opacity="1.000000" stroke="none" 
	d="
M58.035889,36.902618 
	C57.711479,37.689857 57.387070,38.477097 56.661301,39.615135 
	C55.527653,39.953823 54.795364,39.941708 53.897331,39.680885 
	C51.871929,39.608177 50.012264,39.784172 48.045380,39.604713 
	C45.159550,36.993626 43.101627,37.277302 42.001080,40.934273 
	C41.264923,41.514175 40.197346,42.751011 39.843739,42.572620 
	C36.203533,40.736156 32.678852,38.670712 29.077074,36.306824 
	C31.917164,34.903179 34.802155,33.861786 38.028938,32.324333 
	C39.022392,31.034039 39.674061,30.239811 40.325729,29.445583 
	C40.325729,29.445583 40.720299,29.234663 40.893623,29.092194 
	C41.615910,28.973511 42.164879,28.997295 43.069283,29.391762 
	C44.674381,30.792593 45.924034,31.822744 47.334042,33.182796 
	C49.657272,34.004585 51.820152,34.496471 54.256367,35.000259 
	C54.710396,35.037045 54.891087,35.061924 55.264725,35.315376 
	C56.317078,35.996841 57.176483,36.449730 58.035889,36.902618 
z"/>
<path fill="#4C744E" opacity="1.000000" stroke="none" 
	d="
M41.993176,41.315926 
	C43.101627,37.277302 45.159550,36.993626 47.632565,39.675453 
	C45.942112,40.693531 43.371902,41.319111 43.387589,41.871204 
	C43.441490,43.768127 44.400581,45.639328 45.014679,47.520329 
	C43.177731,49.992874 41.807579,49.794815 40.868874,46.450241 
	C41.203384,44.629147 41.594326,43.163361 41.993176,41.315926 
z"/>
<path fill="#7AB841" opacity="1.000000" stroke="none" 
	d="
M35.789627,43.656040 
	C34.879539,43.858334 33.744244,43.782505 32.339409,43.509876 
	C33.234722,43.334686 34.399567,43.356304 35.789627,43.656040 
z"/>
<path fill="#2974A2" opacity="1.000000" stroke="none" 
	d="
M39.916588,29.265562 
	C39.674061,30.239811 39.022392,31.034039 38.073128,31.964622 
	C37.457542,31.794758 37.139561,31.488539 36.627434,31.082153 
	C36.311611,30.598135 36.189930,30.214281 36.023132,29.535763 
	C37.154491,29.189243 38.330971,29.137392 39.916588,29.265562 
z"/>
<path fill="#BE522A" opacity="1.000000" stroke="none" 
	d="
M58.373405,36.931290 
	C57.176483,36.449730 56.317078,35.996841 55.495979,35.168747 
	C55.988724,34.241955 56.443161,33.690365 56.897598,33.138775 
	C56.897594,33.138775 57.263359,33.024158 57.449501,32.987846 
	C58.824020,33.499271 60.012398,34.047005 61.483791,34.753670 
	C61.879894,35.293423 61.992981,35.674248 62.057495,36.672836 
	C61.975811,37.504555 61.942699,37.718506 61.909588,37.932461 
	C60.843365,37.608292 59.777142,37.284122 58.373405,36.931290 
z"/>
<path fill="#C4502B" opacity="1.000000" stroke="none" 
	d="
M68.004013,40.032101 
	C66.940216,39.696693 65.876411,39.361282 64.446503,38.663097 
	C64.110275,37.855576 64.140175,37.410828 64.170067,36.966080 
	C64.574364,36.714012 64.978653,36.461941 65.596115,36.112061 
	C66.663078,36.804607 67.516876,37.594955 68.596642,38.600433 
	C68.865662,38.981186 68.908699,39.146805 68.733490,39.629158 
	C68.344833,39.974625 68.174423,40.003365 68.004013,40.032101 
z"/>
<path fill="#80522B" opacity="1.000000" stroke="none" 
	d="
M63.831902,36.920597 
	C64.140175,37.410828 64.110275,37.855576 64.110489,38.633644 
	C63.584721,38.707451 63.028851,38.447933 62.191284,38.060436 
	C61.942699,37.718506 61.975811,37.504555 62.080376,36.970787 
	C62.599136,36.725689 63.046436,36.800404 63.831902,36.920597 
z"/>
<path fill="#8A592E" opacity="1.000000" stroke="none" 
	d="
M68.185760,40.269287 
	C68.174423,40.003365 68.344833,39.974625 68.766800,39.883667 
	C69.219620,39.879116 69.420898,39.936787 69.913757,40.115093 
	C70.205353,40.235729 70.123680,40.615040 70.094528,40.806759 
	C69.499428,40.834476 68.933464,40.670471 68.185760,40.269287 
z"/>
<path fill="#2C749C" opacity="1.000000" stroke="none" 
	d="
M47.173691,32.852894 
	C45.924034,31.822744 44.674381,30.792593 43.476639,29.457672 
	C45.081425,29.120445 46.634289,29.087992 48.589378,29.080072 
	C49.018036,29.538126 49.044476,29.971643 48.839001,30.870899 
	C48.129288,31.842054 47.651489,32.347473 47.173691,32.852894 
z"/>
<path fill="#C6D7C8" opacity="1.000000" stroke="none" 
	d="
M45.407242,47.407501 
	C44.400581,45.639328 43.441490,43.768127 43.387589,41.871204 
	C43.371902,41.319111 45.942112,40.693531 47.739784,40.030899 
	C50.012264,39.784172 51.871929,39.608177 53.810249,40.097404 
	C54.134064,41.836773 54.379223,42.910919 54.624382,43.985062 
	C54.415424,45.092739 54.206463,46.200417 54.091457,47.726089 
	C52.525776,48.242508 50.853432,48.507732 49.210823,48.382618 
	C48.052914,48.294418 46.935375,47.676228 45.407242,47.407501 
z"/>
<path fill="#4B3D22" opacity="1.000000" stroke="none" 
	d="
M37.444912,47.736801 
	C37.318489,47.386173 37.368992,46.863914 37.670147,46.243980 
	C37.821144,46.619263 37.721493,47.092216 37.444912,47.736801 
z"/>
<path fill="#667B61" opacity="1.000000" stroke="none" 
	d="
M36.264664,52.984818 
	C36.025372,52.852295 36.008297,52.611969 35.985970,52.006470 
	C36.132179,51.374069 36.352741,51.189220 36.863136,51.059296 
	C36.884869,51.646896 36.685871,52.261955 36.264664,52.984818 
z"/>
<path fill="#BD542C" opacity="1.000000" stroke="none" 
	d="
M47.334042,33.182796 
	C47.651489,32.347473 48.129288,31.842054 48.832565,31.196808 
	C50.195793,31.271555 51.333534,31.486128 52.815941,31.792454 
	C53.394569,32.007687 53.585461,32.179138 53.821419,32.939499 
	C53.934059,33.983082 53.958546,34.485718 53.983032,34.988358 
	C51.820152,34.496471 49.657272,34.004585 47.334042,33.182796 
z"/>
<path fill="#528D3F" opacity="1.000000" stroke="none" 
	d="
M54.926598,43.990124 
	C54.379223,42.910919 54.134064,41.836773 53.975986,40.346107 
	C54.795364,39.941708 55.527653,39.953823 56.624893,39.933556 
	C59.513203,40.988598 60.202026,42.353107 57.350594,44.134727 
	C56.450119,44.038994 55.839462,44.017090 54.926598,43.990124 
z"/>
<path fill="#3A5340" opacity="1.000000" stroke="none" 
	d="
M54.256367,35.000259 
	C53.958546,34.485718 53.934059,33.983082 53.931946,33.098938 
	C54.693348,32.813358 55.432377,32.909283 56.534500,33.071991 
	C56.443161,33.690365 55.988724,34.241955 55.303032,34.940170 
	C54.891087,35.061924 54.710396,35.037045 54.256367,35.000259 
z"/>
</svg>